<svg width="63" height="86" viewBox="0 0 63 86" fill="none" xmlns="http://www.w3.org/2000/svg">
<g id="Group 48">
<path id="Vector" d="M29.0832 39.4277C28.7543 39.4277 28.4389 39.5584 28.2064 39.7909C27.9738 40.0235 27.8432 40.3389 27.8432 40.6677C27.8432 40.9966 27.9738 41.312 28.2064 41.5445C28.4389 41.7771 28.7543 41.9077 29.0832 41.9077C31.3853 41.9077 33.593 40.9932 35.2209 39.3654C36.8487 37.7376 37.7632 35.5298 37.7632 33.2277C37.7632 30.9256 36.8487 28.7179 35.2209 27.09C33.593 25.4622 31.3853 24.5477 29.0832 24.5477C28.9117 24.5323 28.7388 24.5527 28.5756 24.6078C28.4124 24.6628 28.2625 24.7512 28.1354 24.8674C28.0083 24.9836 27.9067 25.125 27.8373 25.2826C27.7678 25.4402 27.7319 25.6105 27.7319 25.7827C27.7319 25.9549 27.7678 26.1253 27.8373 26.2829C27.9067 26.4404 28.0083 26.5818 28.1354 26.698C28.2625 26.8142 28.4124 26.9026 28.5756 26.9577C28.7388 27.0127 28.9117 27.0332 29.0832 27.0177C30.6857 27.0821 32.2013 27.764 33.3124 28.9206C34.4235 30.0772 35.044 31.6189 35.044 33.2227C35.044 34.8266 34.4235 36.3682 33.3124 37.5249C32.2013 38.6815 30.6857 39.3634 29.0832 39.4277Z" fill="white"/>
<path id="Vector_2" d="M61.423 27.2377L54.143 25.2377C53.6965 23.8387 53.1311 22.4804 52.453 21.1777L56.143 14.5877C56.2766 14.3533 56.3295 14.0814 56.2933 13.8139C56.2572 13.5465 56.1341 13.2983 55.943 13.1077L52.763 9.92774C52.7138 9.84621 52.6532 9.77213 52.583 9.70774L49.203 6.32774C49.0136 6.13505 48.766 6.01008 48.4985 5.97212C48.231 5.93416 47.9585 5.98534 47.723 6.11774L41.143 9.84774C39.8579 9.17923 38.52 8.61734 37.143 8.16774L35.143 0.91774C35.071 0.657037 34.9158 0.427014 34.7009 0.262725C34.4861 0.098437 34.2234 0.00889294 33.953 0.00774012H29.553C29.4599 -0.00258004 29.366 -0.00258004 29.273 0.00774012H29.053C23.3083 0.00912956 17.6929 1.71315 12.9162 4.90452C8.13952 8.0959 4.41589 12.6314 2.21574 17.9381C0.0155904 23.2448 -0.562358 29.0845 0.55491 34.7195C1.67218 40.3545 4.43453 45.532 8.49298 49.5977C10.1279 51.2157 11.5252 53.0574 12.643 55.0677C15.233 59.7977 15.563 63.6577 15.373 65.0677C15.3444 65.2656 15.3615 65.4675 15.423 65.6577V70.4277C15.4367 72.4267 16.1767 74.3525 17.505 75.8464C18.8333 77.3403 20.6593 78.3003 22.643 78.5477V79.2377C22.643 80.0913 22.8111 80.9366 23.1378 81.7252C23.4644 82.5138 23.9432 83.2303 24.5468 83.8339C25.1504 84.4375 25.8669 84.9163 26.6555 85.243C27.4442 85.5696 28.2894 85.7377 29.143 85.7377C29.9966 85.7377 30.8418 85.5696 31.6304 85.243C32.419 84.9163 33.1356 84.4375 33.7392 83.8339C34.3428 83.2303 34.8215 82.5138 35.1482 81.7252C35.4749 80.9366 35.643 80.0913 35.643 79.2377V78.5377C37.6127 78.2654 39.4178 77.2908 40.726 75.7933C42.0343 74.2958 42.7576 72.3762 42.763 70.3877V65.2177C42.763 64.8889 42.6323 64.5735 42.3998 64.3409C42.1673 64.1084 41.8519 63.9777 41.523 63.9777H35.523L37.113 58.2877C38.5023 57.8411 39.8507 57.2757 41.143 56.5977L47.683 60.2777C47.9179 60.4097 48.1894 60.4616 48.4565 60.4255C48.7235 60.3895 48.9715 60.2674 49.163 60.0777L52.363 56.8477C52.4445 56.8025 52.5187 56.7452 52.583 56.6777L55.963 53.2977C56.144 53.107 56.2592 52.8633 56.2916 52.6024C56.324 52.3414 56.2719 52.0769 56.143 51.8477L52.443 45.2677C53.1224 43.9644 53.6911 42.6063 54.143 41.2077L61.373 39.2077C61.6345 39.1373 61.8655 38.9824 62.03 38.7673C62.1946 38.5521 62.2835 38.2886 62.283 38.0177V33.5177C62.2933 33.4247 62.2933 33.3308 62.283 33.2377V28.4277C62.285 28.1637 62.2027 27.9058 62.048 27.6918C61.8934 27.4777 61.6744 27.3187 61.423 27.2377ZM33.143 79.2377C33.143 80.2986 32.7216 81.316 31.9714 82.0662C31.2213 82.8163 30.2038 83.2377 29.143 83.2377C28.0821 83.2377 27.0647 82.8163 26.3146 82.0662C25.5644 81.316 25.143 80.2986 25.143 79.2377V78.6177H33.143V79.2377ZM40.253 70.3877C40.2503 71.9119 39.6437 73.3729 38.5659 74.4507C37.4882 75.5284 36.0272 76.1351 34.503 76.1377H23.653C22.1279 76.1351 20.6658 75.5288 19.5865 74.4513C18.5071 73.3738 17.8983 71.9128 17.893 70.3877V66.4477H40.263L40.253 70.3877ZM59.853 32.9277C59.8433 33.0208 59.8433 33.1147 59.853 33.2077V37.0477L52.853 39.0477C52.6511 39.1031 52.467 39.2094 52.3181 39.3565C52.1692 39.5037 52.0607 39.6866 52.003 39.8877C51.5202 41.5743 50.8493 43.2012 50.003 44.7377C49.9023 44.9217 49.8496 45.128 49.8496 45.3377C49.8496 45.5474 49.9023 45.7538 50.003 45.9377L53.573 52.2877L51.053 54.8077C50.973 54.8591 50.8992 54.9195 50.833 54.9877L48.143 57.6577L41.833 54.1077C41.6481 54.0044 41.4398 53.9501 41.228 53.9501C41.0162 53.9501 40.8079 54.0044 40.623 54.1077C39.0827 54.9464 37.4567 55.6169 35.773 56.1077C35.5683 56.1639 35.382 56.273 35.2329 56.424C35.0837 56.5749 34.9768 56.7624 34.923 56.9677L32.923 63.9677H29.363C29.2699 63.9579 29.1761 63.9579 29.083 63.9677C28.9899 63.9574 28.896 63.9574 28.803 63.9677H17.873C17.6678 60.3998 16.6191 56.9315 14.813 53.8477C13.5791 51.643 12.0406 49.6231 10.243 47.8477C6.53039 44.1453 3.99572 39.4276 2.95789 34.2882C1.92007 29.1487 2.42545 23.8171 4.41044 18.9642C6.39544 14.1113 9.77138 9.95382 14.1135 7.01493C18.4556 4.07604 23.5699 2.487 28.813 2.44774H29.083H32.923L34.923 9.44774C34.9786 9.65215 35.0861 9.83873 35.235 9.9894C35.3839 10.1401 35.5692 10.2497 35.773 10.3077C37.4488 10.7937 39.0654 11.4645 40.593 12.3077C40.7761 12.4111 40.9827 12.4655 41.193 12.4655C41.4032 12.4655 41.6099 12.4111 41.793 12.3077L48.143 8.73774L50.663 11.2577C50.7108 11.3375 50.7678 11.4114 50.833 11.4777L53.553 14.1977L49.983 20.5277C49.8796 20.7108 49.8252 20.9175 49.8252 21.1277C49.8252 21.338 49.8796 21.5447 49.983 21.7277C50.826 23.2589 51.4968 24.8788 51.983 26.5577C52.0444 26.7597 52.1552 26.9432 52.3053 27.0917C52.4555 27.2401 52.6403 27.3487 52.843 27.4077L59.843 29.4077L59.853 32.9277Z" fill="white"/>
<path id="Vector_3" d="M29.0832 16.1276C28.9117 16.1121 28.7388 16.1326 28.5756 16.1876C28.4124 16.2426 28.2625 16.3311 28.1354 16.4473C28.0083 16.5634 27.9067 16.7048 27.8373 16.8624C27.7678 17.02 27.7319 17.1903 27.7319 17.3626C27.7319 17.5348 27.7678 17.7051 27.8373 17.8627C27.9067 18.0203 28.0083 18.1617 28.1354 18.2779C28.2625 18.394 28.4124 18.4825 28.5756 18.5375C28.7388 18.5926 28.9117 18.613 29.0832 18.5976C31.0044 18.5976 32.9068 18.976 34.6818 19.7112C36.4568 20.4464 38.0696 21.5241 39.4282 22.8826C40.7867 24.2411 41.8643 25.8539 42.5995 27.6289C43.3348 29.4039 43.7132 31.3063 43.7132 33.2276C43.7132 35.1488 43.3348 37.0512 42.5995 38.8262C41.8643 40.6012 40.7867 42.214 39.4282 43.5725C38.0696 44.9311 36.4568 46.0087 34.6818 46.7439C32.9068 47.4791 31.0044 47.8576 29.0832 47.8576C28.9117 47.8421 28.7388 47.8626 28.5756 47.9176C28.4124 47.9726 28.2625 48.0611 28.1354 48.1773C28.0083 48.2934 27.9067 48.4348 27.8373 48.5924C27.7678 48.75 27.7319 48.9203 27.7319 49.0926C27.7319 49.2648 27.7678 49.4351 27.8373 49.5927C27.9067 49.7503 28.0083 49.8917 28.1354 50.0079C28.2625 50.124 28.4124 50.2125 28.5756 50.2675C28.7388 50.3226 28.9117 50.343 29.0832 50.3276C33.6184 50.3276 37.9678 48.526 41.1747 45.3191C44.3816 42.1122 46.1832 37.7628 46.1832 33.2276C46.1832 28.6924 44.3816 24.3429 41.1747 21.136C37.9678 17.9292 33.6184 16.1276 29.0832 16.1276Z" fill="white"/>
</g>
</svg>
