<svg width="69" height="90" viewBox="0 0 69 90" fill="none" xmlns="http://www.w3.org/2000/svg">
<path id="Vector" d="M57.473 34.489C57.473 29.9432 56.125 25.4995 53.5995 21.7198C51.074 17.9401 47.4844 14.9942 43.2846 13.2546C39.0848 11.5149 34.4635 11.0598 30.005 11.9466C25.5466 12.8335 21.4512 15.0225 18.2369 18.2369C15.0225 21.4512 12.8335 25.5466 11.9466 30.005C11.0598 34.4635 11.5149 39.0848 13.2546 43.2846C14.9942 47.4844 17.9401 51.074 21.7198 53.5995C25.4995 56.125 29.9432 57.473 34.489 57.473C40.5826 57.4661 46.4247 55.0424 50.7335 50.7335C55.0424 46.4247 57.4661 40.5826 57.473 34.489ZM34.489 54.746C30.4825 54.746 26.5661 53.5579 23.2348 51.3321C19.9036 49.1062 17.3072 45.9425 15.774 42.241C14.2408 38.5395 13.8396 34.4665 14.6212 30.5371C15.4029 26.6076 17.3321 22.9981 20.1651 20.1651C22.9981 17.3321 26.6076 15.4029 30.5371 14.6212C34.4665 13.8396 38.5395 14.2408 42.241 15.774C45.9425 17.3072 49.1062 19.9036 51.3321 23.2348C53.5579 26.5661 54.746 30.4825 54.746 34.489C54.7399 39.8596 52.6037 45.0085 48.8061 48.8061C45.0085 52.6037 39.8596 54.7399 34.489 54.746ZM57.335 56.834C58.1192 56.2405 58.9659 55.7345 59.86 55.325C61.54 54.471 63.277 53.587 64.267 51.897C65.257 50.207 65.182 48.252 65.113 46.357C65.0089 45.2287 65.0681 44.0913 65.289 42.98C65.6619 41.9268 66.1777 40.9298 66.822 40.017C67.832 38.409 68.978 36.587 68.978 34.489C68.978 32.391 67.832 30.568 66.822 28.961C66.1779 28.0488 65.6621 27.0525 65.289 26C65.0685 24.8883 65.0095 23.7506 65.114 22.622C65.183 20.727 65.255 18.768 64.268 17.082C63.281 15.396 61.541 14.509 59.861 13.654C58.8508 13.2096 57.9117 12.6185 57.074 11.9C56.3581 11.0619 55.7691 10.1232 55.326 9.114C54.471 7.434 53.587 5.697 51.898 4.707C50.209 3.717 48.253 3.791 46.357 3.861C45.2288 3.96546 44.0914 3.90652 42.98 3.686C41.9268 3.31309 40.9298 2.79726 40.017 2.153C38.409 1.146 36.589 0 34.489 0C32.389 0 30.569 1.145 28.961 2.156C28.0482 2.80061 27.0513 3.31677 25.998 3.69C24.8862 3.91005 23.7486 3.96898 22.62 3.865C20.72 3.795 18.766 3.724 17.08 4.711C15.394 5.698 14.507 7.438 13.652 9.118C13.2093 10.1262 12.6203 11.0636 11.904 11.9C11.0662 12.6163 10.1275 13.2053 9.118 13.648C7.438 14.503 5.701 15.387 4.711 17.076C3.721 18.765 3.796 20.721 3.865 22.616C3.96974 23.7466 3.91046 24.8864 3.689 26C3.31609 27.0532 2.80027 28.0502 2.156 28.963C1.146 30.57 0 32.392 0 34.491C0 36.59 1.146 38.411 2.156 40.019C2.8001 40.9312 3.31592 41.9275 3.689 42.98C3.90952 44.0914 3.96846 45.2288 3.864 46.357C3.795 48.257 3.723 50.212 4.71 51.897C5.697 53.582 7.437 54.471 9.117 55.326C10.1269 55.7679 11.0657 56.357 11.903 57.074C12.0635 57.2366 12.2119 57.4107 12.347 57.595L1.464 79.755C1.34784 79.9908 1.30235 80.2552 1.333 80.5162C1.36365 80.7773 1.46913 81.0239 1.63674 81.2264C1.80436 81.4289 2.02695 81.5786 2.27769 81.6575C2.52844 81.7364 2.79665 81.7411 3.05 81.671L13.981 78.663L18.281 89.153C18.3805 89.3966 18.5483 89.6062 18.7642 89.7565C18.9802 89.9068 19.235 89.9913 19.498 90H19.544C19.7988 90 20.0486 89.9286 20.2649 89.7939C20.4812 89.6593 20.6555 89.4667 20.768 89.238L31.153 68.093C32.1814 68.6423 33.3235 68.9449 34.489 68.977C35.9797 68.9062 37.4254 68.4433 38.68 67.635L49.29 89.235C49.402 89.4643 49.576 89.6576 49.7924 89.7928C50.0088 89.9281 50.2588 89.9998 50.514 90H50.56C50.8225 89.9911 51.0769 89.9066 51.2925 89.7567C51.5082 89.6068 51.6761 89.3979 51.776 89.155L56.076 78.665L67.007 81.673C67.2603 81.7426 67.5283 81.7376 67.7788 81.6586C68.0293 81.5795 68.2516 81.4299 68.4191 81.2275C68.5866 81.0252 68.6921 80.7788 68.723 80.5179C68.7538 80.257 68.7087 79.9928 68.593 79.757L57.335 56.834ZM19.656 85.314L16.046 76.514C15.9201 76.205 15.6853 75.9529 15.386 75.8054C15.0867 75.658 14.7437 75.6255 14.422 75.714L5.248 78.239L13.97 60.48C14.6233 62.0134 15.7027 63.3273 17.08 64.266C18.766 65.254 20.726 65.182 22.621 65.113C23.7492 65.0085 24.8866 65.0675 25.998 65.288C26.9893 65.6331 27.9284 66.113 28.789 66.714L19.656 85.314ZM30.413 64.514C29.2789 63.7206 28.0356 63.0961 26.722 62.66C25.8305 62.4359 24.913 62.3327 23.994 62.353C23.501 62.353 23.008 62.371 22.521 62.389C20.946 62.447 19.46 62.502 18.459 61.915C17.458 61.328 16.791 60.015 16.083 58.625C15.5189 57.3554 14.7597 56.1819 13.833 55.147C12.7981 54.2203 11.6245 53.4611 10.355 52.897C8.964 52.189 7.655 51.521 7.065 50.521C6.475 49.521 6.533 48.034 6.591 46.459C6.7142 45.0534 6.62282 43.6372 6.32 42.259C5.88388 40.9454 5.25937 39.7021 4.466 38.568C3.572 37.147 2.728 35.804 2.728 34.492C2.728 33.18 3.572 31.837 4.466 30.416C5.25964 29.2818 5.88386 28.0381 6.319 26.724C6.62268 25.346 6.7144 23.9297 6.591 22.524C6.533 20.95 6.478 19.463 7.065 18.462C7.652 17.461 8.965 16.794 10.355 16.087C11.6248 15.5229 12.7984 14.7634 13.833 13.836C14.76 12.8016 15.5192 11.6284 16.083 10.359C16.791 8.968 17.459 7.659 18.459 7.068C19.459 6.477 20.946 6.537 22.521 6.594C23.9266 6.71767 25.3429 6.62628 26.721 6.323C28.0345 5.88719 29.2778 5.26302 30.412 4.47C31.834 3.572 33.177 2.728 34.489 2.728C35.801 2.728 37.144 3.572 38.565 4.466C39.6992 5.25902 40.9425 5.88319 42.256 6.319C43.6342 6.62182 45.0504 6.7132 46.456 6.59C48.031 6.533 49.517 6.478 50.518 7.064C51.519 7.65 52.186 8.964 52.894 10.355C53.4578 11.6246 54.2174 12.7979 55.145 13.832C56.1791 14.7596 57.3524 15.5192 58.622 16.083C60.013 16.79 61.322 17.459 61.912 18.459C62.502 19.459 62.444 20.946 62.386 22.52C62.2633 23.9256 62.3546 25.3418 62.657 26.72C63.0929 28.034 63.7174 29.2776 64.511 30.412C65.405 31.833 66.249 33.176 66.249 34.488C66.249 35.8 65.405 37.143 64.511 38.564C63.7176 39.6981 63.0931 40.9414 62.657 42.255C62.3545 43.6332 62.2635 45.0494 62.387 46.455C62.444 48.029 62.499 49.516 61.913 50.517C61.327 51.518 60.013 52.185 58.622 52.893C57.3526 53.4568 56.1794 54.216 55.145 55.143C54.982 55.306 54.832 55.478 54.686 55.655C54.6437 55.7009 54.6046 55.7497 54.569 55.801C53.9211 56.6848 53.3601 57.6292 52.894 58.621C52.186 60.012 51.518 61.326 50.518 61.911C49.518 62.496 48.031 62.443 46.456 62.385C45.0504 62.2616 43.6341 62.353 42.256 62.656C40.942 63.0919 39.6984 63.7164 38.564 64.51C37.143 65.403 35.8 66.247 34.488 66.247C33.176 66.247 31.834 65.405 30.413 64.512V64.514ZM55.635 75.714C55.3133 75.6255 54.9703 75.658 54.671 75.8054C54.3717 75.9529 54.1369 76.205 54.011 76.514L50.402 85.314L41.016 66.205C41.6279 65.815 42.2882 65.5067 42.98 65.288C44.0917 65.0676 45.2294 65.0083 46.358 65.112C48.252 65.182 50.212 65.254 51.898 64.266C53.584 63.278 54.471 61.539 55.326 59.859C55.404 59.706 55.481 59.559 55.559 59.404L64.81 78.238L55.635 75.714ZM46.394 30.478L38.678 29.908L35.751 22.746C35.6487 22.4953 35.474 22.2807 35.2493 22.1296C35.0245 21.9786 34.7598 21.8979 34.489 21.8979C34.2182 21.8979 33.9535 21.9786 33.7288 22.1296C33.504 22.2807 33.3293 22.4953 33.227 22.746L30.3 29.908L22.584 30.478C22.3142 30.4982 22.0565 30.5982 21.8436 30.7652C21.6308 30.9323 21.4725 31.1588 21.3887 31.4161C21.305 31.6734 21.2997 31.9498 21.3735 32.2101C21.4472 32.4704 21.5967 32.7029 21.803 32.878L27.711 37.878L25.869 45.391C25.8043 45.654 25.8194 45.9304 25.9124 46.1848C26.0054 46.4392 26.1721 46.6601 26.3912 46.8193C26.6103 46.9786 26.8719 47.0689 27.1426 47.0788C27.4133 47.0888 27.6808 47.0178 27.911 46.875L34.489 42.8L41.067 46.874C41.2972 47.0168 41.5647 47.0878 41.8354 47.0778C42.1061 47.0679 42.3677 46.9776 42.5868 46.8183C42.8059 46.6591 42.9726 46.4382 43.0656 46.1838C43.1586 45.9294 43.1737 45.653 43.109 45.39L41.267 37.875L47.175 32.875C47.3813 32.6999 47.5308 32.4674 47.6045 32.2071C47.6783 31.9468 47.673 31.6704 47.5893 31.4131C47.5055 31.1558 47.3472 30.9293 47.1344 30.7622C46.9215 30.5952 46.6638 30.4952 46.394 30.475V30.478ZM38.861 36.34C38.6673 36.5037 38.5232 36.7182 38.4448 36.9593C38.3663 37.2005 38.3567 37.4587 38.417 37.705L39.666 42.8L35.207 40.039C34.9914 39.9051 34.7427 39.8342 34.489 39.8342C34.2353 39.8342 33.9866 39.9051 33.771 40.039L29.312 42.8L30.561 37.706C30.6211 37.4595 30.6115 37.2012 30.533 36.9599C30.4546 36.7187 30.3106 36.504 30.117 36.34L26.112 32.953L31.343 32.567C31.596 32.5481 31.8386 32.4591 32.0439 32.31C32.2491 32.161 32.4088 31.9577 32.505 31.723L34.489 26.866L36.473 31.722C36.5692 31.9567 36.7289 32.16 36.9341 32.309C37.1394 32.4581 37.3821 32.5471 37.635 32.566L42.866 32.952L38.861 36.34Z" fill="white"/>
</svg>
