<svg width="82" height="56" viewBox="0 0 82 56" fill="none" xmlns="http://www.w3.org/2000/svg">
<g id="Group">
<path id="Vector" d="M22.9999 0C19.4875 0 16.4779 2.63618 15.4374 6.27258C14.9782 6.15878 14.4931 6.08441 13.9999 6.08441C10.6981 6.08441 7.99993 8.79234 7.99993 12.1061C7.99993 15.4199 10.6981 18.1279 13.9999 18.1279C15.6509 18.1279 17.1627 17.4628 18.2499 16.3715C19.5765 17.5125 21.2198 18.1906 22.9999 18.1906C27.3715 18.1906 30.9374 14.1094 30.9374 9.09534C30.9374 4.08124 27.3715 0 22.9999 0ZM58.9999 0C54.6284 0 51.0624 4.08124 51.0624 9.09534C51.0624 14.1094 54.6284 18.1906 58.9999 18.1906C60.7801 18.1906 62.4233 17.5125 63.7499 16.3715C64.8372 17.4628 66.349 18.1279 67.9999 18.1279C71.3018 18.1279 73.9999 15.4199 73.9999 12.1061C73.9999 8.79234 71.3018 6.08441 67.9999 6.08441C67.5068 6.08441 67.0217 6.15838 66.5624 6.27258C65.5219 2.63618 62.5123 0 58.9999 0ZM40.9999 0.0620117C35.4889 0.0620117 30.9999 4.56731 30.9999 10.0982C30.9999 15.6292 35.4889 20.1031 40.9999 20.1031C46.5109 20.1031 50.9999 15.6292 50.9999 10.0982C50.9999 4.56731 46.5109 0.0620117 40.9999 0.0620117ZM40.9999 2.0379C45.43 2.0379 48.9999 5.65211 48.9999 10.0982C48.9999 14.5444 45.43 18.1272 40.9999 18.1272C36.5698 18.1272 32.9999 14.5444 32.9999 10.0982C32.9999 5.65211 36.5698 2.0379 40.9999 2.0379ZM22.9999 2.1319C26.3604 2.1319 29.0624 5.24008 29.0624 9.09448C29.0624 12.949 26.3604 16.0571 22.9999 16.0571C19.6395 16.0571 16.9374 12.949 16.9374 9.09448C16.9374 5.24008 19.6395 2.1319 22.9999 2.1319ZM58.9999 2.1319C62.3604 2.1319 65.0624 5.24008 65.0624 9.09448C65.0624 12.949 62.3604 16.0571 58.9999 16.0571C55.6395 16.0571 52.9374 12.949 52.9374 9.09448C52.9374 5.24008 55.6395 2.1319 58.9999 2.1319ZM13.9999 8.09094C14.3828 8.09094 14.7439 8.17989 15.0937 8.27899C15.0732 8.54469 15.0625 8.82278 15.0625 9.09448C15.0625 11.3045 15.7571 13.3187 16.9062 14.8966C16.1796 15.6593 15.1427 16.1198 14 16.1198C11.779 16.1198 9.99998 14.3344 9.99998 12.1053C10.0158 9.64569 12.1223 8.14754 13.9999 8.09094ZM67.9999 8.09094C70.2209 8.09094 71.9999 9.87629 71.9999 12.1053C71.9999 14.3344 70.2209 16.1198 67.9999 16.1198C66.8572 16.1198 65.8203 15.6593 65.0937 14.8966C66.2428 13.3187 66.9374 11.3045 66.9374 9.09448C66.9374 8.82278 66.9266 8.54469 66.9062 8.27899C67.2818 8.15289 67.6792 8.13744 67.9999 8.09094ZM17.8437 18.0955C15.5022 18.7316 13.4025 19.2676 11.5937 20.0713C11.0555 19.5651 10.5445 19.4974 10.1875 19.5692C6.94725 20.4364 4.29936 21.0317 2.50003 23.3013C0.700699 25.5717 2.92189e-05 29.14 2.92189e-05 35.5957C-0.00297078 35.972 0.225309 36.3406 0.562529 36.5053L4.03128 38.1989C4.01818 38.8776 4.00008 39.5374 4.00008 40.2689C3.99708 40.6452 4.22536 41.0135 4.56258 41.1784L9.46883 43.6247C10.0099 43.8832 10.7458 43.522 10.8751 42.9348C11.6433 39.4898 12.0211 37.505 12.3126 36.1916C12.6128 37.7872 13.0218 40.4388 13.8438 44.5342C13.9142 44.9376 14.2544 45.279 14.6563 45.3497C15.7275 45.5275 16.8825 45.6552 18.0626 45.7574C18.0318 46.8694 18.0001 48.0048 18.0001 49.2387C18.0091 49.6045 18.2346 49.9569 18.5626 50.1169L24.5626 53.1277C25.0953 53.387 25.8245 53.0457 25.9688 52.4692C26.686 49.4615 27.2338 46.1669 27.9375 43.2483C28.7842 47.1679 29.414 51.3296 30.0313 54.445C30.1131 54.8371 30.4502 55.1625 30.8438 55.2291C36.986 56.2561 45.0141 56.2561 51.1563 55.2291C51.5499 55.1631 51.887 54.8371 51.9688 54.445C52.8735 50.8348 53.1617 46.7381 54.0625 43.2483C54.8561 46.6541 55.4479 49.8241 56.0312 52.4692C56.1591 53.006 56.7893 53.3608 57.3125 53.1905L63.3125 51.1832C63.7053 51.0536 63.9948 50.6574 64 50.2424C64 48.6402 63.9531 47.1635 63.9063 45.7574C65.0975 45.6549 66.2632 45.5291 67.3438 45.3497C67.7457 45.2797 68.0859 44.9376 68.1563 44.5342C68.9783 40.4388 69.3873 37.7872 69.6875 36.1916C69.979 37.505 70.3568 39.4896 71.125 42.9348C71.2529 43.4715 71.8831 43.8264 72.4063 43.6561L77.3125 42.0252C77.7054 41.8955 77.9949 41.4993 78 41.0843C78 40.0798 77.9603 39.1394 77.9375 38.2302L81.3125 37.1325C81.7054 37.0029 81.9949 36.6066 82 36.1916C82 29.449 81.2938 25.7423 79.5 23.3955C77.7063 21.0486 75.0528 20.4364 71.8125 19.5692C71.2296 19.4684 70.8283 19.8081 70.375 20.1027C68.5721 19.2861 66.4855 18.7282 64.1563 18.0955C63.8661 18.0285 63.5469 18.0956 63.3125 18.2835C61.8042 19.4108 60.3882 19.9144 59 19.9144C57.6119 19.9144 56.1958 19.4108 54.6875 18.2835C54.3611 18.0239 54.0651 18.0201 53.8439 18.0952C49.3537 19.315 45.7678 20.173 43.3751 23.2387C43.1504 23.5265 42.9497 23.8548 42.7501 24.1795C41.5054 24.5231 40.2685 24.3615 39.1251 24.1485C38.9588 23.8814 38.8073 23.6062 38.6251 23.3645C36.2381 20.1925 32.6465 19.3153 28.1564 18.0955C27.8662 18.0285 27.547 18.0956 27.3126 18.2835C25.8043 19.4108 24.3883 19.9144 23.0001 19.9144C21.612 19.9144 20.1959 19.4108 18.6876 18.2835C18.3688 18.0157 18.0417 18.0124 17.8437 18.0955ZM17.9686 20.1656C19.591 21.2691 21.2826 21.922 22.9999 21.922C24.7172 21.922 26.4088 21.2691 28.0311 20.1656C30.5812 20.8587 32.6419 21.4274 34.2811 22.2983C29.0263 23.7316 24.8757 24.8243 22.0936 28.4142C19.747 31.4421 18.5322 36.0705 18.1561 43.7194C17.3036 43.6444 16.4783 43.5529 15.6874 43.4372C15.0058 39.9526 14.5675 37.3377 14.2811 35.8159C14.0231 34.2753 13.7509 33.2392 12.3749 32.7423C10.9846 32.9659 10.746 34.1595 10.4686 35.2513C10.2052 36.3889 9.78179 38.6208 9.21863 41.2417L6.03113 39.6736C6.09003 31.2846 7.12075 26.8608 8.96863 24.4938C10.8079 22.1371 13.7074 21.3238 17.9686 20.1656ZM53.9686 20.1656C55.591 21.2691 57.2826 21.922 58.9999 21.922C60.7172 21.922 62.4088 21.2691 64.0311 20.1656C68.2917 21.3236 71.1863 22.1368 73.0311 24.5879C74.8785 27.0422 75.8719 31.6745 75.9374 40.3949L72.8436 41.4299C72.246 38.6633 71.803 36.4254 71.5311 35.2513C71.2554 33.8809 70.9285 33.0879 69.6249 32.7423C68.1111 33.0826 67.9692 34.6553 67.7186 35.8159C67.4323 37.3377 66.9939 39.9526 66.3124 43.4372C65.5215 43.553 64.6961 43.6444 63.8436 43.7194C63.4325 36.1845 62.2048 31.5738 59.9374 28.5396C57.1549 24.8162 52.9603 23.7361 47.6874 22.2983C49.3323 21.4376 51.4004 20.8638 53.9686 20.1656ZM73.5936 22.1729C75.5493 22.7585 76.948 23.3655 77.9061 24.6193C79.1527 26.2502 79.868 29.4867 79.9374 35.4708L77.9664 36.1242C77.2472 32.0376 77.0265 26.6638 74.6249 23.3645C74.3038 22.9181 73.9086 22.52 73.5936 22.1729ZM8.28113 22.2039C7.95727 22.5147 7.66433 22.868 7.37488 23.2389C4.60308 26.9842 4.40103 31.6919 3.99988 36.0351L2.03113 35C2.09133 29.2072 2.81292 26.133 4.06238 24.5561C4.99855 23.3752 6.37243 22.7782 8.28113 22.2039ZM34.8749 24.2111C36.8597 25.5942 38.9144 26.4065 40.9999 26.4065C43.0853 26.4065 45.1401 25.5942 47.1249 24.2111C52.3893 25.6509 55.9899 26.6543 58.3124 29.7624C60.6429 32.8807 61.909 38.5859 61.9686 49.5211L57.7499 50.9326C56.9784 47.3542 56.433 44.5678 56.0936 43.0917C55.7857 41.5774 55.452 40.5689 53.9999 40.2063C52.261 40.5501 52.1508 42.4756 51.9061 43.7817C51.5514 45.6804 51.0187 48.8958 50.1561 53.3161C44.5763 54.1637 37.4235 54.1637 31.8436 53.3161C30.981 48.8958 30.4483 45.6804 30.0936 43.7817C29.793 42.0439 29.6266 40.7213 27.9999 40.2063C26.455 40.3791 26.1874 41.9514 25.9061 43.0917C25.5735 44.5383 25.0236 47.3194 24.2811 50.7757L20.0311 48.6116C20.0851 38.1116 21.326 32.6434 23.6561 29.637C25.9732 26.647 29.6086 25.6516 34.8749 24.2111Z" fill="white"/>
</g>
</svg>
