<svg width="85" height="84" viewBox="0 0 85 84" fill="none" xmlns="http://www.w3.org/2000/svg">
<path id="Vector" d="M72.6385 29.4808C72.055 13.1307 58.6067 0 42.1171 0C25.6233 0 12.1749 13.1379 11.5972 29.4938C4.54314 35.1005 0 43.7355 0 53.4254C0 70.2843 13.7157 84 30.5746 84C34.6564 84 38.5484 83.1822 42.1114 81.7234C45.7778 83.2282 49.6569 84 53.6626 84C70.5229 84 84.24 70.2843 84.24 53.4254C84.2415 44.1307 79.9168 35.2629 72.6385 29.4808ZM68.7767 53.424C68.7767 60.4579 63.9389 66.3678 57.421 68.0451C59.6314 64.0021 60.9235 59.4015 61.0974 54.5206C63.627 52.5113 65.8044 50.1327 67.5622 47.4867C68.3584 49.3465 68.7767 51.3529 68.7767 53.424ZM52.8735 34.0297C48.2772 34.2209 43.9554 36.0591 40.6325 39.0601C40.5965 39.0946 40.5491 39.109 40.5146 39.1478C40.5074 39.1564 40.506 39.1679 40.4974 39.1765C38.8416 40.6986 37.4504 42.5167 36.3954 44.5547C34.2611 43.6766 32.3352 42.3184 30.7959 40.5793C31.401 39.5042 32.0578 38.4565 32.8081 37.4777C35.4814 33.9924 39.0041 31.207 42.9953 29.4234C46.3613 27.9214 49.9487 27.1597 53.6597 27.1597C54.7419 27.1597 55.817 27.2502 56.882 27.3796C57.1048 28.4115 57.2298 29.4794 57.2298 30.5789C57.2298 31.8365 57.0731 33.0682 56.7742 34.2611C55.7494 34.0944 54.7074 34.001 53.6597 34.001C53.5102 34.001 53.3622 34.0154 53.2113 34.0182C53.102 34.0111 52.9885 34.0154 52.8735 34.0297ZM32.1628 68.4533C29.8488 65.1591 28.3368 61.4553 27.7245 57.5259C30.1707 58.8381 32.798 59.824 35.5475 60.4306C36.338 62.4686 37.472 64.36 38.8948 66.0258C38.1661 66.5087 37.3986 66.9341 36.5938 67.2848C35.1752 67.9043 33.6905 68.2937 32.1628 68.4533ZM24.8615 39.4381C25.2927 40.2746 25.7742 41.0838 26.3246 41.8527C26.3347 41.8714 26.3491 41.8886 26.3591 41.9073C26.3994 41.9634 26.4296 42.0266 26.4698 42.0812C26.4971 42.1186 26.5287 42.1531 26.5575 42.1904C26.5647 42.1976 26.5704 42.2077 26.5776 42.2149C29.1618 45.6585 32.8426 48.178 36.9675 49.312C38.6304 49.7705 40.3623 50.0033 42.1171 50.0033C43.1591 50.0033 44.1911 49.9113 45.2115 49.7461C45.5134 50.9418 45.6873 52.1721 45.6873 53.4254C45.6873 54.5077 45.568 55.5784 45.3395 56.6218C42.7639 56.9409 40.1237 56.8992 37.5524 56.4479C29.8416 55.0897 23.0908 50.2735 19.239 43.461C20.7711 41.7205 22.687 40.3306 24.8615 39.4381ZM16.6706 47.5039C18.4557 50.1744 20.6446 52.53 23.1311 54.5048C23.2964 59.2994 24.5453 63.8972 26.8219 68.0465C20.2997 66.3721 15.4605 60.4607 15.4605 53.424C15.4605 51.3242 15.8931 49.3235 16.6706 47.5039ZM42.1085 63.1484C41.5667 62.5059 41.101 61.8103 40.6741 61.0917C41.1542 61.1147 41.6357 61.1549 42.1157 61.1549C42.6029 61.1549 43.0902 61.1147 43.5788 61.0903C43.152 61.8146 42.6547 62.5002 42.1085 63.1484ZM40.7489 45.5982C41.1571 44.9298 41.6155 44.2989 42.1171 43.7067C42.6216 44.3046 43.0772 44.9356 43.4796 45.5982C42.5699 45.6801 41.6572 45.6801 40.7489 45.5982ZM42.1186 25.1202C38.4522 23.6183 34.5745 22.8465 30.5746 22.8465C30.0716 22.8465 29.5829 22.8982 29.0856 22.9227C31.7517 18.358 36.6427 15.4648 42.1171 15.4648C47.652 15.4648 52.4869 18.4629 55.1214 22.9112C54.6341 22.8882 54.1498 22.8479 53.6626 22.8479C49.6627 22.8465 45.785 23.6169 42.1186 25.1202ZM42.1171 4.31175C56.6003 4.31175 68.3829 16.0943 68.3829 30.5775C68.3829 37.4763 65.6047 44.102 60.8157 48.9872C60.4133 46.2133 59.6415 43.5314 58.5032 40.9903C60.4924 37.8787 61.5444 34.3086 61.5444 30.5789C61.5444 28.6329 61.2498 26.7544 60.7137 24.9808C60.7079 24.955 60.7008 24.9305 60.695 24.9061C60.6605 24.794 60.6188 24.6862 60.5829 24.5741C60.58 24.5683 60.5786 24.5611 60.5757 24.5554C58.0332 16.7856 50.7248 11.1531 42.1157 11.1531C34.0024 11.1531 26.8852 16.0957 24.0035 23.5766C21.2497 24.1831 18.6325 25.1519 16.2107 26.4483C18.2028 13.9241 29.0439 4.31175 42.1171 4.31175ZM4.31175 53.424C4.31175 38.9408 16.0929 27.1583 30.5746 27.1583C32.7046 27.1583 34.7872 27.4385 36.8166 27.9372C34.2856 29.6159 32.0075 31.6698 30.0672 34.024C28.5711 34.0628 27.1209 34.2755 25.7253 34.6348C25.5557 34.6564 25.3861 34.6923 25.218 34.7555C25.205 34.7599 25.1935 34.7699 25.1806 34.7742C21.1002 35.9571 17.579 38.445 15.0811 41.755C14.9704 41.8742 14.8712 42.0022 14.7907 42.1416C12.5084 45.3265 11.1487 49.2157 11.1487 53.424C11.1487 64.1344 19.8628 72.8498 30.5746 72.8498C30.714 72.8498 30.8505 72.8311 30.9885 72.8283C31.0259 72.8297 31.0633 72.8412 31.1006 72.8412C31.1567 72.8412 31.2099 72.8182 31.2659 72.8139C33.7078 72.7277 36.0793 72.2146 38.3171 71.2372C40.2387 70.3979 42.0022 69.261 43.5616 67.8554C43.6032 67.818 43.6392 67.7749 43.6794 67.7375C43.6924 67.7232 43.7096 67.7131 43.7211 67.7002C43.724 67.6973 43.7254 67.693 43.7283 67.6887C46.2133 65.3963 48.0386 62.5218 49.059 59.3656C49.118 59.2161 49.1582 59.0623 49.1841 58.9013C49.7058 57.1349 49.999 55.2953 49.999 53.4225C49.999 51.1273 49.5664 48.8823 48.7917 46.7666C48.7831 46.7307 48.7831 46.6933 48.773 46.6574C48.7242 46.4777 48.6466 46.3153 48.5589 46.1616C47.7799 44.2342 46.6977 42.4376 45.3395 40.8409C47.3387 39.5172 49.6469 38.6634 52.083 38.4033C55.186 42.8228 56.8403 47.984 56.8403 53.4225C56.8403 67.9043 45.0577 79.6854 30.5746 79.6854C16.0929 79.6883 4.31175 67.9057 4.31175 53.424ZM53.6626 79.6883C51.534 79.6883 49.4529 79.4094 47.4263 78.9121C49.9717 77.2234 52.254 75.1739 54.19 72.824C64.6546 72.5408 73.087 63.9576 73.087 53.4254C73.087 49.6828 72.0292 46.1041 70.0299 42.9867C71.1596 40.4557 71.9415 37.7723 72.3525 35.0114C77.1472 39.8937 79.9283 46.5223 79.9283 53.4254C79.9297 67.9057 68.1457 79.6883 53.6626 79.6883Z" fill="white"/>
</svg>
