<svg width="15" height="13" viewBox="0 0 15 13" fill="none" xmlns="http://www.w3.org/2000/svg">
<path d="M14.5116 7.50485C14.2435 7.50485 14.0227 7.7242 14.0227 7.99055V11.9075H0.97795V7.99055C0.97795 7.7242 0.757125 7.50485 0.488975 7.50485C0.220825 7.50485 0 7.7242 0 7.99055V12.3932C0 12.6595 0.220825 12.8789 0.488975 12.8789H14.5116C14.7798 12.8789 15.0006 12.6595 15.0006 12.3932V7.99055C15.0006 7.70853 14.7798 7.50485 14.5116 7.50485Z" fill="white"/>
<path d="M4.95206 3.68192L7.00261 1.64511V8.91495C7.00261 9.1813 7.22345 9.40065 7.4916 9.40065C7.75975 9.40065 7.98057 9.1813 7.98057 8.91495V1.61378L10.0627 3.68192C10.252 3.86993 10.5517 3.86993 10.7409 3.68192C10.9302 3.49391 10.9302 3.19622 10.7409 3.00821L7.85439 0.141014C7.75975 0.0470071 7.63356 0 7.50737 0C7.38118 0 7.25499 0.0470071 7.16035 0.141014L4.2738 3.00821C4.08452 3.19622 4.08452 3.49391 4.2738 3.68192C4.46308 3.86993 4.76277 3.86993 4.95206 3.68192Z" fill="white"/>
</svg>
