<svg width="26" height="26" viewBox="0 0 26 26" fill="none" xmlns="http://www.w3.org/2000/svg">
<path d="M19.8063 25C17.1424 25 12.566 23.2489 7.64813 18.3391C4.95011 15.6266 2.86683 12.6051 1.73981 9.75536C0.715247 6.93991 0.749399 4.67382 1.87642 3.57511L2.11548 3.33476C2.28624 3.12876 2.49116 2.88841 2.69607 2.6824C3.54987 1.82403 4.47198 1 5.76976 1C6.89678 1 7.9555 1.61803 9.01421 2.92275C11.7464 6.32189 10.7218 7.79828 9.04837 9.51502L8.87761 9.6867C8.87761 9.8927 9.11667 10.9227 12.0879 13.9099C14.8884 16.7253 15.9812 17.0343 16.2886 17.0687L16.4935 16.8627C17.3132 16.0386 18.1328 15.2146 19.4648 15.2146C20.4893 15.2146 21.753 15.7983 23.0849 16.897C24.2802 17.927 24.8608 18.8884 24.9974 19.9185V19.9528C25.0657 21.6009 23.7679 22.7682 22.88 23.5579C22.7434 23.6953 22.6068 23.8326 22.436 23.97C21.8554 24.6567 21.0016 25 19.8063 25ZM5.80391 2.27039C5.01841 2.27039 4.33537 2.88841 3.65233 3.57511C3.48157 3.74678 3.27666 3.98712 3.14005 4.1588L3.1059 4.19313L2.83268 4.46781C2.11548 5.18884 2.18379 7.07725 2.96929 9.27468C4.028 11.9528 6.00883 14.8369 8.57024 17.412C13.1808 22.0472 17.5181 23.6953 19.8063 23.6953C20.865 23.6953 21.2407 23.3519 21.4114 23.0773C21.4797 23.0086 21.5139 22.9399 21.6163 22.9056C21.7188 22.8369 21.8213 22.7339 21.9579 22.5966L21.992 22.5622C22.9141 21.7382 23.7338 20.9142 23.6996 19.9871C23.5972 19.3348 23.119 18.6137 22.2311 17.824C20.7967 16.6567 19.8746 16.4506 19.4648 16.4506C18.7134 16.4506 18.2011 16.9313 17.4156 17.721L17.1766 17.9614C16.9375 18.2017 16.6301 18.3047 16.3228 18.3047C15.6056 18.3047 14.3078 17.927 11.1658 14.7682C8.0238 11.6094 6.96509 9.6867 7.92135 8.75966L8.16041 8.51931C9.49234 7.18026 10.2437 6.42489 8.05795 3.67811C7.2383 2.75107 6.52111 2.27039 5.80391 2.27039Z" fill="white" stroke="white" stroke-width="0.5"/>
</svg>
