<svg width="19" height="26" viewBox="0 0 19 26" fill="none" xmlns="http://www.w3.org/2000/svg">
<path fill-rule="evenodd" clip-rule="evenodd" d="M9.49977 5.97672C10.2753 5.97666 11.0334 6.19791 11.6783 6.61249C12.3231 7.02706 12.8258 7.61635 13.1226 8.30582C13.4194 8.99529 13.4971 9.75398 13.3458 10.4859C13.1946 11.2179 12.8212 11.8903 12.2728 12.418C11.7244 12.9457 11.0258 13.3051 10.2651 13.4507C9.50452 13.5964 8.7161 13.5216 7.9996 13.2361C7.2831 12.9505 6.67069 12.4669 6.23982 11.8463C5.80895 11.2258 5.57898 10.4963 5.57898 9.74999C5.58017 8.74966 5.99363 7.79062 6.72865 7.08325C7.46367 6.37588 8.46025 5.97794 9.49977 5.97672ZM9.49977 14.7424C10.5257 14.7424 11.5286 14.4496 12.3817 13.9012C13.2347 13.3527 13.8996 12.5731 14.2922 11.661C14.6849 10.7489 14.7876 9.74523 14.5875 8.77692C14.3874 7.80861 13.8934 6.91915 13.168 6.22101C12.4426 5.52287 11.5184 5.04739 10.5121 4.85472C9.50593 4.66204 8.46294 4.76081 7.51505 5.13855C6.56717 5.51628 5.75697 6.156 5.1869 6.97683C4.61683 7.79766 4.3125 8.76272 4.31238 9.74999C4.31389 11.0735 4.86088 12.3424 5.83336 13.2783C6.80584 14.2143 8.12439 14.7408 9.49977 14.7424ZM3.45947 3.61499C0.508075 6.45628 0.539598 10.8388 3.54503 15.3416L9.49977 24.263L15.4545 15.3416C18.4599 10.8388 18.4915 6.45628 15.5401 3.61499C13.9367 2.0758 11.7645 1.2114 9.49977 1.2114C7.23504 1.2114 5.06278 2.0758 3.45947 3.61499ZM2.47898 16L8.96689 25.7207C9.02439 25.8064 9.10329 25.8769 9.19638 25.9257C9.28946 25.9744 9.39377 26 9.49977 26C9.60576 26 9.71006 25.9744 9.80315 25.9257C9.89624 25.8769 9.97514 25.8064 10.0326 25.7207L16.5206 16C18.0246 13.7466 18.8757 11.3984 18.9823 9.21091C19.0614 8.02202 18.8749 6.83062 18.4355 5.71688C17.996 4.60314 17.3138 3.59288 16.4347 2.75408C14.5918 0.990162 12.0982 0 9.49887 0C6.89957 0 4.40596 0.990162 2.56304 2.75408C1.68438 3.59316 1.00262 4.60356 0.563606 5.71734C0.124588 6.83111 -0.0615098 8.02244 0.0178269 9.2112C0.123802 11.3984 0.973706 13.7466 2.47898 16Z" fill="white"/>
</svg>
