<svg width="32" height="19" viewBox="0 0 32 19" fill="none" xmlns="http://www.w3.org/2000/svg">
<path d="M2.84444 0C1.28091 0 0 1.22231 0 2.71429V16.2857C0 17.7777 1.28091 19 2.84444 19H29.1556C30.7191 19 32 17.7777 32 16.2857V2.71429C32 1.22231 30.7191 0 29.1556 0H2.84444ZM2.84444 1.35714H29.1556C29.2286 1.35714 29.297 1.36868 29.3667 1.37818L16.6889 11.6946C16.3614 11.9609 15.6386 11.9609 15.3111 11.6946L2.63333 1.37818C2.70304 1.36868 2.77143 1.35714 2.84444 1.35714ZM1.51111 2.24777L10.8778 9.87111L1.52222 16.7946C1.45969 16.6399 1.42222 16.4646 1.42222 16.2857V2.71429C1.42222 2.54753 1.45639 2.3939 1.51111 2.24777ZM30.4889 2.24777C30.5436 2.3939 30.5778 2.54753 30.5778 2.71429V16.2857C30.5778 16.4646 30.5403 16.6399 30.4778 16.7946L21.1222 9.87111L30.4889 2.24777ZM11.9889 10.7723L14.3889 12.7232C15.3113 13.4732 16.6887 13.4732 17.6111 12.7232L20.0111 10.7723L29.2889 17.6323C29.244 17.636 29.2017 17.6428 29.1556 17.6428H2.84444C2.79825 17.6428 2.75603 17.636 2.71111 17.6323L11.9889 10.7723Z" fill="white"/>
</svg>
