<?xml version="1.0" encoding="utf-8"?>
<!-- Generator: Adobe Illustrator 16.0.0, SVG Export Plug-In . SVG Version: 6.00 Build 0)  -->
<!DOCTYPE svg PUBLIC "-//W3C//DTD SVG 1.1//EN" "http://www.w3.org/Graphics/SVG/1.1/DTD/svg11.dtd">
<svg version="1.1" id="Layer_1" xmlns="http://www.w3.org/2000/svg" xmlns:xlink="http://www.w3.org/1999/xlink" x="0px" y="0px"
	 width="384.11px" height="168.032px" viewBox="0 0 384.11 168.032" enable-background="new 0 0 384.11 168.032"
	 xml:space="preserve">
<g>
	<defs>
		<rect id="SVGID_1_" x="-102.251" y="-211.263" width="595.276" height="595.276"/>
	</defs>
	<clipPath id="SVGID_2_">
		<use xlink:href="#SVGID_1_"  overflow="visible"/>
	</clipPath>
	<path clip-path="url(#SVGID_2_)" d="M57.332,27.862c0.005,14.442-11.634,26.186-26.076,26.311H18.998v2.1h-0.022v25.38
		c0,1.226-0.995,2.221-2.221,2.221H2.956c-1.227,0-2.221-0.995-2.221-2.221v-25.38l0.088-0.129V44.891
		C0.795,34.373,6.68,24.729,16.048,19.944v-0.735H3.361c-1.451,0-2.626-1.176-2.626-2.624V4.241c0-1.226,0.994-2.221,2.221-2.221
		h28.183C45.478,1.997,57.162,13.524,57.332,27.862 M36.636,34.411c1.734-1.735,2.703-4.095,2.689-6.549
		c-0.07-2.375-1.085-4.625-2.819-6.249s-4.044-2.489-6.42-2.404H18.998V37.1h11.088C32.541,37.115,34.9,36.146,36.636,34.411"/>
	<path clip-path="url(#SVGID_2_)" d="M115.457,68.902v12.746c0,1.228-0.994,2.222-2.222,2.222H66.694
		c-1.337,0-2.423-1.086-2.423-2.423V68.906c0-1.227,0.995-2.222,2.222-2.222h13.003v-0.715
		c-9.368-4.785-15.253-14.429-15.225-24.948V4.436c-0.009-1.347,1.075-2.449,2.423-2.461h13.328c1.35,0.012,2.434,1.114,2.424,2.461
		v62.248h30.794C114.464,66.686,115.455,67.679,115.457,68.902"/>
	<path clip-path="url(#SVGID_2_)" d="M186.144,0v52.535c-0.322,18.186-15.259,32.705-33.446,32.513
		c-18.124,0.133-32.959-14.389-33.211-32.513V4.241c0.042-1.209,1.012-2.179,2.221-2.22h14.382c1.227,0,2.222,0.994,2.222,2.22
		v47.36c-0.118,3.881,1.348,7.646,4.061,10.425c2.712,2.782,6.439,4.338,10.323,4.316c3.914,0.053,7.681-1.489,10.437-4.269
		c2.757-2.779,4.266-6.559,4.181-10.472V26.243C167.535,14.436,175.029,3.991,186.144,0"/>
	<path clip-path="url(#SVGID_2_)" fill="#0EA8A5" d="M221.116,4.237l17.808,12.747c0,1.226-0.996,2.221-2.221,2.221h-7.819V81.43
		c0.01,1.349-1.075,2.452-2.423,2.462h-13.328c-1.349-0.01-2.433-1.113-2.423-2.462V44.88c-0.03-10.521,5.855-20.165,15.225-24.951
		v-0.72h-32.25c-1.225,0-2.22-0.994-2.22-2.222V4.241c0-1.227,0.995-2.221,2.22-2.221h25.21
		C220.121,2.02,221.113,3.012,221.116,4.237"/>
	<path clip-path="url(#SVGID_2_)" d="M320.959,0v52.535c-0.321,18.186-15.259,32.705-33.445,32.513
		c-18.124,0.133-32.959-14.389-33.211-32.513V4.241c0.042-1.209,1.012-2.179,2.221-2.22h14.382c1.228,0,2.223,0.994,2.223,2.22
		v47.36c-0.118,3.881,1.348,7.646,4.06,10.425c2.712,2.782,6.44,4.338,10.324,4.316c3.914,0.053,7.681-1.489,10.437-4.269
		c2.757-2.779,4.267-6.559,4.182-10.472V26.243C302.351,14.436,309.844,3.991,320.959,0"/>
	<path clip-path="url(#SVGID_2_)" d="M329.555,72.766l5.496-9.706c0.949-1.217,2.666-1.52,3.977-0.7
		c0.465,0.232,8.885,6.429,16.602,6.429c4.681,0,8.078-2.921,8.078-7.015c0-4.911-4.093-8.653-12.046-11.812
		c-10.055-3.973-22.685-11.808-22.685-25.847c0-11.578,9.005-23.271,27.014-23.271c9.05,0.247,17.798,3.314,25.024,8.772
		c1.109,0.912,1.405,2.489,0.701,3.742l-5.966,9.002c-0.816,1.287-2.922,2.338-3.975,1.52c-1.052-0.583-9.588-7.014-16.721-7.014
		c-4.211,0-7.368,2.803-7.368,5.962c0,4.328,3.509,7.602,12.746,11.343c9.121,3.635,23.626,10.757,23.626,26.657
		c0,12.043-10.407,24.206-27.598,24.206c-15.201,0-23.627-6.315-26.311-9.004C328.968,74.871,328.619,74.398,329.555,72.766"/>
	<path clip-path="url(#SVGID_2_)" fill="#0EA8A5" d="M198.392,2.014h23.034c10.728,0.201,20.215,7.042,23.841,17.189h-47.725"/>
	<path clip-path="url(#SVGID_2_)" fill="#E52B3C" d="M247.999,1.928l-20.27,0.229c6.021-0.131,16.327,6.347,19.362,17.049
		l0.97,0.046L247.999,1.928z"/>
	<rect x="0.728" y="13.771" clip-path="url(#SVGID_2_)" width="18.322" height="43.188"/>
	<rect x="64.333" y="34.974" clip-path="url(#SVGID_2_)" width="18.323" height="43.188"/>
	<path clip-path="url(#SVGID_2_)" d="M192.565,117.925c0,1.921-1.456,3.025-4.289,3.025h-5.347v-11.204h5.027
		c2.577,0,4.017,1.088,4.017,2.897c0,1.215-0.624,2.064-1.504,2.496C191.733,115.491,192.565,116.437,192.565,117.925
		 M184.53,111.042v3.586h3.281c1.633,0,2.562-0.608,2.562-1.793s-0.929-1.793-2.562-1.793H184.53z M190.949,117.797
		c0-1.297-0.96-1.873-2.737-1.873h-3.682v3.729h3.682C189.989,119.652,190.949,119.094,190.949,117.797"/>
	<polygon clip-path="url(#SVGID_2_)" points="199.092,117.076 199.092,120.95 197.506,120.95 197.506,117.045 193.058,109.746 
		194.77,109.746 198.356,115.652 201.957,109.746 203.542,109.746 	"/>
	<path clip-path="url(#SVGID_2_)" d="M20.684,165.856c-1.206,1.416-2.858,2.176-4.798,2.176c-2.49,0-4.352-0.97-7.052-3.801
		C3.696,163.785,0,159.932,0,154.847c0-5.427,4.195-9.438,9.883-9.438s9.883,3.984,9.883,9.438c0,4.429-2.779,7.89-6.868,9.044
		c1.048,1.127,1.992,1.547,3.067,1.547c1.206,0,2.255-0.498,3.146-1.469L20.684,165.856z M9.883,161.295
		c3.696,0,6.449-2.7,6.449-6.448c0-3.749-2.753-6.449-6.449-6.449s-6.448,2.7-6.448,6.449
		C3.435,158.595,6.187,161.295,9.883,161.295"/>
	<path clip-path="url(#SVGID_2_)" d="M26.478,156.026v-10.355h3.408v10.224c0,3.775,1.704,5.4,4.666,5.4
		c2.962,0,4.64-1.625,4.64-5.4v-10.224h3.355v10.355c0,5.348-3.014,8.257-8.021,8.257C29.493,164.283,26.478,161.374,26.478,156.026
		"/>
	<path clip-path="url(#SVGID_2_)" d="M62.077,159.774h-9.175l-1.808,4.247h-3.513l8.258-18.351h3.355l8.283,18.351h-3.565
		L62.077,159.774z M60.95,157.101l-3.46-8.021l-3.435,8.021H60.95z"/>
	<polygon clip-path="url(#SVGID_2_)" points="89.368,145.671 89.368,164.021 86.563,164.021 76.444,151.596 76.444,164.021 
		73.062,164.021 73.062,145.671 75.868,145.671 85.986,158.097 85.986,145.671 	"/>
	<polygon clip-path="url(#SVGID_2_)" points="101.271,148.555 95.188,148.555 95.188,145.671 110.761,145.671 110.761,148.555 
		104.679,148.555 104.679,164.021 101.271,164.021 	"/>
	<polygon clip-path="url(#SVGID_2_)" points="130.343,161.164 130.343,164.021 116.58,164.021 116.58,145.671 129.976,145.671 
		129.976,148.528 119.989,148.528 119.989,153.3 128.849,153.3 128.849,156.104 119.989,156.104 119.989,161.164 	"/>
	<path clip-path="url(#SVGID_2_)" d="M136.006,154.847c0-5.479,4.194-9.438,9.831-9.438c2.988,0,5.557,1.076,7.261,3.068
		l-2.202,2.07c-1.337-1.441-2.989-2.149-4.902-2.149c-3.801,0-6.553,2.674-6.553,6.449c0,3.773,2.752,6.448,6.553,6.448
		c1.913,0,3.565-0.708,4.902-2.177l2.202,2.099c-1.704,1.992-4.273,3.066-7.287,3.066
		C140.2,164.283,136.006,160.325,136.006,154.847"/>
	<path clip-path="url(#SVGID_2_)" d="M157.922,154.847c0-5.427,4.194-9.438,9.883-9.438c5.688,0,9.883,3.985,9.883,9.438
		c0,5.452-4.195,9.437-9.883,9.437C162.116,164.283,157.922,160.272,157.922,154.847 M174.254,154.847
		c0-3.749-2.753-6.449-6.449-6.449c-3.697,0-6.448,2.7-6.448,6.449c0,3.748,2.751,6.448,6.448,6.448
		C171.501,161.295,174.254,158.595,174.254,154.847"/>
	<polygon clip-path="url(#SVGID_2_)" points="221.86,145.671 215.78,164.021 212.162,164.021 207.626,150.441 203.012,164.021 
		199.37,164.021 193.287,145.671 196.827,145.671 201.386,159.617 206.131,145.671 209.277,145.671 213.918,159.696 218.61,145.671 
			"/>
	<path clip-path="url(#SVGID_2_)" d="M226.398,154.847c0-5.427,4.193-9.438,9.883-9.438c5.688,0,9.883,3.985,9.883,9.438
		c0,5.452-4.195,9.437-9.883,9.437C230.591,164.283,226.398,160.272,226.398,154.847 M242.73,154.847
		c0-3.749-2.754-6.449-6.449-6.449c-3.697,0-6.448,2.7-6.448,6.449c0,3.748,2.751,6.448,6.448,6.448
		C239.976,161.295,242.73,158.595,242.73,154.847"/>
	<path clip-path="url(#SVGID_2_)" d="M265.039,164.021l-3.749-5.374c-0.234,0.026-0.471,0.026-0.708,0.026h-4.141v5.348h-3.409
		v-18.351h7.55c4.824,0,7.813,2.465,7.813,6.527c0,2.779-1.416,4.824-3.907,5.794l4.221,6.029H265.039z M260.425,148.555h-3.984
		v7.313h3.984c2.987,0,4.534-1.362,4.534-3.67C264.959,149.892,263.413,148.555,260.425,148.555"/>
	<polygon clip-path="url(#SVGID_2_)" points="275.447,145.671 278.854,145.671 278.854,161.138 288.45,161.138 288.45,164.021 
		275.447,164.021 	"/>
	<path clip-path="url(#SVGID_2_)" d="M294.4,145.671h8.021c5.95,0,10.015,3.671,10.015,9.176s-4.064,9.175-10.015,9.175H294.4
		V145.671z M302.264,161.138c4.09,0,6.736-2.49,6.736-6.291c0-3.802-2.646-6.292-6.736-6.292h-4.456v12.583H302.264z"/>
	<polygon clip-path="url(#SVGID_2_)" points="329.79,145.671 333.198,145.671 333.198,161.138 342.793,161.138 342.793,164.021 
		329.79,164.021 	"/>
	<polygon clip-path="url(#SVGID_2_)" points="350.763,148.555 344.681,148.555 344.681,145.671 360.252,145.671 360.252,148.555 
		354.17,148.555 354.17,164.021 350.763,164.021 	"/>
	<path clip-path="url(#SVGID_2_)" d="M366.074,145.671h8.021c5.95,0,10.015,3.671,10.015,9.176s-4.064,9.175-10.015,9.175h-8.021
		V145.671z M373.938,161.138c4.09,0,6.736-2.49,6.736-6.291c0-3.802-2.646-6.292-6.736-6.292h-4.456v12.583H373.938z"/>
	<line clip-path="url(#SVGID_2_)" x1="1.253" y1="114.761" x2="173.461" y2="114.761"/>
	
		<line clip-path="url(#SVGID_2_)" fill="none" stroke="#000000" stroke-width="1.347" stroke-miterlimit="10" x1="1.253" y1="114.761" x2="173.461" y2="114.761"/>
	<line clip-path="url(#SVGID_2_)" x1="210.851" y1="114.761" x2="384.059" y2="114.761"/>
	
		<line clip-path="url(#SVGID_2_)" fill="none" stroke="#000000" stroke-width="1.347" stroke-miterlimit="10" x1="210.851" y1="114.761" x2="384.059" y2="114.761"/>
</g>
</svg>
