<svg width="104" height="94" viewBox="0 0 104 94" fill="none" xmlns="http://www.w3.org/2000/svg">
<path d="M97.6599 0H78.0622C77.2208 0 76.5387 0.682093 76.5387 1.52344C76.5387 2.36478 77.2208 3.04687 78.0622 3.04687H97.6599C99.4758 3.04687 100.953 4.5242 100.953 6.34014V64.2255H3.04688V6.34014C3.04688 4.5242 4.5242 3.04687 6.34014 3.04687H70.9526C71.7939 3.04687 72.476 2.36478 72.476 1.52344C72.476 0.682093 71.7939 0 70.9526 0H6.34014C2.84416 0 0 2.84416 0 6.34014V69.0572C0 72.5532 2.84416 75.3974 6.34014 75.3974H20.9247C21.7661 75.3974 22.4482 74.7153 22.4482 73.8739C22.4482 73.0326 21.7661 72.3505 20.9247 72.3505H6.34014C4.5242 72.3505 3.04688 70.8732 3.04688 69.0572V67.2724H100.953V69.0572C100.953 70.8732 99.4758 72.3505 97.6599 72.3505H27.9671C27.1257 72.3505 26.4436 73.0326 26.4436 73.8739C26.4436 74.7153 27.1257 75.3974 27.9671 75.3974H37.5554L36.0512 84.0901H33.2713C30.7511 84.0901 28.701 86.1402 28.701 88.6604C28.701 91.1806 30.7511 93.2307 33.2713 93.2307H70.7287C73.2489 93.2307 75.299 91.1806 75.299 88.6604C75.299 86.1402 73.2489 84.0901 70.7287 84.0901H67.9488L66.4446 75.3974H97.6597C101.156 75.3974 104 72.5532 104 69.0572V6.34014C104 2.84416 101.156 0 97.6599 0ZM64.8566 84.0901H60.7092C59.8678 84.0901 59.1858 84.7722 59.1858 85.6135C59.1858 86.4549 59.8678 87.137 60.7092 87.137H70.7287C71.5689 87.137 72.2522 87.8203 72.2522 88.6604C72.2522 89.5005 71.5689 90.1838 70.7287 90.1838H33.2713C32.4311 90.1838 31.7478 89.5005 31.7478 88.6604C31.7478 87.8203 32.4311 87.137 33.2713 87.137H53.5974C54.4387 87.137 55.1208 86.4549 55.1208 85.6135C55.1208 84.7722 54.4387 84.0901 53.5974 84.0901H39.1434L40.6475 75.3974H63.3527L64.8566 84.0901Z" fill="#38A59D"/>
<path d="M82.4118 38.5464C81.8386 38.5464 81.3139 38.8681 81.0539 39.379L73.8645 53.5094L67.7976 41.5849C67.5376 41.0741 67.0129 40.7523 66.4397 40.7523C65.8664 40.7523 65.3418 41.0741 65.0818 41.5849L61.793 48.049H56.542C55.7006 48.049 55.0186 48.7311 55.0186 49.5724C55.0186 50.4138 55.7006 51.0959 56.542 51.0959H62.7272C63.3004 51.0959 63.825 50.7741 64.085 50.2632L66.4397 45.6355L72.5066 57.5599C72.7666 58.0708 73.2913 58.3925 73.8645 58.3925C74.4377 58.3925 74.9624 58.0708 75.2224 57.5599L82.4118 43.4295L85.8887 50.2635C86.1487 50.7743 86.6734 51.0961 87.2466 51.0961H93.4317C94.2731 51.0961 94.9552 50.414 94.9552 49.5726C94.9552 48.7313 94.2731 48.0492 93.4317 48.0492H88.1807L83.7697 39.3792C83.5097 38.8681 82.985 38.5464 82.4118 38.5464Z" fill="#38A59D"/>
<path d="M56.5425 34.0336H64.4479C65.2892 34.0336 65.9713 33.3515 65.9713 32.5102V16.4727C65.9713 15.6313 65.2892 14.9492 64.4479 14.9492H56.5425C55.7011 14.9492 55.019 15.6313 55.019 16.4727V32.5102C55.019 33.3515 55.7011 34.0336 56.5425 34.0336ZM58.0659 17.9961H62.9245V30.9867H58.0659V17.9961Z" fill="#38A59D"/>
<path d="M78.9933 19.3071H71.0879C70.2465 19.3071 69.5645 19.9892 69.5645 20.8306V32.5101C69.5645 33.3514 70.2465 34.0335 71.0879 34.0335H78.9933C79.8347 34.0335 80.5168 33.3514 80.5168 32.5101V20.8306C80.5168 19.9892 79.8347 19.3071 78.9933 19.3071ZM77.4699 30.9866H72.6113V22.354H77.4699V30.9866Z" fill="#38A59D"/>
<path d="M93.4318 34.0335C94.2731 34.0335 94.9552 33.3514 94.9552 32.5101V12.4517C94.9552 11.6103 94.2731 10.9282 93.4318 10.9282H85.5264C84.685 10.9282 84.0029 11.6103 84.0029 12.4517V32.5101C84.0029 33.3514 84.685 34.0335 85.5264 34.0335H93.4318ZM87.0498 13.9751H91.9084V30.9866H87.0498V13.9751Z" fill="#38A59D"/>
<path d="M45.0732 28.1616H10.542C9.70065 28.1616 9.01855 28.8437 9.01855 29.6851C9.01855 30.5264 9.70065 31.2085 10.542 31.2085H45.0732C45.9146 31.2085 46.5967 30.5264 46.5967 29.6851C46.5967 28.8437 45.9146 28.1616 45.0732 28.1616Z" fill="#38A59D"/>
<path d="M10.542 39.3013H16.7215C17.5628 39.3013 18.2449 38.6192 18.2449 37.7778C18.2449 36.9365 17.5628 36.2544 16.7215 36.2544H10.542C9.70065 36.2544 9.01855 36.9365 9.01855 37.7778C9.01855 38.6192 9.70065 39.3013 10.542 39.3013Z" fill="#38A59D"/>
<path d="M45.073 36.2544H23.7017C22.8603 36.2544 22.1782 36.9365 22.1782 37.7778C22.1782 38.6192 22.8603 39.3013 23.7017 39.3013H45.073C45.9144 39.3013 46.5965 38.6192 46.5965 37.7778C46.5965 36.9365 45.9144 36.2544 45.073 36.2544Z" fill="#38A59D"/>
<path d="M45.0732 10.9282H10.542C9.70065 10.9282 9.01855 11.6103 9.01855 12.4517C9.01855 13.293 9.70065 13.9751 10.542 13.9751H45.0732C45.9146 13.9751 46.5967 13.293 46.5967 12.4517C46.5967 11.6103 45.9146 10.9282 45.0732 10.9282Z" fill="#38A59D"/>
<path d="M10.542 22.0679H31.9558C32.7972 22.0679 33.4793 21.3858 33.4793 20.5444C33.4793 19.7031 32.7972 19.021 31.9558 19.021H10.542C9.70065 19.021 9.01855 19.7031 9.01855 20.5444C9.01855 21.3858 9.70065 22.0679 10.542 22.0679Z" fill="#38A59D"/>
<path d="M45.0731 19.021H38.936C38.0947 19.021 37.4126 19.7031 37.4126 20.5444C37.4126 21.3858 38.0947 22.0679 38.936 22.0679H45.0731C45.9144 22.0679 46.5965 21.3858 46.5965 20.5444C46.5965 19.7031 45.9144 19.021 45.0731 19.021Z" fill="#38A59D"/>
<path d="M46.5967 45.7725C46.5967 44.9311 45.9146 44.249 45.0732 44.249H10.542C9.70065 44.249 9.01855 44.9311 9.01855 45.7725C9.01855 46.6138 9.70065 47.2959 10.542 47.2959H45.0732C45.9146 47.2959 46.5967 46.6138 46.5967 45.7725Z" fill="#38A59D"/>
<path d="M10.542 52.2988C9.70065 52.2988 9.01855 52.9809 9.01855 53.8223C9.01855 54.6636 9.70065 55.3457 10.542 55.3457H26.792C27.6333 55.3457 28.3154 54.6636 28.3154 53.8223C28.3154 52.9809 27.6333 52.2988 26.792 52.2988H10.542Z" fill="#38A59D"/>
</svg>
