<svg width="104" height="88" viewBox="0 0 104 88" fill="none" xmlns="http://www.w3.org/2000/svg">
<path d="M97.2903 16.9436V3.99561L89.2991 0H78.4412L70.4516 3.99561V16.7742H66.7881C66.0937 14.8267 64.2485 13.4194 62.0645 13.4194C60.7712 13.4194 59.6021 13.9243 58.7097 14.7277C57.8173 13.9226 56.6481 13.4194 55.3548 13.4194C54.0615 13.4194 52.8924 13.9243 52 14.7277C51.1076 13.9226 49.9384 13.4194 48.6452 13.4194C47.3519 13.4194 46.1827 13.9243 45.2903 14.7277C44.3979 13.9226 43.2288 13.4194 41.9355 13.4194C39.7515 13.4194 37.9063 14.8267 37.2119 16.7742H33.5484V3.99561L25.5572 0H14.7009L6.70968 3.99561V16.9436C2.88684 17.7236 0 21.112 0 25.1613C0 29.2106 2.88684 32.599 6.70968 33.379V46.327L14.7009 50.3226H25.5588L30.8779 47.6622L35.2258 54.1857V87.2258H63.7419V54.1857L67.0968 49.1534V33.5484H70.4516V46.327L78.4428 50.3226H89.3008L97.2903 46.327V33.379C101.113 32.599 104 29.2106 104 25.1613C104 21.112 101.113 17.7236 97.2903 16.9436ZM6.70968 29.8832C4.76219 29.1905 3.35484 27.3453 3.35484 25.1613C3.35484 22.9773 4.76219 21.1321 6.70968 20.4377V29.8832ZM30.1935 44.2537L24.7654 46.9677H15.4943L10.0645 44.2537V6.0689L15.4926 3.35484H24.7637L30.1935 6.0689V44.2537ZM53.6774 18.4516C53.6774 17.5274 54.4289 16.7742 55.3548 16.7742C56.2808 16.7742 57.0323 17.5274 57.0323 18.4516V28.5161C57.0323 29.4404 56.2808 30.1936 55.3548 30.1936C54.4289 30.1936 53.6774 29.4404 53.6774 28.5161V18.4516ZM46.9677 18.4516C46.9677 17.5274 47.7192 16.7742 48.6452 16.7742C49.5711 16.7742 50.3226 17.5274 50.3226 18.4516V24.3142C49.3966 23.8009 48.3499 23.4839 47.2177 23.4839H46.9677V18.4516ZM40.2581 18.4516C40.2581 17.5274 41.0095 16.7742 41.9355 16.7742C42.8614 16.7742 43.6129 17.5274 43.6129 18.4516V23.4839H40.2581V18.4516ZM33.5484 20.129H36.9032V23.4839H34.2948L33.5484 24.6799V20.129ZM63.7419 48.1386L60.3871 53.1692V77.1613H57.0323V80.5161H60.3871V83.871H38.5806V80.5161H53.6774V77.1613H38.5806V53.1692L33.5484 45.6208V31.0088L36.1568 26.8387H47.2194C48.9303 26.8387 50.3226 28.231 50.3226 29.9419C50.3226 31.3208 49.3966 32.547 48.0715 32.9261L39.7968 35.2896L40.7177 38.5152L48.9924 36.1517C50.7352 35.6535 52.1426 34.4475 52.9461 32.9059C53.664 33.3035 54.4775 33.5484 55.3548 33.5484C56.6481 33.5484 57.8173 33.0435 58.7097 32.24C59.6021 33.0452 60.7712 33.5484 62.0645 33.5484C62.655 33.5484 63.2152 33.4276 63.7419 33.2397V48.1386ZM63.7419 28.5161C63.7419 29.4404 62.9904 30.1936 62.0645 30.1936C61.1386 30.1936 60.3871 29.4404 60.3871 28.5161V18.4516C60.3871 17.5274 61.1386 16.7742 62.0645 16.7742C62.9904 16.7742 63.7419 17.5274 63.7419 18.4516V28.5161ZM70.4516 30.1936H67.0968V28.5161V20.129H70.4516V30.1936ZM93.9355 44.2537L88.5074 46.9677H79.2363L73.8064 44.2537V6.0689L79.2346 3.35484H88.5057L93.9355 6.0689V44.2537ZM97.2903 29.8849V20.4394C99.2378 21.1338 100.645 22.979 100.645 25.163C100.645 27.347 99.2378 29.1905 97.2903 29.8849Z" fill="#11AEA7"/>
</svg>
