<svg width="84" height="85" viewBox="0 0 84 85" fill="none" xmlns="http://www.w3.org/2000/svg">
<path fill-rule="evenodd" clip-rule="evenodd" d="M1.44828 84.7639H39.1034C39.4876 84.7639 39.8559 84.6113 40.1275 84.3397C40.3991 84.0681 40.5517 83.6997 40.5517 83.3156C40.5517 82.9315 40.3991 82.5632 40.1275 82.2915C39.8559 82.0199 39.4876 81.8674 39.1034 81.8674H2.89655V15.2467H13.0345C13.2247 15.2468 13.4131 15.2094 13.5888 15.1367C13.7646 15.0639 13.9243 14.9572 14.0588 14.8227C14.1933 14.6882 14.3 14.5285 14.3727 14.3528C14.4455 14.177 14.4829 13.9886 14.4828 13.7984V3.66047H63.7241V25.3846C63.7241 25.7687 63.8767 26.1371 64.1483 26.4087C64.4199 26.6803 64.7883 26.8329 65.1724 26.8329C65.5565 26.8329 65.9249 26.6803 66.1965 26.4087C66.4681 26.1371 66.6207 25.7687 66.6207 25.3846V2.21219C66.6208 2.02197 66.5834 1.83359 66.5107 1.65783C66.4379 1.48207 66.3312 1.32237 66.1967 1.18786C66.0622 1.05335 65.9025 0.946678 65.7268 0.873935C65.551 0.801191 65.3626 0.763806 65.1724 0.763916H13.0345C12.8443 0.763886 12.656 0.801342 12.4803 0.874145C12.3046 0.946947 12.1449 1.05367 12.0105 1.1882L0.424316 12.7744C0.289776 12.9088 0.183052 13.0685 0.110245 13.2442C0.0374378 13.4199 -2.41571e-05 13.6082 2.43905e-07 13.7984V83.3156C-0.000110181 83.5059 0.0372752 83.6942 0.110019 83.87C0.182762 84.0458 0.289437 84.2055 0.423944 84.34C0.558451 84.4745 0.718152 84.5811 0.893914 84.6539C1.06968 84.7266 1.25805 84.764 1.44828 84.7639ZM4.94441 12.3501L11.5862 5.70833V12.3501H4.94441Z" fill="white"/>
<path fill-rule="evenodd" clip-rule="evenodd" d="M10.1377 41.3157H44.8964C45.2805 41.3157 45.6488 41.1632 45.9204 40.8916C46.192 40.6199 46.3446 40.2516 46.3446 39.8675C46.3446 39.4834 46.192 39.115 45.9204 38.8434C45.6488 38.5718 45.2805 38.4192 44.8964 38.4192H10.1377C9.75362 38.4192 9.38525 38.5718 9.11364 38.8434C8.84204 39.115 8.68945 39.4834 8.68945 39.8675C8.68945 40.2516 8.84204 40.6199 9.11364 40.8916C9.38525 41.1632 9.75362 41.3157 10.1377 41.3157Z" fill="white"/>
<path fill-rule="evenodd" clip-rule="evenodd" d="M55.0344 42.7639C55.0381 44.3974 55.4348 46.0061 56.1911 47.454C56.9473 48.9019 58.0408 50.1466 59.3792 51.083V67.3846H55.0344C54.6503 67.3846 54.2819 67.5372 54.0103 67.8088C53.7387 68.0804 53.5861 68.4488 53.5861 68.8329C53.5861 69.217 53.7387 69.5854 54.0103 69.857C54.2819 70.1286 54.6503 70.2812 55.0344 70.2812H56.4827V73.1777H53.5861C52.6348 73.1753 51.6925 73.3616 50.8137 73.7257C49.9349 74.0899 49.137 74.6247 48.4662 75.2992C47.1129 76.6602 46.3506 78.4998 46.3447 80.4191V83.3157C46.3446 83.5059 46.382 83.6943 46.4547 83.87C46.5275 84.0458 46.6342 84.2055 46.7687 84.34C46.9032 84.4745 47.0629 84.5812 47.2386 84.6539C47.4144 84.7267 47.6028 84.764 47.793 84.7639H59.3792C59.7633 84.7639 60.1317 84.6113 60.4033 84.3397C60.6749 84.0681 60.8275 83.6998 60.8275 83.3157C60.8275 82.9315 60.6749 82.5632 60.4033 82.2916C60.1317 82.02 59.7633 81.8674 59.3792 81.8674H49.2413V80.4191C49.2416 79.2669 49.6994 78.1619 50.5142 77.3472C51.3289 76.5324 52.4339 76.0746 53.5861 76.0743H76.7585C77.3295 76.0728 77.8951 76.1845 78.4226 76.403C78.9501 76.6215 79.4291 76.9424 79.8318 77.3472C80.6433 78.1639 81.1002 79.2677 81.1033 80.4191V81.8674H70.9654C70.5813 81.8674 70.2129 82.02 69.9413 82.2916C69.6697 82.5632 69.5171 82.9315 69.5171 83.3157C69.5171 83.6998 69.6697 84.0681 69.9413 84.3397C70.2129 84.6113 70.5813 84.7639 70.9654 84.7639H82.5516C82.7418 84.764 82.9302 84.7267 83.106 84.6539C83.2817 84.5812 83.4414 84.4745 83.576 84.34C83.7105 84.2055 83.8171 84.0458 83.8899 83.87C83.9626 83.6943 84 83.5059 83.9999 83.3157V80.4191C83.9948 78.4999 83.233 76.6602 81.8798 75.2992C81.2089 74.6246 80.4107 74.0897 79.5317 73.7255C78.6526 73.3614 77.71 73.1752 76.7585 73.1777H73.862V70.2812H75.3102C75.6944 70.2812 76.0627 70.1286 76.3343 69.857C76.6059 69.5854 76.7585 69.217 76.7585 68.8329C76.7585 68.4488 76.6059 68.0804 76.3343 67.8088C76.0627 67.5372 75.6944 67.3846 75.3102 67.3846H70.9654V51.083C72.3959 50.0869 73.5454 48.7387 74.3028 47.1687C75.0603 45.5987 75.4 43.8599 75.2894 42.1202C75.1787 40.3805 74.6214 38.6988 73.6711 37.2374C72.7209 35.776 71.4099 34.5843 69.8647 33.7774C68.3195 32.9705 66.5924 32.5757 64.8501 32.6311C63.1078 32.6865 61.4092 33.1902 59.9184 34.0935C58.4276 34.9969 57.1948 36.2694 56.3393 37.7882C55.4838 39.307 55.0343 41.0208 55.0344 42.7639ZM70.9654 73.1777H59.3792V70.2812H70.9654V73.1777ZM72.4137 42.7639C72.4107 44.0348 72.0747 45.2827 71.4391 46.3833C70.8036 47.4838 69.8907 48.3986 68.7915 49.0365C68.5719 49.1638 68.3895 49.3465 68.2626 49.5664C68.1358 49.7863 68.069 50.0357 68.0688 50.2896V67.3846H62.2757V50.2896C62.2756 50.0357 62.2087 49.7863 62.0819 49.5664C61.955 49.3465 61.7727 49.1638 61.553 49.0365C60.4519 48.4012 59.5375 47.4872 58.9016 46.3864C58.2657 45.2856 57.9308 44.0369 57.9305 42.7656C57.9303 41.4944 58.2647 40.2455 58.9001 39.1445C59.5355 38.0434 60.4496 37.1291 61.5504 36.4933C62.6512 35.8575 63.9 35.5227 65.1713 35.5226C66.4425 35.5224 67.6914 35.8569 68.7923 36.4924C69.8933 37.128 70.8076 38.0421 71.4433 39.143C72.079 40.2439 72.4137 41.4927 72.4137 42.7639Z" fill="white"/>
<path d="M65.1739 84.764C65.9737 84.764 66.6221 84.1156 66.6221 83.3157C66.6221 82.5158 65.9737 81.8674 65.1739 81.8674C64.374 81.8674 63.7256 82.5158 63.7256 83.3157C63.7256 84.1156 64.374 84.764 65.1739 84.764Z" fill="white"/>
<path fill-rule="evenodd" clip-rule="evenodd" d="M15.6003 67.8844C15.6273 69.3711 16.2309 70.7893 17.2839 71.8393C18.3368 72.8893 19.7566 73.4891 21.2435 73.512C21.6704 73.5125 22.093 73.5972 22.4872 73.7613C22.8813 73.9254 23.2392 74.1655 23.5405 74.4681C24.6093 75.4964 26.0342 76.0721 27.5174 76.0748C29.0084 76.0789 30.4415 75.498 31.5087 74.4568C32.1227 73.8526 32.9484 73.512 33.8098 73.5077C35.2968 73.4821 36.7155 72.879 37.7657 71.8261C38.816 70.7731 39.4155 69.353 39.4375 67.8659C39.4379 67.4392 39.5225 67.0168 39.6866 66.6229C39.8507 66.229 40.0909 65.8713 40.3935 65.5705C41.4259 64.5005 42.0021 63.0711 42.0002 61.5843C41.9984 60.0974 41.4187 58.6695 40.3836 57.6021C40.0821 57.2994 39.8432 56.9402 39.6806 56.5451C39.518 56.15 39.4349 55.7268 39.436 55.2995C39.409 53.8128 38.8053 52.3947 37.7524 51.3446C36.6994 50.2946 35.2796 49.6949 33.7928 49.672C32.9315 49.6665 32.1067 49.3232 31.4958 48.7159C30.4076 47.7194 28.985 47.1676 27.5094 47.1697C26.0339 47.1718 24.6128 47.7276 23.5274 48.7272C22.9193 49.3333 22.0962 49.6744 21.2376 49.6763H21.2263C19.7394 49.702 18.3208 50.3051 17.2705 51.358C16.2203 52.4109 15.6208 53.8311 15.5989 55.3181C15.5985 55.7448 15.5138 56.1672 15.3497 56.5611C15.1857 56.955 14.9454 57.3127 14.6428 57.6135C13.6095 58.6831 13.0328 60.1126 13.0347 61.5997C13.0365 63.0869 13.6168 64.515 14.6527 65.5819C14.9544 65.8844 15.1935 66.2436 15.3561 66.6387C15.5187 67.0338 15.6017 67.4571 15.6003 67.8844ZM16.7077 59.6445C17.8488 58.5041 18.4916 56.9581 18.4954 55.3449C18.5101 54.6148 18.8065 53.9186 19.3226 53.4019C19.8387 52.8853 20.5346 52.5882 21.2647 52.5729C22.8737 52.5669 24.4157 51.9277 25.5572 50.7937C26.0942 50.3131 26.789 50.0465 27.5096 50.0444C28.2303 50.0424 28.9266 50.3049 29.4664 50.7824C30.6071 51.922 32.1522 52.5641 33.7646 52.5687C34.4928 52.5838 35.1873 52.8787 35.704 53.3922C36.2207 53.9057 36.5198 54.5984 36.5395 55.3266C36.5401 56.9402 37.1793 58.4879 38.3173 59.6318C38.82 60.1574 39.1015 60.8561 39.1036 61.5835C39.1057 62.3108 38.8282 63.0111 38.3286 63.5396C37.1875 64.68 36.5447 66.226 36.5409 67.8392C36.5262 68.5676 36.2312 69.2623 35.7172 69.7787C35.2032 70.295 34.5098 70.5932 33.7815 70.6112C32.1691 70.6149 30.6232 71.2542 29.4791 72.3904C28.9414 72.8697 28.2469 73.1354 27.5266 73.1375C26.8064 73.1396 26.1103 72.8779 25.5699 72.4017C24.4292 71.2621 22.8841 70.62 21.2717 70.6154C20.5435 70.6003 19.849 70.3053 19.3323 69.7918C18.8156 69.2783 18.5165 68.5857 18.4968 67.8575C18.4963 66.2439 17.8571 64.6961 16.719 63.5523C16.2154 63.0271 15.9334 62.3282 15.9313 61.6006C15.9291 60.873 16.2072 60.1726 16.7077 59.6445Z" fill="#11AEA7"/>
<path fill-rule="evenodd" clip-rule="evenodd" d="M10.1377 32.626H44.8964C45.2805 32.626 45.6488 32.4735 45.9204 32.2019C46.192 31.9303 46.3446 31.5619 46.3446 31.1778C46.3446 30.7937 46.192 30.4253 45.9204 30.1537C45.6488 29.8821 45.2805 29.7295 44.8964 29.7295H10.1377C9.75362 29.7295 9.38525 29.8821 9.11364 30.1537C8.84204 30.4253 8.68945 30.7937 8.68945 31.1778C8.68945 31.5619 8.84204 31.9303 9.11364 32.2019C9.38525 32.4735 9.75362 32.626 10.1377 32.626Z" fill="white"/>
<path fill-rule="evenodd" clip-rule="evenodd" d="M8.68945 22.4881C8.68934 22.6783 8.72673 22.8667 8.79947 23.0424C8.87222 23.2182 8.97889 23.3779 9.1134 23.5124C9.2479 23.6469 9.4076 23.7536 9.58337 23.8263C9.75913 23.8991 9.94751 23.9365 10.1377 23.9363H56.4826C56.8667 23.9363 57.235 23.7838 57.5066 23.5122C57.7782 23.2406 57.9308 22.8722 57.9308 22.4881C57.9308 22.104 57.7782 21.7356 57.5066 21.464C57.235 21.1924 56.8667 21.0398 56.4826 21.0398H10.1377C9.94751 21.0397 9.75913 21.0771 9.58337 21.1498C9.4076 21.2226 9.2479 21.3292 9.1134 21.4637C8.97889 21.5982 8.87222 21.7579 8.79947 21.9337C8.72673 22.1095 8.68934 22.2978 8.68945 22.4881Z" fill="white"/>
<path fill-rule="evenodd" clip-rule="evenodd" d="M56.4828 15.2466C56.8669 15.2466 57.2353 15.0941 57.5069 14.8225C57.7785 14.5509 57.9311 14.1825 57.9311 13.7984C57.9311 13.4143 57.7785 13.0459 57.5069 12.7743C57.2353 12.5027 56.8669 12.3501 56.4828 12.3501H21.7242C21.34 12.3501 20.9717 12.5027 20.7001 12.7743C20.4285 13.0459 20.2759 13.4143 20.2759 13.7984C20.2759 14.1825 20.4285 14.5509 20.7001 14.8225C20.9717 15.0941 21.34 15.2466 21.7242 15.2466H56.4828Z" fill="white"/>
</svg>
