<svg width="89" height="85" viewBox="0 0 89 85" fill="none" xmlns="http://www.w3.org/2000/svg">
<path d="M83.636 83.3094H80.7269V27.6003L45.0905 4.03664L9.89054 27.8912V51.4548H6.98145V27.1639C6.98145 26.7276 7.27235 26.2912 7.56326 26.0003L44.3633 0.982098C44.7996 0.691189 45.5269 0.691189 45.9633 0.982098L82.9087 25.5639C83.3451 25.8548 83.4905 26.2912 83.4905 26.7276V83.3094H83.636Z" fill="white"/>
<path d="M6.98145 81.4187H9.89054V83.3096H6.98145V81.4187Z" fill="white"/>
<path d="M2.32666 81.8547H88.2903V84.7638H2.32666V81.8547Z" fill="white"/>
<path d="M20.8 77.637H17.0182V75.7279H19.3455V52.6188H10.7636C6.4 52.6188 1.90909 56.1097 1.90909 60.4733V75.7279H5.52727V77.637H1.45455C0.581818 77.637 0 77.0552 0 76.1824V60.4733C0 54.5097 4.8 50.7097 10.7636 50.7097H20.8C21.6727 50.7097 22.2545 51.2915 22.2545 52.1643V76.1824C22.2545 77.0552 21.5273 77.637 20.8 77.637Z" fill="white"/>
<path d="M51.3452 77.6372H47.127V76.7281H51.8907V65.7462H20.2543V76.7281H35.6361V77.6372H20.7998C19.927 77.6372 19.3452 77.0553 19.3452 76.1826V66.2917C19.3452 65.419 19.927 64.8372 20.7998 64.8372H51.3452C52.2179 64.8372 52.7998 65.419 52.7998 66.2917V76.1826C52.7998 77.0553 52.0725 77.6372 51.3452 77.6372Z" fill="white"/>
<path d="M11.2 83.4554C7.2727 83.4554 3.92725 80.2554 3.92725 76.1826C3.92725 72.1099 7.12724 68.9099 11.2 68.9099C15.2727 68.9099 18.4727 72.1099 18.4727 76.1826C18.4727 80.2554 15.1272 83.4554 11.2 83.4554ZM11.2 70.9645C7.6923 70.9645 5.83634 73.2639 5.83634 76.3281C5.83634 79.7639 8.5 81.6917 11.2 81.6917C13.8999 81.6917 16.5636 79.2639 16.5636 76.3281C16.5636 73.7639 14.5 70.9645 11.2 70.9645Z" fill="white"/>
<path d="M41.2727 83.4554C37.3455 83.4554 34 80.2554 34 76.1826C34 72.1099 37.2 68.9099 41.2727 68.9099C45.3455 68.9099 48.5455 72.1099 48.5455 76.1826C48.5455 80.2554 45.2 83.4554 41.2727 83.4554ZM41.2727 70.9645C37.7651 70.9645 35.9091 73.2639 35.9091 76.3281C35.9091 79.7639 38.5728 81.6917 41.2727 81.6917C43.9727 81.6917 46.6364 79.2639 46.6364 76.3281C46.6364 73.7639 44.5728 70.9645 41.2727 70.9645Z" fill="white"/>
<path d="M15.1273 64.4005H1.45459V63.4914H15.6728V55.5641H2.47277V54.655H14.9819C15.8546 54.655 16.4364 55.2368 16.4364 56.1096V62.9459C16.5819 63.6732 15.8546 64.4005 15.1273 64.4005Z" fill="white"/>
<path d="M41.3087 80.1098C39.1269 80.1098 37.5269 78.3643 37.5269 76.328C37.5269 74.1461 39.2723 72.5461 41.3087 72.5461C43.345 72.5461 45.0905 74.2916 45.0905 76.328C45.0905 78.3643 43.345 80.1098 41.3087 80.1098ZM41.3087 75.3098C40.8723 75.3098 40.4359 75.7461 40.4359 76.1825C40.4359 76.6189 40.8723 77.0552 41.3087 77.0552C41.745 77.0552 42.1814 76.6189 42.1814 76.1825C42.1814 75.7461 41.745 75.3098 41.3087 75.3098Z" fill="white"/>
<path d="M11.2003 80.1098C9.01846 80.1098 7.41846 78.3643 7.41846 76.328C7.41846 74.1461 9.16391 72.5461 11.2003 72.5461C13.2366 72.5461 14.9821 74.2916 14.9821 76.328C14.9821 78.3643 13.3821 80.1098 11.2003 80.1098ZM11.2003 75.3098C10.7639 75.3098 10.3275 75.7461 10.3275 76.1825C10.3275 76.6189 10.7639 77.0552 11.2003 77.0552C11.6366 77.0552 12.073 76.6189 12.073 76.1825C12.073 75.7461 11.6366 75.3098 11.2003 75.3098Z" fill="white"/>
<path d="M47.5185 65.7639H26.4815C25.5926 65.7639 25 65.2338 25 64.4386V45.0892C25 44.294 25.5926 43.7639 26.4815 43.7639H47.5185C48.4074 43.7639 49 44.294 49 45.0892V64.4386C49 65.1013 48.2593 65.7639 47.5185 65.7639ZM25.9259 64.9356H48.0741V44.5922H25.9259V64.9356Z" fill="#11AEA7"/>
<path d="M40.7271 56.5641H32.8725C31.9998 56.5641 31.418 55.9823 31.418 55.1095V44.2004H32.3271V55.655H41.2725V44.2004H42.1816V55.1095C42.1816 55.9823 41.4543 56.5641 40.7271 56.5641Z" fill="#11AEA7"/>
<path d="M74.4723 35.4548H16.145C15.2722 35.4548 14.6904 34.873 14.6904 34.0003V28.9094C14.6904 28.0367 15.2722 27.4548 16.145 27.4548H74.4723C75.345 27.4548 75.9268 28.0367 75.9268 28.9094V34.0003C75.9268 34.7276 75.345 35.4548 74.4723 35.4548ZM16 33.5457H74.0177V29.3639H16V33.5457Z" fill="white"/>
<path d="M76.6542 84.4734H57.7451C56.8723 84.4734 56.2905 83.8916 56.2905 83.0189V64.6916C56.2905 63.8189 56.8723 63.2371 57.7451 63.2371H76.6542C77.5269 63.2371 78.1087 63.8189 78.1087 64.6916V83.0189C78.1087 83.8916 77.5269 84.4734 76.6542 84.4734ZM57.1996 83.5643H77.1996V64.1462H57.1996V83.5643Z" fill="white"/>
<path d="M71.127 75.019H63.2724C62.3997 75.019 61.8179 74.4372 61.8179 73.5644V64.8372H62.727V74.1099H71.6724V64.8372H72.5815V73.5644C72.5815 74.2917 71.9997 75.019 71.127 75.019Z" fill="white"/>
<path d="M76.6542 65.5642H57.7451C56.8723 65.5642 56.2905 64.9824 56.2905 64.1097V45.7824C56.2905 44.9097 56.8723 44.3279 57.7451 44.3279H76.6542C77.5269 44.3279 78.1087 44.9097 78.1087 45.7824V64.1097C78.1087 64.9824 77.5269 65.5642 76.6542 65.5642ZM57.1996 62.6552H77.1996V45.237H57.1996V62.6552Z" fill="white"/>
<path d="M71.127 55.1098H63.2724C62.3997 55.1098 61.8179 54.528 61.8179 53.6553V44.928H62.727V54.2007H71.6724V44.928H72.5815V53.6553C72.5815 54.3825 71.9997 55.1098 71.127 55.1098Z" fill="white"/>
</svg>
