<svg width="82" height="98" viewBox="0 0 82 98" fill="none" xmlns="http://www.w3.org/2000/svg">
<path d="M0 96.125C0 96.556 0.171205 96.9693 0.475952 97.274C0.780698 97.5788 1.19402 97.75 1.625 97.75H79.625C80.056 97.75 80.4693 97.5788 80.774 97.274C81.0788 96.9693 81.25 96.556 81.25 96.125V8.375C81.2476 6.22086 80.3908 4.15564 78.8676 2.63243C77.3444 1.10922 75.2791 0.252419 73.125 0.25H1.625C1.19402 0.25 0.780698 0.421205 0.475952 0.725951C0.171205 1.0307 0 1.44402 0 1.875V96.125ZM78 8.375V13.25H71.5V6.75C71.5011 5.60852 71.1998 4.48713 70.6266 3.5H73.125C74.4175 3.50151 75.6566 4.0156 76.5705 4.92952C77.4844 5.84343 77.9985 7.08253 78 8.375ZM3.25 3.5H65C65.8616 3.50102 66.6877 3.84376 67.297 4.45303C67.9062 5.0623 68.249 5.88836 68.25 6.75V14.875C68.25 15.306 68.4212 15.7193 68.726 16.024C69.0307 16.3288 69.444 16.5 69.875 16.5H78V94.5H3.25V3.5Z" fill="#11AEA7"/>
<path d="M69.875 81.5H56.875C56.444 81.5 56.0307 81.6712 55.726 81.976C55.4212 82.2807 55.25 82.694 55.25 83.125C55.25 83.556 55.4212 83.9693 55.726 84.274C56.0307 84.5788 56.444 84.75 56.875 84.75H69.875C70.306 84.75 70.7193 84.5788 71.024 84.274C71.3288 83.9693 71.5 83.556 71.5 83.125C71.5 82.694 71.3288 82.2807 71.024 81.976C70.7193 81.6712 70.306 81.5 69.875 81.5Z" fill="#11AEA7"/>
<path d="M69.875 88H43.875C43.444 88 43.0307 88.1712 42.726 88.476C42.4212 88.7807 42.25 89.194 42.25 89.625C42.25 90.056 42.4212 90.4693 42.726 90.774C43.0307 91.0788 43.444 91.25 43.875 91.25H69.875C70.306 91.25 70.7193 91.0788 71.024 90.774C71.3288 90.4693 71.5 90.056 71.5 89.625C71.5 89.194 71.3288 88.7807 71.024 88.476C70.7193 88.1712 70.306 88 69.875 88Z" fill="#11AEA7"/>
<path d="M39 23C39 19.7861 38.047 16.6443 36.2614 13.972C34.4758 11.2997 31.9379 9.21689 28.9686 7.98697C25.9993 6.75704 22.732 6.43524 19.5798 7.06225C16.4276 7.68926 13.5321 9.23692 11.2595 11.5095C8.98692 13.7821 7.43926 16.6776 6.81225 19.8298C6.18524 22.982 6.50704 26.2493 7.73697 29.2186C8.96689 32.1879 11.0497 34.7258 13.722 36.5114C16.3943 38.297 19.5361 39.25 22.75 39.25C27.0583 39.2451 31.1887 37.5315 34.2351 34.4851C37.2815 31.4387 38.9951 27.3083 39 23ZM22.75 36C20.1789 36 17.6654 35.2376 15.5276 33.8091C13.3898 32.3807 11.7235 30.3503 10.7396 27.9749C9.75563 25.5995 9.49819 22.9856 9.9998 20.4638C10.5014 17.9421 11.7395 15.6257 13.5576 13.8076C15.3757 11.9895 17.6921 10.7514 20.2138 10.2498C22.7356 9.74819 25.3495 10.0056 27.7249 10.9896C30.1003 11.9735 32.1307 13.6398 33.5591 15.7776C34.9876 17.9154 35.75 20.4289 35.75 23C35.7461 26.4466 34.3753 29.751 31.9381 32.1881C29.501 34.6253 26.1966 35.9961 22.75 36Z" fill="#11AEA7"/>
<path d="M17.875 45.75H11.375C10.944 45.75 10.5307 45.9212 10.226 46.226C9.92121 46.5307 9.75 46.944 9.75 47.375C9.75 47.806 9.92121 48.2193 10.226 48.524C10.5307 48.8288 10.944 49 11.375 49H17.875C18.306 49 18.7193 48.8288 19.024 48.524C19.3288 48.2193 19.5 47.806 19.5 47.375C19.5 46.944 19.3288 46.5307 19.024 46.226C18.7193 45.9212 18.306 45.75 17.875 45.75Z" fill="#11AEA7"/>
<path d="M53.625 45.75H27.625C27.194 45.75 26.7807 45.9212 26.476 46.226C26.1712 46.5307 26 46.944 26 47.375C26 47.806 26.1712 48.2193 26.476 48.524C26.7807 48.8288 27.194 49 27.625 49H53.625C54.056 49 54.4693 48.8288 54.774 48.524C55.0788 48.2193 55.25 47.806 55.25 47.375C55.25 46.944 55.0788 46.5307 54.774 46.226C54.4693 45.9212 54.056 45.75 53.625 45.75Z" fill="#11AEA7"/>
<path d="M69.875 45.75H66.625C66.194 45.75 65.7807 45.9212 65.476 46.226C65.1712 46.5307 65 46.944 65 47.375C65 47.806 65.1712 48.2193 65.476 48.524C65.7807 48.8288 66.194 49 66.625 49H69.875C70.306 49 70.7193 48.8288 71.024 48.524C71.3288 48.2193 71.5 47.806 71.5 47.375C71.5 46.944 71.3288 46.5307 71.024 46.226C70.7193 45.9212 70.306 45.75 69.875 45.75Z" fill="#11AEA7"/>
<path d="M17.875 52.25H11.375C10.944 52.25 10.5307 52.4212 10.226 52.726C9.92121 53.0307 9.75 53.444 9.75 53.875C9.75 54.306 9.92121 54.7193 10.226 55.024C10.5307 55.3288 10.944 55.5 11.375 55.5H17.875C18.306 55.5 18.7193 55.3288 19.024 55.024C19.3288 54.7193 19.5 54.306 19.5 53.875C19.5 53.444 19.3288 53.0307 19.024 52.726C18.7193 52.4212 18.306 52.25 17.875 52.25Z" fill="#11AEA7"/>
<path d="M53.625 52.25H27.625C27.194 52.25 26.7807 52.4212 26.476 52.726C26.1712 53.0307 26 53.444 26 53.875C26 54.306 26.1712 54.7193 26.476 55.024C26.7807 55.3288 27.194 55.5 27.625 55.5H53.625C54.056 55.5 54.4693 55.3288 54.774 55.024C55.0788 54.7193 55.25 54.306 55.25 53.875C55.25 53.444 55.0788 53.0307 54.774 52.726C54.4693 52.4212 54.056 52.25 53.625 52.25Z" fill="#11AEA7"/>
<path d="M69.875 52.25H66.625C66.194 52.25 65.7807 52.4212 65.476 52.726C65.1712 53.0307 65 53.444 65 53.875C65 54.306 65.1712 54.7193 65.476 55.024C65.7807 55.3288 66.194 55.5 66.625 55.5H69.875C70.306 55.5 70.7193 55.3288 71.024 55.024C71.3288 54.7193 71.5 54.306 71.5 53.875C71.5 53.444 71.3288 53.0307 71.024 52.726C70.7193 52.4212 70.306 52.25 69.875 52.25Z" fill="#11AEA7"/>
<path d="M17.875 58.75H11.375C10.944 58.75 10.5307 58.9212 10.226 59.226C9.92121 59.5307 9.75 59.944 9.75 60.375C9.75 60.806 9.92121 61.2193 10.226 61.524C10.5307 61.8288 10.944 62 11.375 62H17.875C18.306 62 18.7193 61.8288 19.024 61.524C19.3288 61.2193 19.5 60.806 19.5 60.375C19.5 59.944 19.3288 59.5307 19.024 59.226C18.7193 58.9212 18.306 58.75 17.875 58.75Z" fill="#11AEA7"/>
<path d="M53.625 58.75H27.625C27.194 58.75 26.7807 58.9212 26.476 59.226C26.1712 59.5307 26 59.944 26 60.375C26 60.806 26.1712 61.2193 26.476 61.524C26.7807 61.8288 27.194 62 27.625 62H53.625C54.056 62 54.4693 61.8288 54.774 61.524C55.0788 61.2193 55.25 60.806 55.25 60.375C55.25 59.944 55.0788 59.5307 54.774 59.226C54.4693 58.9212 54.056 58.75 53.625 58.75Z" fill="#11AEA7"/>
<path d="M69.875 58.75H66.625C66.194 58.75 65.7807 58.9212 65.476 59.226C65.1712 59.5307 65 59.944 65 60.375C65 60.806 65.1712 61.2193 65.476 61.524C65.7807 61.8288 66.194 62 66.625 62H69.875C70.306 62 70.7193 61.8288 71.024 61.524C71.3288 61.2193 71.5 60.806 71.5 60.375C71.5 59.944 71.3288 59.5307 71.024 59.226C70.7193 58.9212 70.306 58.75 69.875 58.75Z" fill="#11AEA7"/>
<path d="M17.875 65.25H11.375C10.944 65.25 10.5307 65.4212 10.226 65.726C9.92121 66.0307 9.75 66.444 9.75 66.875C9.75 67.306 9.92121 67.7193 10.226 68.024C10.5307 68.3288 10.944 68.5 11.375 68.5H17.875C18.306 68.5 18.7193 68.3288 19.024 68.024C19.3288 67.7193 19.5 67.306 19.5 66.875C19.5 66.444 19.3288 66.0307 19.024 65.726C18.7193 65.4212 18.306 65.25 17.875 65.25Z" fill="#11AEA7"/>
<path d="M53.625 65.25H27.625C27.194 65.25 26.7807 65.4212 26.476 65.726C26.1712 66.0307 26 66.444 26 66.875C26 67.306 26.1712 67.7193 26.476 68.024C26.7807 68.3288 27.194 68.5 27.625 68.5H53.625C54.056 68.5 54.4693 68.3288 54.774 68.024C55.0788 67.7193 55.25 67.306 55.25 66.875C55.25 66.444 55.0788 66.0307 54.774 65.726C54.4693 65.4212 54.056 65.25 53.625 65.25Z" fill="#11AEA7"/>
<path d="M69.875 65.25H66.625C66.194 65.25 65.7807 65.4212 65.476 65.726C65.1712 66.0307 65 66.444 65 66.875C65 67.306 65.1712 67.7193 65.476 68.024C65.7807 68.3288 66.194 68.5 66.625 68.5H69.875C70.306 68.5 70.7193 68.3288 71.024 68.024C71.3288 67.7193 71.5 67.306 71.5 66.875C71.5 66.444 71.3288 66.0307 71.024 65.726C70.7193 65.4212 70.306 65.25 69.875 65.25Z" fill="#11AEA7"/>
<path d="M17.875 71.75H11.375C10.944 71.75 10.5307 71.9212 10.226 72.226C9.92121 72.5307 9.75 72.944 9.75 73.375C9.75 73.806 9.92121 74.2193 10.226 74.524C10.5307 74.8288 10.944 75 11.375 75H17.875C18.306 75 18.7193 74.8288 19.024 74.524C19.3288 74.2193 19.5 73.806 19.5 73.375C19.5 72.944 19.3288 72.5307 19.024 72.226C18.7193 71.9212 18.306 71.75 17.875 71.75Z" fill="#11AEA7"/>
<path d="M55.25 73.375C55.25 72.944 55.0788 72.5307 54.774 72.226C54.4693 71.9212 54.056 71.75 53.625 71.75H27.625C27.194 71.75 26.7807 71.9212 26.476 72.226C26.1712 72.5307 26 72.944 26 73.375C26 73.806 26.1712 74.2193 26.476 74.524C26.7807 74.8288 27.194 75 27.625 75H53.625C54.056 75 54.4693 74.8288 54.774 74.524C55.0788 74.2193 55.25 73.806 55.25 73.375Z" fill="#11AEA7"/>
<path d="M69.875 71.75H66.625C66.194 71.75 65.7807 71.9212 65.476 72.226C65.1712 72.5307 65 72.944 65 73.375C65 73.806 65.1712 74.2193 65.476 74.524C65.7807 74.8288 66.194 75 66.625 75H69.875C70.306 75 70.7193 74.8288 71.024 74.524C71.3288 74.2193 71.5 73.806 71.5 73.375C71.5 72.944 71.3288 72.5307 71.024 72.226C70.7193 71.9212 70.306 71.75 69.875 71.75Z" fill="#11AEA7"/>
<path d="M69.875 23H53.625C53.194 23 52.7807 23.1712 52.476 23.476C52.1712 23.7807 52 24.194 52 24.625C52 25.056 52.1712 25.4693 52.476 25.774C52.7807 26.0788 53.194 26.25 53.625 26.25H69.875C70.306 26.25 70.7193 26.0788 71.024 25.774C71.3288 25.4693 71.5 25.056 71.5 24.625C71.5 24.194 71.3288 23.7807 71.024 23.476C70.7193 23.1712 70.306 23 69.875 23Z" fill="#11AEA7"/>
<path d="M69.875 29.5H45.5C45.069 29.5 44.6557 29.6712 44.351 29.976C44.0462 30.2807 43.875 30.694 43.875 31.125C43.875 31.556 44.0462 31.9693 44.351 32.274C44.6557 32.5788 45.069 32.75 45.5 32.75H69.875C70.306 32.75 70.7193 32.5788 71.024 32.274C71.3288 31.9693 71.5 31.556 71.5 31.125C71.5 30.694 71.3288 30.2807 71.024 29.976C70.7193 29.6712 70.306 29.5 69.875 29.5Z" fill="#11AEA7"/>
<path d="M69.875 36H45.5C45.069 36 44.6557 36.1712 44.351 36.476C44.0462 36.7807 43.875 37.194 43.875 37.625C43.875 38.056 44.0462 38.4693 44.351 38.774C44.6557 39.0788 45.069 39.25 45.5 39.25H69.875C70.306 39.25 70.7193 39.0788 71.024 38.774C71.3288 38.4693 71.5 38.056 71.5 37.625C71.5 37.194 71.3288 36.7807 71.024 36.476C70.7193 36.1712 70.306 36 69.875 36Z" fill="#11AEA7"/>
</svg>
