<svg width="104" height="104" viewBox="0 0 104 104" fill="none" xmlns="http://www.w3.org/2000/svg">
<path d="M13.7721 61.0044C13.7721 61.9022 13.0352 62.6399 12.1365 62.6399C11.2379 62.6399 10.501 61.903 10.501 61.0044V43.226C10.501 40.0947 11.7912 37.2387 13.8404 35.1888C15.913 33.1169 18.7454 31.8502 21.8776 31.8502H39.4487C40.3465 31.8502 41.0843 32.5636 41.0843 33.4614C41.0843 34.3592 40.3474 35.097 39.4487 35.097H21.8784C19.6449 35.097 17.6185 35.9948 16.1438 37.4687C14.6691 38.9425 13.7721 40.9697 13.7721 43.226V61.0044ZM22.6381 72.9562C21.7403 72.9562 21.0261 72.2201 21.0261 71.3215C21.0261 70.4229 21.7403 69.7095 22.6381 69.7095H38.39C39.2879 69.7095 40.002 70.4237 40.002 71.3215C40.002 72.2193 39.2879 72.9562 38.39 72.9562H22.6381ZM64.7354 72.9562C63.8384 72.9562 63.1006 72.2201 63.1006 71.3215C63.1006 70.4229 63.8375 69.7095 64.7354 69.7095H85.2087C87.4431 69.7095 89.515 70.6073 91.0352 72.082C92.5326 73.555 93.4767 75.5822 93.4767 77.8166V81.017C93.4767 81.914 92.7625 82.6518 91.8647 82.6518C90.9669 82.6518 90.2292 81.9149 90.2292 81.017V77.8166C90.2292 76.5036 89.6531 75.306 88.7553 74.4082C87.8347 73.5103 86.5689 72.957 85.2095 72.957H64.7354V72.9562ZM81.3396 91.0343C82.2374 91.0343 82.9752 91.7485 82.9752 92.6464C82.9752 93.5442 82.2382 94.2819 81.3396 94.2819H76.2737C75.3759 94.2819 74.6617 93.545 74.6617 92.6464C74.6617 91.7477 75.3759 91.0343 76.2737 91.0343H81.3396ZM69.0424 91.0343C69.9402 91.0343 70.678 91.7485 70.678 92.6464C70.678 93.5442 69.941 94.2819 69.0424 94.2819H45.553C44.6552 94.2819 43.941 93.545 43.941 92.6464C43.941 91.7477 44.6552 91.0343 45.553 91.0343H69.0424ZM65.3569 35.0962C64.4591 35.0962 63.7222 34.3592 63.7222 33.4606C63.7222 32.5628 64.4583 31.8494 65.3569 31.8494H81.3396C82.2374 31.8494 82.9752 32.5628 82.9752 33.4606C82.9752 34.3584 82.2382 35.0962 81.3396 35.0962H65.3569ZM93.4767 20.8644C93.4767 21.7622 92.7625 22.4764 91.8647 22.4764C90.9669 22.4764 90.2292 21.7622 90.2292 20.8644V18.6309C90.2292 17.2951 89.6759 16.0747 88.8008 15.1997C87.9265 14.3019 86.7062 13.7721 85.3696 13.7721H35.4423C34.5445 13.7721 33.8311 13.0352 33.8311 12.1374C33.8311 11.2395 34.5445 10.5018 35.4423 10.5018H85.3696C87.604 10.5018 89.6295 11.4232 91.1042 12.8962C92.5781 14.3701 93.4767 16.3973 93.4767 18.6309V20.8644ZM27.7504 10.501C28.6482 10.501 29.3859 11.2379 29.3859 12.1365C29.3859 13.0344 28.649 13.7713 27.7504 13.7713H22.6381C21.7403 13.7713 21.0261 13.0344 21.0261 12.1365C21.0261 11.2387 21.7403 10.501 22.6381 10.501H27.7504Z" fill="#38A59D"/>
<path d="M7.20857 14.6697C6.44807 14.1863 6.21814 13.1723 6.70157 12.4354C7.18582 11.6757 8.17545 11.4449 8.93595 11.9284L11.3304 13.4713L14.8079 7.71394C15.2678 6.9315 16.2809 6.70075 17.0414 7.16144C17.8019 7.62212 18.0546 8.61256 17.5948 9.395L13.2186 16.6035C12.7588 17.3404 11.7448 17.5704 10.9851 17.0869L7.20857 14.6697Z" fill="#38A59D"/>
<path d="M86.9131 35.0043C86.1762 34.5209 85.9463 33.5304 86.4297 32.7707C86.9131 32.0102 87.9028 31.8031 88.6624 32.2637L91.0577 33.8059L94.5352 28.0493C94.9959 27.2888 95.9855 27.0353 96.7687 27.496C97.5284 27.9567 97.7819 28.9471 97.3212 29.7304L92.9459 36.9389C92.4625 37.6986 91.4721 37.9057 90.7124 37.4231L86.9131 35.0043Z" fill="#38A59D"/>
<path d="M7.20857 74.0384C6.44807 73.5549 6.21814 72.5653 6.70157 71.8056C7.18582 71.0687 8.17545 70.8387 8.93595 71.3214L11.3304 72.8407L14.8079 67.0834C15.2678 66.3229 16.2809 66.0702 17.0414 66.5309C17.8019 66.9908 18.0546 68.0039 17.5948 68.7644L13.2186 75.9729C12.7588 76.7326 11.7448 76.9398 10.9851 76.4791L7.20857 74.0384Z" fill="#38A59D"/>
<path d="M84.586 79.7275H99.1175C101.789 79.7275 104 81.914 104 84.5863V99.117C104 101.789 101.789 104 99.1175 104H84.586C81.9145 104 79.728 101.789 79.728 99.117V84.5863C79.728 81.914 81.9145 79.7275 84.586 79.7275ZM99.1175 82.9743H84.586C83.6882 82.9743 82.9748 83.6885 82.9748 84.5863V99.117C82.9748 100.016 83.6882 100.753 84.586 100.753H99.1175C100.015 100.753 100.753 100.016 100.753 99.117V84.5863C100.753 83.6885 100.016 82.9743 99.1175 82.9743Z" fill="#38A59D"/>
<path d="M86.9131 94.3735C86.1762 93.9128 85.9463 92.8996 86.4297 92.1391C86.9131 91.403 87.9028 91.1723 88.6624 91.6557L91.0577 93.1759L94.5352 87.4413C94.9959 86.658 95.9855 86.4053 96.7687 86.8879C97.5284 87.3486 97.7819 88.3391 97.3212 89.0996L92.9459 96.3073C92.4625 97.0677 91.4721 97.2977 90.7124 96.8142L86.9131 94.3735Z" fill="#38A59D"/>
<path d="M53.3368 84.9088C54.051 84.3791 55.0641 84.518 55.5939 85.2306C56.122 85.9675 55.9847 86.9807 55.2478 87.5113L48.2692 92.6463L55.2478 97.8048C55.9847 98.3346 56.122 99.3478 55.5939 100.062C55.0641 100.798 54.051 100.937 53.3368 100.407L44.6089 93.9828C44.4935 93.8902 44.3546 93.7521 44.2628 93.614C43.7103 92.8998 43.872 91.8866 44.5853 91.3568L53.3368 84.9088Z" fill="#38A59D"/>
<path d="M57.3894 35.9483C58.4716 36.3172 59.4848 36.7779 60.4525 37.3304C61.4429 37.9056 62.3415 38.5507 63.1939 39.3112L67.5001 37.722C68.2598 37.4685 69.0658 37.7683 69.4574 38.4362C69.4574 38.4362 72.2199 43.2267 72.4734 43.6638C72.865 44.3552 72.7042 45.2067 72.1054 45.691L68.5824 48.6615C68.6742 49.0304 68.7205 49.3984 68.7895 49.7901C68.8814 50.5497 68.9277 51.2867 68.9277 52.0009C68.9277 52.7151 68.8814 53.452 68.7895 54.2117C68.7205 54.5806 68.6742 54.9722 68.5824 55.3411L72.1054 58.288C72.7505 58.8413 72.8659 59.7619 72.4044 60.4533C71.4147 62.1579 70.4479 63.8382 69.4574 65.542C69.0422 66.2562 68.1899 66.5332 67.453 66.2562L63.1939 64.6897C62.3415 65.4266 61.4429 66.0945 60.4525 66.6706C59.4856 67.2231 58.4716 67.6837 57.3894 68.0518L56.6061 72.5669C56.468 73.3493 55.7774 73.9018 54.9949 73.9018H52H48.9832C48.1772 73.9018 47.4866 73.2794 47.3712 72.4978L46.588 68.0518C45.5293 67.6837 44.5161 67.2222 43.5484 66.6706C42.558 66.0945 41.6374 65.4266 40.8087 64.6897L36.4789 66.2562C35.7184 66.556 34.8433 66.1871 34.498 65.4729C33.5075 63.7691 32.5171 62.0653 31.5275 60.3379C31.1367 59.6473 31.2975 58.7958 31.8955 58.2888L35.3966 55.3419C35.3275 54.973 35.2585 54.5814 35.2122 54.2125C35.1204 53.452 35.074 52.7151 35.074 52.0017C35.074 51.2883 35.1204 50.5506 35.2122 49.7909C35.2585 49.3992 35.3275 49.0312 35.3966 48.6623L31.8955 45.7146C31.2512 45.1621 31.1359 44.2407 31.5965 43.5492C32.5634 41.8446 33.5539 40.1408 34.5443 38.437C34.9351 37.7456 35.811 37.4474 36.5479 37.7456L40.8087 39.3121C41.6382 38.5516 42.558 37.9072 43.5484 37.3312C44.4934 36.7787 45.5293 36.318 46.588 35.9491L47.394 31.4357C47.5329 30.6524 48.2235 30.0991 48.9832 30.0991H52H54.9949C55.8245 30.0991 56.5143 30.6979 56.6061 31.5039L57.3894 35.9483ZM58.8397 40.14C57.8265 39.5647 56.7442 39.1032 55.6165 38.8042C54.9941 38.6661 54.4871 38.1591 54.3725 37.4912L53.6356 33.3459H52H50.3645L49.6284 37.4912C49.513 38.0901 49.075 38.6198 48.4543 38.7807C47.2794 39.1024 46.1736 39.5639 45.1604 40.1392C44.1245 40.738 43.2031 41.4522 42.3508 42.2809C41.9364 42.7416 41.2458 42.9025 40.6242 42.6953L36.6625 41.2442C36.11 42.1883 35.5575 43.1324 35.005 44.0766L38.2517 46.7936C38.7116 47.1852 38.9432 47.8303 38.7807 48.4519C38.6198 49.0279 38.5044 49.6267 38.4354 50.202C38.3435 50.7781 38.32 51.3533 38.32 51.9984C38.32 52.62 38.3427 53.2188 38.4354 53.7721C38.5044 54.3474 38.6198 54.9007 38.7571 55.4767C38.9424 56.0747 38.7571 56.7654 38.2509 57.1806L35.0269 59.8984C35.5559 60.8425 36.1092 61.8102 36.6617 62.7543L40.6234 61.304C41.1987 61.096 41.8665 61.2341 42.3272 61.6721C43.1795 62.5244 44.1237 63.2613 45.1596 63.8601C46.15 64.4354 47.2323 64.8952 48.3844 65.1951C49.006 65.3332 49.513 65.8402 49.6275 66.5081L50.3637 70.6534H52H53.6356L54.3725 66.5081C54.4879 65.9092 54.9259 65.3787 55.5474 65.2178C56.7207 64.8961 57.8265 64.4354 58.8397 63.8601C59.8537 63.2613 60.7978 62.5471 61.6274 61.7176C62.0645 61.2569 62.7324 61.0724 63.3547 61.3032L67.3376 62.7535C67.8909 61.8094 68.4207 60.8652 68.9732 59.8976L65.7484 57.1797C65.2885 56.7881 65.0577 56.1666 65.2194 55.545C65.3803 54.9462 65.4957 54.3701 65.5647 53.7713C65.6338 53.218 65.6801 52.6192 65.6801 51.9976C65.6801 51.3533 65.6338 50.7772 65.5647 50.2012C65.4957 49.6487 65.3803 49.0734 65.243 48.5201C65.0585 47.9213 65.2202 47.2307 65.7492 46.7927L68.974 44.0757C68.445 43.1316 67.8917 42.1875 67.3384 41.2434L63.3555 42.6945C62.8022 42.9017 62.1344 42.7636 61.6745 42.3029C60.8205 41.4757 59.8764 40.7388 58.8397 40.14ZM52 42.3045C54.6724 42.3045 57.0895 43.3867 58.8624 45.1369C60.6134 46.887 61.6956 49.3286 61.6956 51.9992C61.6956 54.6716 60.6134 57.0887 58.8624 58.8624C57.0887 60.6126 54.6724 61.6948 52 61.6948C49.3294 61.6948 46.8878 60.6126 45.1377 58.8624C43.3875 57.0887 42.3053 54.6716 42.3053 51.9992C42.3053 49.3277 43.3875 46.887 45.1377 45.1369C46.8878 43.3867 49.3294 42.3045 52 42.3045ZM56.5598 47.4403C55.3857 46.2654 53.7737 45.5521 52 45.5521C50.2264 45.5521 48.6152 46.2654 47.4403 47.4403C46.2662 48.6152 45.5529 50.2264 45.5529 52.0001C45.5529 53.7737 46.2662 55.3857 47.4403 56.5598C48.6152 57.7339 50.2272 58.4481 52 58.4481C53.7745 58.4481 55.3857 57.7339 56.5598 56.5598C57.7339 55.3866 58.448 53.7737 58.448 52.0001C58.4489 50.2264 57.7347 48.6144 56.5598 47.4403Z" fill="#38A59D"/>
<path d="M4.88231 59.3921H19.3903C22.0618 59.3921 24.2734 61.5802 24.2734 64.2517V78.7832C24.2734 81.4539 22.0618 83.642 19.3903 83.642H4.88231C2.21081 83.642 0 81.4539 0 78.7832V64.2517C0 61.5802 2.21081 59.3921 4.88231 59.3921ZM19.3903 62.6397H4.88231C3.9845 62.6397 3.24756 63.3538 3.24756 64.2517V78.7832C3.24756 79.681 3.98369 80.3952 4.88231 80.3952H19.3903C20.2881 80.3952 21.0259 79.681 21.0259 78.7832V64.2517C21.0259 63.3538 20.2889 62.6397 19.3903 62.6397Z" fill="#38A59D"/>
<path d="M84.586 20.3345H99.1175C101.789 20.3345 104 22.5453 104 25.216V39.7475C104 42.419 101.789 44.6063 99.1175 44.6063H84.586C81.9145 44.6063 79.728 42.4182 79.728 39.7475V25.2168C79.728 22.5453 81.9145 20.3345 84.586 20.3345ZM99.1175 23.5812H84.586C83.6882 23.5812 82.9748 24.3182 82.9748 25.216V39.7475C82.9748 40.6453 83.6882 41.3595 84.586 41.3595H99.1175C100.015 41.3595 100.753 40.6453 100.753 39.7475V25.2168C100.753 24.319 100.016 23.5812 99.1175 23.5812Z" fill="#38A59D"/>
<path d="M4.88231 0H19.3903C22.0618 0 24.2734 2.21081 24.2734 4.8815V19.3903C24.2734 22.0618 22.0618 24.2726 19.3903 24.2726H4.88231C2.21081 24.2726 0 22.0618 0 19.3903V4.8815C0 2.21081 2.21081 0 4.88231 0ZM19.3903 3.24675H4.88231C3.9845 3.24675 3.24756 3.98369 3.24756 4.8815V19.3903C3.24756 20.2881 3.98369 21.0251 4.88231 21.0251H19.3903C20.2881 21.0251 21.0259 20.2889 21.0259 19.3903V4.8815C21.0259 3.98369 20.2889 3.24675 19.3903 3.24675Z" fill="#38A59D"/>
</svg>
