<svg width="84" height="85" viewBox="0 0 84 85" fill="none" xmlns="http://www.w3.org/2000/svg">
<path fill-rule="evenodd" clip-rule="evenodd" d="M71.0064 76.0979C70.5368 76.0979 70.1548 75.7168 70.1548 75.2465V67.2876C70.1548 66.8172 70.5362 66.436 71.0064 66.436C71.4768 66.436 71.858 66.8173 71.858 67.2877V75.2463C71.858 75.7167 71.4767 76.0981 71.0064 76.0979Z" fill="white"/>
<path fill-rule="evenodd" clip-rule="evenodd" d="M46.8151 76.0979C46.3455 76.0979 45.9634 75.7168 45.9634 75.2465L45.9635 67.2876C45.9635 66.8172 46.3449 66.436 46.8151 66.436C47.2855 66.436 47.6666 66.8173 47.6666 67.2877L47.6667 75.2463C47.6667 75.7167 47.2853 76.0981 46.8151 76.0979Z" fill="white"/>
<path fill-rule="evenodd" clip-rule="evenodd" d="M40.443 74.2421H5.66194C5.1915 74.2421 4.81006 73.8611 4.81006 73.3908L4.8103 10.2808C4.8103 9.8104 5.1915 9.4293 5.6616 9.4293L55.8176 9.4292C56.288 9.4292 56.6693 9.81065 56.6693 10.281V26.2538C56.6693 26.7242 56.2879 27.1056 55.8176 27.1056C55.3466 27.1055 54.966 26.7243 54.966 26.254V11.1324H6.51367V72.5388H40.4431C40.9128 72.5388 41.2942 72.9204 41.2942 73.3907C41.2948 73.8608 40.9132 74.2421 40.443 74.2421Z" fill="white"/>
<path fill-rule="evenodd" clip-rule="evenodd" d="M11.9113 28.1394H21.9519V19.1344H11.9113V28.1394ZM22.8036 29.8427H11.0597C10.59 29.8427 10.208 29.4616 10.208 28.9911L10.2081 18.2828C10.2081 17.8125 10.5895 17.4313 11.0597 17.4313L22.8036 17.4312C23.2739 17.4312 23.6552 17.8126 23.6552 18.2829V28.9911C23.6552 29.4614 23.2738 29.8427 22.8036 29.8427Z" fill="white"/>
<path fill-rule="evenodd" clip-rule="evenodd" d="M49.4914 21.8885H28.5287C28.0583 21.8885 27.6782 21.5076 27.6782 21.0371C27.6784 20.5668 28.0581 20.1856 28.5283 20.1856L49.4915 20.1855C49.9612 20.1855 50.3425 20.5668 50.3425 21.0371C50.3431 21.5076 49.9616 21.8885 49.4914 21.8885Z" fill="white"/>
<path fill-rule="evenodd" clip-rule="evenodd" d="M44.0651 27.0885H33.9567C33.4863 27.0885 33.1045 26.7072 33.1045 26.2369C33.105 25.7665 33.4859 25.3853 33.9561 25.3853H44.0651C44.5356 25.3853 44.9164 25.7666 44.9164 26.2369C44.9168 26.7069 44.535 27.0885 44.0651 27.0885Z" fill="white"/>
<path fill-rule="evenodd" clip-rule="evenodd" d="M11.9113 46.338H21.9519V37.3334H11.9113V46.338ZM22.8036 48.0413H11.0597C10.59 48.0413 10.208 47.6602 10.208 47.1899L10.2081 36.4818C10.2081 36.0114 10.5895 35.6303 11.0597 35.6303L22.8036 35.6301C23.2739 35.6301 23.6552 36.0115 23.6552 36.4818V47.1896C23.6552 47.6601 23.2738 48.0415 22.8036 48.0413Z" fill="white"/>
<path fill-rule="evenodd" clip-rule="evenodd" d="M48.9898 40.0878H28.5287C28.0583 40.0878 27.6782 39.7064 27.6782 39.2361C27.6784 38.7657 28.0581 38.3845 28.5283 38.3845H48.9897C49.46 38.3845 49.8411 38.7658 49.8411 39.2361C49.8413 39.7062 49.4598 40.0878 48.9898 40.0878Z" fill="white"/>
<path fill-rule="evenodd" clip-rule="evenodd" d="M44.0651 45.287H33.9567C33.4863 45.287 33.1045 44.906 33.1045 44.4356C33.105 43.9653 33.4859 43.584 33.9561 43.584L44.0651 43.5837C44.5356 43.5837 44.9164 43.9653 44.9164 44.4356C44.9168 44.9058 44.535 45.2873 44.0651 45.287Z" fill="white"/>
<path fill-rule="evenodd" clip-rule="evenodd" d="M11.9113 64.537H21.9519V55.5324H11.9113V64.537ZM22.8036 66.2403H11.0597C10.59 66.2403 10.208 65.8592 10.208 65.3888L10.2081 54.6807C10.2081 54.2104 10.5895 53.8292 11.0597 53.8292L22.8036 53.8291C23.2739 53.8291 23.6552 54.2105 23.6552 54.6808V65.3886C23.6552 65.859 23.2738 66.2405 22.8036 66.2403Z" fill="white"/>
<path fill-rule="evenodd" clip-rule="evenodd" d="M40.172 58.2865H28.5287C28.0583 58.2865 27.6782 57.9053 27.6782 57.435C27.6784 56.9645 28.0581 56.5834 28.5283 56.5834L40.172 56.5833C40.6424 56.5833 41.0232 56.9647 41.0232 57.435C41.0236 57.9052 40.6419 58.2866 40.172 58.2865Z" fill="white"/>
<path fill-rule="evenodd" clip-rule="evenodd" d="M40.7857 63.486H33.9567C33.4863 63.486 33.1045 63.1048 33.1045 62.6346C33.105 62.1639 33.4859 61.7829 33.9561 61.7829L40.7857 61.7827C41.2561 61.7827 41.6371 62.1642 41.6371 62.6346C41.6373 63.1047 41.2556 63.4861 40.7857 63.486Z" fill="white"/>
<path fill-rule="evenodd" clip-rule="evenodd" d="M41.2044 62.3545C40.9855 62.3545 40.768 62.2715 40.6008 62.1052L39.4639 60.9676C38.3541 59.8568 38.3536 58.0499 39.4639 56.9392L41.694 54.7092C42.2303 54.1726 42.9458 53.8772 43.7087 53.8772C44.4705 53.8771 45.1858 54.1728 45.7225 54.7092L46.8078 55.794C47.1404 56.1266 47.1403 56.666 46.8076 56.9985C46.4751 57.3309 45.9354 57.331 45.6027 56.9985L44.5191 55.9134C44.3035 55.6988 44.0162 55.5804 43.7087 55.5804C43.4013 55.5804 43.1129 55.6989 42.8985 55.9136L40.6694 58.1433C40.2223 58.59 40.2223 59.3168 40.6689 59.7635L41.8058 60.9008C42.1384 61.2331 42.1384 61.7726 41.8058 62.1052C41.6389 62.2713 41.4214 62.3546 41.2044 62.3545Z" fill="white"/>
<path fill-rule="evenodd" clip-rule="evenodd" d="M76.6178 62.3546C76.4002 62.3546 76.1826 62.2716 76.0155 62.1052C75.683 61.7724 75.6828 61.2335 76.0155 60.9008L77.1527 59.7634C77.3689 59.5486 77.4866 59.261 77.4866 58.9534C77.4867 58.646 77.3683 58.3584 77.1525 58.1437L74.9231 55.9135C74.4766 55.467 73.7504 55.467 73.3023 55.9137L72.2192 56.9983C71.8865 57.331 71.3463 57.3312 71.0136 56.9987C70.681 56.666 70.681 56.1268 71.0136 55.7943L72.0994 54.7092C73.2099 53.5984 75.0175 53.5987 76.1279 54.7092L78.3576 56.9391C78.8945 57.4757 79.1899 58.191 79.1899 58.9534C79.1899 59.7158 78.8942 60.4314 78.3575 60.9679L77.2205 62.1051C77.0535 62.2714 76.836 62.3547 76.6178 62.3546Z" fill="white"/>
<path fill-rule="evenodd" clip-rule="evenodd" d="M49.3224 37.3176H68.6305C69.1554 36.5085 70.3987 34.3495 70.5243 31.9036C69.4289 31.3538 66.9671 29.902 65.8907 27.5084C65.1754 27.5348 63.97 27.5263 62.7281 27.2763C60.7975 26.8878 59.6469 26.1096 58.9771 25.2312C58.3079 26.1093 57.157 26.8878 55.2261 27.2763C53.9831 27.5262 52.7776 27.5352 52.0635 27.5084C50.9872 29.9017 48.5253 31.3541 47.4298 31.9036C47.556 34.3488 48.7974 36.5074 49.3224 37.3176ZM69.0802 39.0208H48.8747C48.6072 39.0208 48.3553 38.8953 48.1942 38.6818C48.091 38.5438 45.6511 35.2615 45.7176 31.3506C45.7237 31.0105 45.9321 30.7066 46.2455 30.5774C46.2812 30.563 49.8102 29.0745 50.684 26.358C50.8068 25.9736 51.1838 25.7289 51.5844 25.7721C51.6452 25.778 57.7529 26.3759 58.1299 22.8654C58.1774 22.4327 58.5423 22.1047 58.977 22.1047C59.4123 22.1046 59.7769 22.4327 59.8243 22.8654C60.2014 26.3758 66.3076 25.7781 66.3696 25.7719C66.7708 25.7291 67.146 25.9745 67.2701 26.358C68.1487 29.089 71.6716 30.5629 71.7072 30.5774C72.0224 30.7065 72.2306 31.0106 72.235 31.3507C72.3031 35.2614 69.8634 38.544 69.76 38.6818C69.5992 38.8951 69.3474 39.0208 69.0802 39.0208Z" fill="white"/>
<path fill-rule="evenodd" clip-rule="evenodd" d="M58.9772 46.0595C56.1064 46.0595 53.3958 45.2732 51.3466 43.8452C49.2029 42.3516 48.0229 40.3359 48.0229 38.169C48.0232 37.6986 48.4044 37.3174 48.8745 37.3174C49.3453 37.3174 49.7262 37.6987 49.7262 38.169C49.7265 41.5808 53.8763 44.3564 58.9772 44.3564C64.0785 44.3563 68.2283 41.5808 68.2283 38.169C68.2288 37.6986 68.6098 37.3174 69.08 37.3174C69.5509 37.3174 69.9316 37.6987 69.9316 38.169C69.9321 40.3357 68.7504 42.3517 66.6079 43.8452C64.5574 45.2731 61.8486 46.0597 58.9772 46.0595Z" fill="white"/>
<path fill-rule="evenodd" clip-rule="evenodd" d="M57.2714 31.5017L57.7964 32.0513C57.9753 32.2386 58.0591 32.4975 58.0251 32.7544L57.9222 33.5077L58.6081 33.1777C58.8417 33.0653 59.1133 33.0655 59.3469 33.178L60.0319 33.5077L59.9295 32.7542C59.8941 32.4974 59.9783 32.2387 60.1572 32.0514L60.6839 31.5017L59.9354 31.366C59.6799 31.3198 59.4608 31.1599 59.3381 30.9315L58.9773 30.2619L58.6167 30.9315C58.4943 31.1597 58.2736 31.3199 58.0192 31.3661L57.2714 31.5017ZM56.8662 35.8138C56.6886 35.8138 56.5126 35.7589 56.3647 35.6512C56.1124 35.4668 55.9803 35.1585 56.0217 34.8479L56.2821 32.9319L54.9454 31.5346C54.7285 31.3081 54.6542 30.9812 54.7503 30.6832C54.8482 30.385 55.1006 30.1642 55.4082 30.1083L57.3113 29.7632L58.2282 28.0606C58.3759 27.7845 58.6638 27.6127 58.9773 27.6127C59.2908 27.6127 59.579 27.7848 59.7268 28.0608L60.644 29.7632L62.5456 30.1082C62.8542 30.1641 63.1068 30.3851 63.2029 30.6831C63.3006 30.9811 63.225 31.3084 63.0092 31.5348L61.6727 32.9318L61.9334 34.8477C61.9747 35.1581 61.8426 35.467 61.5883 35.6512C61.3359 35.8354 61.0014 35.8657 60.719 35.7296L58.9773 34.8902L57.2361 35.7296C57.1178 35.7858 56.9915 35.8139 56.8662 35.8138Z" fill="white"/>
<path fill-rule="evenodd" clip-rule="evenodd" d="M52.0019 34.1584C51.8582 34.1584 51.7117 34.122 51.5786 34.045C51.1709 33.8101 51.0302 33.2897 51.2652 32.882C52.8549 30.1192 50.8823 27.2294 50.7981 27.1077C50.5295 26.7226 50.6222 26.1919 51.0065 25.9226C51.3912 25.6531 51.9203 25.7444 52.1908 26.1278C52.302 26.2848 54.8789 30.016 52.7407 33.7316C52.5847 34.0054 52.2972 34.1586 52.0019 34.1584Z" fill="white"/>
<path fill-rule="evenodd" clip-rule="evenodd" d="M65.9522 34.1585C65.6574 34.1585 65.3706 34.0054 65.2138 33.7316C63.0746 30.0161 65.6529 26.2849 65.7637 26.1279C66.0347 25.7433 66.5667 25.6518 66.951 25.9231C67.3341 26.1937 67.4257 26.7239 67.1565 27.1081C67.0699 27.234 65.0999 30.1216 66.6893 32.8821C66.9248 33.2895 66.784 33.8104 66.3758 34.045C66.2429 34.1219 66.0971 34.1585 65.9522 34.1585Z" fill="white"/>
<path fill-rule="evenodd" clip-rule="evenodd" d="M47.2439 35.9039C46.8966 35.9039 46.5692 35.6902 46.4436 35.3451C46.2812 34.9035 46.5086 34.4144 46.9492 34.2525L51.7103 32.507C52.1507 32.3446 52.6401 32.5722 52.8027 33.0135C52.9645 33.4551 52.7376 33.9444 52.2956 34.1063L47.5367 35.8513C47.4401 35.8869 47.341 35.9039 47.2439 35.9039Z" fill="white"/>
<path fill-rule="evenodd" clip-rule="evenodd" d="M70.7112 35.9039C70.6135 35.9039 70.5143 35.8871 70.4182 35.8516L65.6574 34.1062C65.2169 33.9442 64.989 33.4552 65.1517 33.0136C65.3134 32.5719 65.8023 32.345 66.2443 32.5073L71.004 34.2525C71.4458 34.4142 71.6719 34.9038 71.5109 35.3452C71.3839 35.69 71.0583 35.904 70.7112 35.9039Z" fill="white"/>
<path fill-rule="evenodd" clip-rule="evenodd" d="M77.379 76.098H40.443C39.9726 76.098 39.5908 75.7169 39.5908 75.2466L39.5914 65.0175C39.5914 58.9077 45.5507 53.9371 52.8753 53.9371L53.1164 53.937C53.5867 53.937 53.968 54.3184 53.968 54.7887C53.968 55.2587 53.5866 55.6404 53.1164 55.6404L52.8755 55.6403C46.4896 55.6403 41.2941 59.847 41.2941 65.0177L41.2947 74.3947H76.5275V65.0175C76.5275 59.8469 71.3318 55.6403 64.946 55.6403L64.7051 55.6403C64.2354 55.6403 63.8533 55.259 63.8533 54.7887C63.8535 54.3183 64.2349 53.9371 64.7051 53.9371L64.946 53.937C72.2707 53.937 78.2305 58.9079 78.2305 65.0177L78.2307 75.2463C78.2307 75.7168 77.849 76.0982 77.379 76.098Z" fill="white"/>
<path fill-rule="evenodd" clip-rule="evenodd" d="M53.1162 55.6405C52.6465 55.6405 52.2646 55.2592 52.2646 54.7889V50.9149C52.2646 50.4445 52.646 50.0635 53.1162 50.0635C53.5866 50.0633 53.9679 50.4447 53.9679 50.9151V54.7888C53.9679 55.2589 53.5864 55.6405 53.1162 55.6405Z" fill="white"/>
<path fill-rule="evenodd" clip-rule="evenodd" d="M64.7053 55.6403C64.2356 55.6403 63.8535 55.259 63.8535 54.7887L63.8537 51.0628C63.8537 50.5923 64.2351 50.2112 64.7053 50.2112C65.1757 50.2111 65.5567 50.5925 65.5567 51.0628L65.5569 54.7886C65.5569 55.2587 65.1754 55.6403 64.7053 55.6403Z" fill="white"/>
<path fill-rule="evenodd" clip-rule="evenodd" d="M58.9807 55.43C56.664 55.43 54.4058 54.0824 52.6241 51.635C50.7691 49.0857 49.4321 45.3811 48.7593 40.9212C48.6886 40.456 49.0091 40.0222 49.4735 39.952C49.9409 39.8815 50.3723 40.202 50.4433 40.667C51.0765 44.8575 52.3063 48.3037 54.0006 50.6326C55.4751 52.6565 57.1972 53.7268 58.9804 53.7268C62.0171 53.7261 66.0816 50.294 67.5365 40.6242C67.6061 40.1589 68.0391 39.8379 68.5048 39.9087C68.9707 39.9786 69.2916 40.4125 69.2205 40.8774C68.5483 45.3482 67.2098 49.0632 65.3512 51.6208C63.5655 54.0764 61.3019 55.4294 58.9807 55.43C58.9808 55.4299 58.9803 55.4301 58.9807 55.43Z" fill="white"/>
<path fill-rule="evenodd" clip-rule="evenodd" d="M51.8675 57.501L55.9986 61.3802L57.6999 59.1847L53.2442 55.9348L51.8675 57.501ZM56.0972 63.4937C55.8816 63.4937 55.6728 63.4117 55.5146 63.2628L50.1018 58.1783C49.7665 57.8643 49.741 57.341 50.0441 56.9959L52.4764 54.2269C52.7678 53.8959 53.2613 53.8414 53.6177 54.1007L59.4125 58.325C59.5988 58.4608 59.721 58.6661 59.7536 58.8941C59.7863 59.1218 59.7255 59.3533 59.5835 59.5353L56.7704 63.1637C56.6241 63.3533 56.4031 63.4723 56.1637 63.4911C56.1417 63.4927 56.1193 63.4937 56.0972 63.4937Z" fill="white"/>
<path fill-rule="evenodd" clip-rule="evenodd" d="M60.1213 59.1846L61.8234 61.3801L65.9544 57.5009L64.5791 55.9347L60.1213 59.1846ZM61.7241 63.4936C61.7022 63.4936 61.6798 63.4928 61.6574 63.491C61.4181 63.4719 61.1977 63.3535 61.0514 63.1638L58.2378 59.5352C58.0962 59.3532 58.0351 59.122 58.0676 58.894C58.1008 58.6659 58.2229 58.4609 58.4092 58.3252L64.2039 54.1004C64.5605 53.8409 65.0537 53.8959 65.3449 54.2269L67.7774 56.9956C68.0808 57.3409 68.0551 57.8642 67.7193 58.1785L62.307 63.2628C62.1487 63.4114 61.9399 63.4936 61.7241 63.4936Z" fill="white"/>
<path fill-rule="evenodd" clip-rule="evenodd" d="M59.4523 64.0494H58.3699C58.0624 64.0494 57.7782 63.8833 57.6274 63.6151L56.4909 61.5939C56.26 61.1841 56.4061 60.6649 56.8157 60.4345C57.2268 60.2037 57.7456 60.3495 57.9762 60.7596L58.8682 62.3461H58.954L59.8456 60.7596C60.0764 60.3494 60.5947 60.2039 61.0058 60.4345C61.4158 60.6648 61.5617 61.1841 61.3309 61.5941L60.1942 63.6149C60.0438 63.883 59.7594 64.0494 59.4523 64.0494Z" fill="white"/>
<path fill-rule="evenodd" clip-rule="evenodd" d="M56.1283 76.0985C56.0764 76.0985 56.0232 76.0938 55.9714 76.0841C55.5089 75.9977 55.204 75.5534 55.2899 75.091L57.5315 63.042C57.6187 62.5792 58.0621 62.2742 58.5248 62.3606C58.6733 62.3877 58.8028 62.4514 58.9107 62.5403C59.0193 62.4512 59.1488 62.3879 59.2966 62.3606C59.7598 62.2745 60.2029 62.5795 60.2903 63.042L62.5322 75.0909C62.6174 75.5533 62.3129 75.998 61.8501 76.0841C61.3892 76.1701 60.9436 75.8651 60.858 75.4026L58.9108 64.9425L56.964 75.4026C56.8882 75.8121 56.5304 76.0985 56.1283 76.0985Z" fill="white"/>
<path fill-rule="evenodd" clip-rule="evenodd" d="M15.7438 26.356C15.5249 26.356 15.3076 26.2731 15.142 26.107L13.7817 24.7473C13.4491 24.4145 13.4491 23.8756 13.7817 23.5429C14.1144 23.2103 14.654 23.2104 14.9852 23.5429L15.7438 24.3002L18.8768 21.1671C19.2095 20.8344 19.7475 20.8347 20.0802 21.1674C20.4131 21.4997 20.4129 22.0392 20.0802 22.3718L16.3459 26.1065C16.1803 26.2729 15.9611 26.3563 15.7438 26.356Z" fill="#11AEA7"/>
<path fill-rule="evenodd" clip-rule="evenodd" d="M15.7438 44.555C15.5249 44.555 15.3076 44.4721 15.142 44.3057L13.7817 42.9463C13.4491 42.6136 13.4491 42.0745 13.7817 41.7419C14.1144 41.4093 14.654 41.4093 14.9852 41.7419L15.7438 42.4992L18.8768 39.3661C19.2095 39.0334 19.7475 39.0337 20.0802 39.3663C20.4131 39.6988 20.4129 40.2381 20.0802 40.5707L16.3459 44.3055C16.1803 44.4719 15.9611 44.5552 15.7438 44.555Z" fill="#11AEA7"/>
<path fill-rule="evenodd" clip-rule="evenodd" d="M15.7438 62.7538C15.5249 62.7538 15.3076 62.6708 15.142 62.5045L13.7817 61.1447C13.4491 60.812 13.4491 60.273 13.7817 59.9405C14.1144 59.6077 14.654 59.6079 14.9867 59.9404L15.7438 60.6976L18.8768 57.5649C19.2095 57.2322 19.7475 57.2323 20.0802 57.565C20.4131 57.8975 20.4129 58.4367 20.0802 58.7694L16.3459 62.5043C16.1803 62.6706 15.9611 62.7538 15.7438 62.7538Z" fill="#11AEA7"/>
</svg>
