<svg width="84" height="89" viewBox="0 0 84 89" fill="none" xmlns="http://www.w3.org/2000/svg">
<g clip-path="url(#clip0_594_17756)">
<path d="M78.5806 18.3779C78.5806 25.1123 73.1216 30.5713 66.3872 30.5713C59.6528 30.5713 54.1938 25.1123 54.1938 18.3779C54.1938 11.6435 59.6528 6.18457 66.3872 6.18457C73.1216 6.18457 78.5806 11.6435 78.5806 18.3779Z" fill="#11AEA7"/>
<path d="M66.3871 51.2639C66.3871 53.7446 64.5632 55.7639 62.3226 55.7639C60.0819 55.7639 58.2581 53.7446 58.2581 51.2639V49.7639H43.3548V37.7639H42C39.7594 37.7639 37.9355 35.7446 37.9355 33.2639C37.9355 30.7832 39.7594 28.7639 42 28.7639H43.3548V13.7639H28.3147C27.6862 10.3457 24.9494 7.76392 21.6774 7.76392C18.4054 7.76392 15.6686 10.3457 15.0402 13.7639H9.48387C4.2557 13.7639 0 18.4741 0 24.2639V78.2639C0 84.0537 4.2557 88.7639 9.48387 88.7639H74.5161C79.7443 88.7639 84 84.0537 84 78.2639V49.7639H66.3871V51.2639ZM2.70968 24.2639C2.70968 20.1287 5.7488 16.7639 9.48387 16.7639H17.6129V15.2639C17.6129 12.7832 19.4368 10.7639 21.6774 10.7639C23.9181 10.7639 25.7419 12.7832 25.7419 15.2639V16.7639H40.6452V25.9155C37.5577 26.6113 35.2258 29.6428 35.2258 33.2639C35.2258 36.885 37.5577 39.9165 40.6452 40.6123V49.7639H28.3147C27.6849 46.3457 24.9494 43.7639 21.6774 43.7639C18.4054 43.7639 15.6686 46.3457 15.0402 49.7639H2.70968V24.2639ZM40.6452 85.7639H9.48387C5.7488 85.7639 2.70968 82.3992 2.70968 78.2639V52.7639H17.6129V51.2639C17.6129 48.7832 19.4368 46.7639 21.6774 46.7639C23.9181 46.7639 25.7419 48.7832 25.7419 51.2639V52.7639H40.6452V61.9155C37.5577 62.6113 35.2258 65.6428 35.2258 69.2639C35.2258 72.885 37.5577 75.9165 40.6452 76.6123V85.7639ZM68.9598 52.7639H81.2903V78.2639C81.2903 82.3992 78.2512 85.7639 74.5161 85.7639H43.3548V73.7639H42C39.7594 73.7639 37.9355 71.7446 37.9355 69.2639C37.9355 66.7832 39.7594 64.7639 42 64.7639H43.3548V52.7639H55.6853C56.3151 56.1821 59.0506 58.7639 62.3226 58.7639C65.5946 58.7639 68.3314 56.1821 68.9598 52.7639Z" fill="white"/>
<path d="M55.7465 32.3824C56.0786 32.6345 56.3359 32.9434 56.5298 33.2808H54.1939V35.9904H56.9035V40.0602C56.9035 42.2988 58.7274 44.1193 60.968 44.1193H71.8065C74.0471 44.1193 75.871 42.2955 75.871 40.0549V35.9904H78.5806V33.2808H76.2421C76.4333 32.9474 76.6866 32.6424 77.0115 32.3963C81.453 29.0351 83.9999 23.9261 83.9999 18.3778C83.9999 13.5453 82.0814 9.0363 78.5998 5.68564C75.1175 2.33564 70.5357 0.582581 65.6946 0.779056C56.5754 1.12835 48.9876 8.84114 48.7799 17.9716C48.6516 23.5887 51.2567 28.9768 55.7465 32.3824ZM73.1613 40.0549C73.1613 40.8011 72.5547 41.4097 71.8065 41.4097H60.968C60.2205 41.4097 59.6132 40.8044 59.6132 40.0602V35.9904H73.1613V40.0549ZM65.7965 3.48538C65.9969 3.47877 66.1934 3.4748 66.3912 3.4748C70.2691 3.4748 73.9175 4.94075 76.7191 7.63848C79.6675 10.4751 81.2902 14.2875 81.2902 18.3778C81.2902 23.0694 79.135 27.3912 75.3781 30.2351C74.3442 31.0183 73.6423 32.0887 73.3373 33.2808H59.4359C59.1296 32.0887 58.4237 31.0144 57.3845 30.2258C53.5284 27.2992 51.3784 22.8557 51.4882 18.0338C51.6629 10.3084 58.0824 3.78241 65.7965 3.48538Z" fill="white"/>
<path d="M71.2143 14.552H69.2238C69.119 14.1617 68.9619 13.7714 68.7 13.4368H71.2143C71.6333 13.4368 72 13.0464 72 12.6003C72 12.1543 71.6333 11.7639 71.2143 11.7639H64.8238H61.7857C61.3667 11.7639 61 12.1543 61 12.6003C61 13.0464 61.3667 13.4368 61.7857 13.4368H64.8238C66.4476 13.4368 67.181 13.8829 67.5476 14.552H61.7857C61.3667 14.552 61 14.9424 61 15.3885C61 15.8345 61.3667 16.2249 61.7857 16.2249H67.8095C67.7571 17.3959 67.2857 18.4554 64.8238 18.4554H61.7857C61.4714 18.4554 61.1571 18.6784 61.0524 18.9572C60.9476 19.2918 61 19.6264 61.2095 19.8494L67.4952 26.5409C67.6524 26.7082 67.8619 26.7639 68.0714 26.7639C68.281 26.7639 68.4905 26.7082 68.6476 26.5409C68.9619 26.2063 68.9619 25.7044 68.6476 25.3699L63.7238 20.1282H64.8238C68.5952 20.1282 69.3286 17.7862 69.381 16.2249H71.2143C71.6333 16.2249 72 15.8345 72 15.3885C72 14.9424 71.6333 14.552 71.2143 14.552Z" fill="white"/>
</g>
<defs>
<clipPath id="clip0_594_17756">
<rect width="84" height="88" fill="white" transform="translate(0 0.763916)"/>
</clipPath>
</defs>
</svg>
