<svg width="98" height="103" viewBox="0 0 98 103" fill="none" xmlns="http://www.w3.org/2000/svg">
<path d="M79.692 25.9472C79.692 32.2441 76.5902 37.8178 71.827 41.2161V47.8522C67.5561 47.8522 54.3194 47.8522 50.0784 47.8522V41.2161C45.3192 37.8178 42.2134 32.2441 42.2134 25.9472C42.2134 15.6 50.6024 7.21094 60.9537 7.21094C71.3029 7.21094 79.692 15.6 79.692 25.9472Z" fill="#5EE5AE"/>
<path d="M4.60078 94.0793C6.58125 94.0793 8.18797 95.6861 8.18797 97.6665C8.18797 99.647 6.58125 101.252 4.60078 101.252C2.62031 101.252 1.01562 99.647 1.01562 97.6665C1.01562 95.6861 2.62031 94.0793 4.60078 94.0793Z" fill="#8BF2CF"/>
<path d="M91.7476 3.42065C94.112 3.42065 96.0275 5.33612 96.0275 7.7005C96.0275 10.0649 94.112 11.9803 91.7476 11.9803C89.3832 11.9803 87.4678 10.0649 87.4678 7.7005C87.4678 5.33612 89.3832 3.42065 91.7476 3.42065Z" fill="#8BF2CF"/>
<path d="M32.9551 89.0785L35.1793 91.8755L25.2343 100.545L5.79932 77.9127L16.9387 68.9346L18.6713 71.1121L32.9551 89.0785Z" fill="#ED3748"/>
<path d="M46.0973 66.4016C52.6258 69.5947 60.0683 70.655 68.2522 69.9826C71.0715 70.4417 75.0508 67.3501 77.1755 65.6662C78.3434 64.7176 79.483 63.9031 80.5656 63.2206C84.205 60.9267 87.9726 66.1135 84.6037 68.8492C63.428 86.062 67.0964 89.2714 36.455 86.2956L32.9551 89.0784L18.6714 71.112C19.8507 70.8254 35.7144 52.7203 46.0973 66.4016Z" fill="#FFCEBF"/>
<path d="M52.5913 56.7247H69.3187C69.3146 59.8691 66.7471 62.4346 63.6027 62.4346H58.3052C55.1629 62.4346 52.5954 59.8691 52.5913 56.7247Z" fill="#465A61"/>
<path d="M73.5314 47.8522V56.7247H69.3186C69.3186 56.7226 69.3186 56.7186 69.3186 56.7165H52.5912V56.7247H48.3784V47.8522H73.5314Z" fill="#596C76"/>
<path d="M67.0595 31.0741L62.9055 47.8522H58.9995L54.8496 31.0741L60.9535 34.2489L67.0595 31.0741Z" fill="#00716C"/>
<path d="M87.7256 94.0794C88.7005 94.0794 89.4908 93.2891 89.4908 92.3142C89.4908 91.3394 88.7005 90.5491 87.7256 90.5491C86.7507 90.5491 85.9604 91.3394 85.9604 92.3142C85.9604 93.2891 86.7507 94.0794 87.7256 94.0794Z" fill="black"/>
<path d="M9.56936 13.8572C10.5442 13.8572 11.3345 13.0669 11.3345 12.0921C11.3345 11.1172 10.5442 10.3269 9.56936 10.3269C8.59449 10.3269 7.8042 11.1172 7.8042 12.0921C7.8042 13.0669 8.59449 13.8572 9.56936 13.8572Z" fill="black"/>
<path d="M32.9556 90.094C32.6566 90.094 32.3605 89.9628 32.16 89.7105C31.8108 89.2713 31.8837 88.6323 32.3229 88.2833L35.8227 85.5005C36.0289 85.3366 36.2903 85.2594 36.553 85.2846C61.3308 87.6906 63.1108 86.1276 74.6925 75.9563C77.2732 73.69 80.198 71.1213 83.9632 68.061C84.8461 67.3438 85.1218 66.1279 84.6335 65.1039C84.2207 64.2378 83.3692 63.6999 82.4119 63.6999C81.9524 63.6999 81.5015 63.8312 81.107 64.0798C80.0179 64.7663 78.9104 65.5652 77.8156 66.4545C75.7589 68.0844 71.5272 71.4382 68.2193 71.0041C59.6548 71.6911 52.0624 70.4498 45.6509 67.3139C45.5083 67.2443 45.384 67.1419 45.2882 67.0156C44.1722 65.5449 42.9372 64.4021 41.6177 63.6187C34.1494 59.1981 25.112 66.952 20.7689 70.6785C20.226 71.1445 19.757 71.5469 19.3804 71.8463C18.9412 72.1954 18.3022 72.1219 17.9534 71.683C17.6045 71.2438 17.6776 70.605 18.1167 70.256C18.4635 69.9806 18.9191 69.5896 19.4464 69.137C23.7807 65.4178 33.9304 56.7088 42.6536 61.8714C44.1403 62.754 45.5191 64.0048 46.7559 65.5923C52.8194 68.503 60.0222 69.6395 68.1688 68.9704C68.251 68.9633 68.3339 68.967 68.415 68.9802C70.8553 69.3761 74.8424 66.2191 76.5442 64.8704C77.6923 63.9378 78.8661 63.0912 80.0238 62.3614C80.7426 61.9082 81.5683 61.6687 82.4117 61.6687C84.1334 61.6687 85.7251 62.674 86.4669 64.2297C87.36 66.1035 86.8571 68.3271 85.2439 69.6375C81.5092 72.673 78.5998 75.2281 76.0328 77.4826C64.2143 87.8613 62.0305 89.7769 36.7654 87.3457L33.5869 89.8732C33.4003 90.0221 33.1772 90.094 32.9556 90.094Z" fill="black"/>
<path d="M59.6568 78.4161C55.0934 78.4161 49.6574 77.1683 45.0448 73.8967C44.5874 73.5721 44.4795 72.9382 44.8039 72.4807C45.1283 72.0233 45.7622 71.9152 46.2199 72.2398C53.7347 77.5696 63.2934 76.876 66.533 74.9901C67.2443 74.576 67.6477 74.1165 67.612 73.7608C67.5525 73.1703 66.4448 72.1297 63.519 71.1399C62.9877 70.9601 62.7027 70.3837 62.8824 69.8523C63.062 69.3209 63.6387 69.0359 64.17 69.2157C67.6224 70.3837 69.4602 71.8444 69.6329 73.5571C69.7034 74.2552 69.5269 75.5977 67.5549 76.7456C65.8109 77.7608 62.9627 78.4158 59.6568 78.4161Z" fill="black"/>
<path d="M25.2343 101.56C25.2099 101.56 25.1855 101.56 25.1611 101.558C24.8912 101.538 24.6401 101.412 24.4638 101.207L5.02881 78.5744C4.84986 78.366 4.76292 78.0938 4.7879 77.82C4.81289 77.5462 4.94796 77.2945 5.16186 77.1218L16.3012 68.1437C16.5119 67.9741 16.781 67.8953 17.0504 67.925C17.3191 67.9546 17.5651 68.0903 17.7335 68.3019L19.4661 70.4794L19.4663 70.4797L35.9743 91.2431C36.3123 91.6682 36.256 92.2839 35.8467 92.6408L25.9017 101.31C25.7161 101.472 25.4788 101.56 25.2343 101.56ZM7.25242 78.0459L25.3383 99.1069L33.7801 91.7479L17.8765 71.7443L17.8767 71.7445L16.7804 70.3667L7.25242 78.0459Z" fill="black"/>
<path d="M71.827 48.8678C71.2661 48.8678 70.8113 48.413 70.8113 47.8522V41.2161C70.8113 40.8878 70.97 40.5799 71.2371 40.3894C75.8954 37.066 78.6763 31.6672 78.6763 25.9472C78.6763 16.1761 70.726 8.22656 60.9537 8.22656C51.1803 8.22656 43.229 16.1761 43.229 25.9472C43.229 31.6643 46.0102 37.0632 50.6687 40.3896C50.9356 40.5801 51.094 40.888 51.094 41.2161V47.8522C51.094 48.413 50.6392 48.8678 50.0784 48.8678C49.5176 48.8678 49.0628 48.413 49.0628 47.8522V41.7302C44.1282 38.0033 41.1978 32.1427 41.1978 25.9472C41.1978 15.0558 50.0603 6.19531 60.9537 6.19531C71.8461 6.19531 80.7076 15.056 80.7076 25.9472C80.7076 32.146 77.7773 38.0063 72.8426 41.7304V47.8522C72.8426 48.413 72.3878 48.8678 71.827 48.8678Z" fill="black"/>
<path d="M73.5314 57.7403H48.3784C47.8176 57.7403 47.3628 57.2855 47.3628 56.7247V47.8522C47.3628 47.2913 47.8176 46.8365 48.3784 46.8365H73.5314C74.0922 46.8365 74.547 47.2913 74.547 47.8522V56.7247C74.547 57.2857 74.0922 57.7403 73.5314 57.7403ZM49.394 55.709H72.5158V48.8678H49.394V55.709Z" fill="black"/>
<path d="M63.6027 63.4502H58.3052C54.5994 63.4502 51.5806 60.4337 51.5757 56.7259C51.5757 56.7255 51.5757 56.7251 51.5757 56.7247V56.7166C51.5757 56.1557 52.0305 55.7009 52.5913 55.7009H69.3187C69.8795 55.7009 70.3343 56.1557 70.3343 56.7166C70.3296 60.4337 67.3097 63.4502 63.6027 63.4502ZM53.7172 57.7322C54.1826 59.838 56.0639 61.4189 58.3052 61.4189H63.6027C65.845 61.4189 67.7272 59.838 68.1925 57.7322H53.7172Z" fill="black"/>
<path d="M58.9988 48.868C58.5425 48.868 58.128 48.5586 58.0136 48.0961L53.8638 31.318C53.7679 30.9304 53.9078 30.5228 54.2215 30.276C54.5349 30.0292 54.9643 29.9891 55.3181 30.173L60.9536 33.1043L66.591 30.173C66.945 29.9889 67.3742 30.0292 67.6878 30.2762C68.0015 30.523 68.1412 30.9308 68.0453 31.3182L63.8914 48.0963C63.7566 48.6409 63.2059 48.9734 62.6615 48.8381C62.1169 48.7033 61.785 48.1526 61.9197 47.6082L65.5333 33.0125L61.422 35.1501C61.1285 35.3029 60.7787 35.3029 60.4848 35.1501L56.3752 33.0125L59.9853 47.6084C60.12 48.153 59.7879 48.7037 59.2433 48.8381C59.1617 48.8584 59.0796 48.868 58.9988 48.868Z" fill="black"/>
<path d="M60.9536 5.64281C60.3928 5.64281 59.938 5.18802 59.938 4.62719V1.01563C59.938 0.454797 60.3928 0 60.9536 0C61.5144 0 61.9692 0.454797 61.9692 1.01563V4.62719C61.9692 5.18822 61.5146 5.64281 60.9536 5.64281Z" fill="black"/>
<path d="M72.401 8.71634C72.2286 8.71634 72.0539 8.67247 71.8938 8.57984C71.4082 8.29912 71.242 7.67797 71.5227 7.19229L73.3305 4.06417C73.6113 3.5787 74.2322 3.41214 74.7181 3.69306C75.2038 3.97378 75.3699 4.59493 75.0892 5.08061L73.2814 8.20873C73.0933 8.53434 72.752 8.71634 72.401 8.71634Z" fill="black"/>
<path d="M80.7858 17.0993C80.4348 17.0993 80.0938 16.9173 79.9057 16.5919C79.6248 16.1062 79.7909 15.485 80.2764 15.2041L83.4065 13.3943C83.8926 13.1134 84.5136 13.2797 84.7941 13.7652C85.075 14.2509 84.9089 14.872 84.4234 15.1529L81.2932 16.9628C81.1332 17.0552 80.9581 17.0993 80.7858 17.0993Z" fill="black"/>
<path d="M87.4676 28.5472H83.854C83.293 28.5472 82.8384 28.0924 82.8384 27.5316C82.8384 26.9708 83.293 26.516 83.854 26.516H87.4676C88.0286 26.516 88.4832 26.9708 88.4832 27.5316C88.4832 28.0924 88.0286 28.5472 87.4676 28.5472Z" fill="black"/>
<path d="M83.914 41.8053C83.7413 41.8053 83.5667 41.7613 83.4066 41.6688L80.2764 39.859C79.7908 39.5783 79.6248 38.9571 79.9057 38.4714C80.1864 37.9858 80.8078 37.8198 81.2933 38.1005L84.4234 39.9104C84.9091 40.1911 85.0751 40.8123 84.7941 41.2979C84.606 41.6233 84.2648 41.8053 83.914 41.8053Z" fill="black"/>
<path d="M37.9934 41.8053C37.6426 41.8053 37.3016 41.6235 37.1133 41.2981C36.8323 40.8127 36.9983 40.1913 37.4838 39.9104L40.6119 38.1005C41.0978 37.8194 41.7187 37.9856 41.9996 38.471C42.2806 38.9565 42.1146 39.5779 41.6291 39.8588L38.501 41.6686C38.3409 41.7612 38.1661 41.8053 37.9934 41.8053Z" fill="black"/>
<path d="M38.0555 28.5472H34.4419C33.8811 28.5472 33.4263 28.0924 33.4263 27.5316C33.4263 26.9708 33.8811 26.516 34.4419 26.516H38.0555C38.6163 26.516 39.0711 26.9708 39.0711 27.5316C39.0711 28.0924 38.6165 28.5472 38.0555 28.5472Z" fill="black"/>
<path d="M41.1195 17.0993C40.9468 17.0993 40.7721 17.0552 40.6119 16.9626L37.4838 15.1527C36.9983 14.8718 36.8323 14.2506 37.1133 13.765C37.3942 13.2795 38.0151 13.1134 38.501 13.3945L41.6291 15.2043C42.1146 15.4852 42.2806 16.1064 41.9996 16.5921C41.8113 16.9175 41.4703 17.0993 41.1195 17.0993Z" fill="black"/>
<path d="M49.5048 8.71628C49.1538 8.71628 48.8125 8.53428 48.6244 8.20867L46.8166 5.08055C46.5359 4.59488 46.7023 3.97372 47.1877 3.693C47.6738 3.41248 48.2948 3.57864 48.5753 4.06411L50.3831 7.19224C50.6638 7.67791 50.4975 8.29906 50.012 8.57978C49.8519 8.6722 49.6772 8.71628 49.5048 8.71628Z" fill="black"/>
<path d="M91.7476 12.996C88.8277 12.996 86.4521 10.6204 86.4521 7.7005C86.4521 4.78058 88.8277 2.40503 91.7476 2.40503C94.6675 2.40503 97.0429 4.78058 97.0429 7.7005C97.0429 10.6204 94.6675 12.996 91.7476 12.996ZM91.7476 4.43628C89.9477 4.43628 88.4834 5.90061 88.4834 7.7005C88.4834 9.50039 89.9477 10.9647 91.7476 10.9647C93.5473 10.9647 95.0116 9.50039 95.0116 7.7005C95.0116 5.90061 93.5475 4.43628 91.7476 4.43628Z" fill="black"/>
<path d="M4.60078 102.267C2.06395 102.267 0 100.204 0 97.6668C0 95.1287 2.06395 93.064 4.60078 93.064C7.13883 93.064 9.20359 95.1287 9.20359 97.6668C9.20359 100.204 7.13883 102.267 4.60078 102.267ZM4.60078 95.095C3.18398 95.095 2.03125 96.2488 2.03125 97.6666C2.03125 99.0834 3.18398 100.236 4.60078 100.236C6.0188 100.236 7.17234 99.0832 7.17234 97.6666C7.17234 96.2488 6.0188 95.095 4.60078 95.095Z" fill="black"/>
</svg>
