<svg width="103" height="104" viewBox="0 0 103 104" fill="none" xmlns="http://www.w3.org/2000/svg">
<path d="M64.9141 80.8287L65.0144 87.3889C65.0144 88.091 65.7767 88.6528 66.6996 88.6528L92.7798 88.4521C93.7026 88.4521 94.4449 87.8704 94.4449 87.1682L94.3446 80.608C94.3446 79.9058 93.5823 79.3441 92.6594 79.3441L66.5792 79.5447C65.6563 79.5447 64.9141 80.1265 64.9141 80.8287Z" fill="#D1D0DF"/>
<path d="M89.5098 79.3843H94.4249V87.5293H89.5098V79.3843Z" fill="#B5B5C6"/>
<path d="M97.2539 103.779H67.3218C77.4128 103.779 86.2601 98.2623 91.1351 88.3919L97.0131 88.3518L97.2539 103.779Z" fill="#00716C"/>
<path d="M91.135 88.392C86.26 98.2423 77.4128 103.779 67.3217 103.779H62.6875L62.4668 88.6327L91.135 88.392Z" fill="#38A59D"/>
<path d="M98.7586 55.591L97.7756 55.9923L94.2447 44.9784L94.2046 44.8781C93.6027 43.7346 92.4391 43.0123 91.1552 42.9722C89.3898 42.9321 87.7246 43.8148 86.7416 45.2793L86.7215 45.3194C85.7185 47.0849 85.3373 49.1312 85.6382 51.1373C85.9391 53.0633 86.7617 58.0988 87.1027 60.125C86.6413 60.3858 86.1799 60.6867 85.7586 61.0077L65.0749 69.6543L62.6876 70.6574L61.3234 71.2392L60.7015 71.5L55.1845 58.3395C55.345 58.3596 55.5055 58.3596 55.6861 58.3796C57.6521 58.5401 59.9592 58.4197 61.6644 57.517C61.9252 57.3765 62.166 57.2361 62.4067 57.0756C63.3296 56.4537 64.132 55.6713 64.774 54.7484C64.8743 54.608 64.9546 54.4876 65.0348 54.3472C65.095 54.2469 65.1552 54.1265 65.2154 54.0262C65.5965 53.3441 65.8774 52.6219 66.058 51.8997C66.078 51.8194 66.0981 51.7392 66.1182 51.6389C66.1182 51.6389 66.1182 51.6188 66.1182 51.5988C66.9006 47.9074 65.2354 43.9753 61.7648 42.0694C57.5117 39.7222 52.1552 41.267 49.828 45.5201C49.4067 44.517 48.9252 43.3534 48.4036 42.1096V42.0895C46.8388 38.3179 44.9932 33.9043 44.0703 31.7176L59.5178 25.2577C60.1799 24.9768 60.5811 24.3349 60.541 23.6126C60.5009 22.9105 60.0394 22.3086 59.3573 22.108C57.7524 21.6065 56.3882 20.5031 55.6058 19.0185C53.9407 15.9089 55.1043 12.037 58.2138 10.3719C61.3234 8.70678 65.1953 9.87036 66.8604 12.9799C67.8033 14.7454 67.4823 17.7747 67.3018 18.9984C67.2617 19.3194 67.3018 19.6605 67.4222 19.9614C67.8033 20.8842 68.8867 21.3457 69.8095 20.9444L84.4746 14.8055L100.123 52.2407C100.664 53.5447 100.063 55.0494 98.7586 55.591Z" fill="#ED3748"/>
<path d="M54.4819 59.7639L60.0591 73.0848L99.2196 56.7145C101.146 55.912 102.048 53.7052 101.246 51.7793L100.624 50.2747C98.9387 51.0972 97.2134 51.8796 95.468 52.6219C82.5082 58.0586 68.5051 60.4861 54.4819 59.7639Z" fill="#CF2A3A"/>
<path d="M98.5377 62.3519L95.1272 75.1512L95.1072 75.1312L95.067 75.2917C94.9467 75.7932 94.726 76.2546 94.4451 76.6759C94.4451 76.6759 93.4621 78.3009 92.5192 79.7053L67.442 79.7253C65.2553 77.7392 63.9914 74.9306 63.9312 71.9815L63.8911 70.1559L65.0748 69.6543L85.7584 61.0077C86.1797 60.6867 86.6211 60.3858 87.1025 60.125C86.7615 58.0988 85.939 53.0833 85.638 51.1374C85.638 51.1173 85.638 51.0972 85.638 51.0972C85.8988 51.0772 86.1396 51.0571 86.4004 51.037C86.4004 50.3951 86.4606 49.7531 86.6411 49.1312C86.7013 48.8904 86.7815 48.6497 86.8819 48.409C87.0423 47.5463 87.3433 46.7238 87.7646 45.9414C88.9482 44.0957 92.0578 43.3333 93.1612 45.4398L98.5377 62.3519Z" fill="#EFCDB1"/>
<path d="M38.232 25.358L38.1317 18.7978C38.1317 18.0957 37.3694 17.5339 36.4465 17.5339L10.3663 17.7346C9.44346 17.7346 8.70117 18.3163 8.70117 19.0185L8.80148 25.5787C8.80148 26.2808 9.56383 26.8426 10.4867 26.8426L36.5669 26.642C37.4898 26.642 38.232 26.0802 38.232 25.358Z" fill="#D1D0DF"/>
<path d="M8.70117 18.6573H13.6163V26.8024H8.70117V18.6573Z" fill="#B5B5C6"/>
<path d="M5.89258 0.0200195H35.8247C25.7336 0.0200195 16.8864 7.9444 12.0114 17.8148L6.11326 17.8549L5.89258 0.0200195Z" fill="#CF2A3A"/>
<path d="M12.0112 17.7947C16.8862 7.9444 25.7335 0.0200195 35.8245 0.0200195H40.4588L40.6794 17.574L12.0112 17.7947Z" fill="#ED3748"/>
<path d="M61.3835 55.9521C59.4175 57.0555 56.2879 56.895 54.6428 56.6944C54.3018 56.6543 54.0008 56.895 53.9607 57.2361C53.9406 57.3564 53.9607 57.4568 54.0008 57.5571L59.9391 70.8379C60.541 72.1821 59.9391 73.7669 58.595 74.3889C54.723 76.1142 47.7014 79.2639 44.7122 80.608C44.4715 80.7083 44.1906 80.608 44.0903 80.3672C44.0301 80.2469 44.0301 80.0864 44.0903 79.966C45.936 76.2145 44.3913 71.6605 40.6397 69.8148C36.8882 67.9691 32.3342 69.5139 30.4885 73.2654C29.6058 75.071 29.4653 77.1373 30.1073 79.0432C30.8295 81.1898 33.2771 83.1358 34.6413 84.0787C34.9221 84.2793 35.0024 84.6605 34.8018 84.9413C34.7416 85.0416 34.6413 85.1018 34.541 85.162L18.9129 92.1635L14.8403 83.0555C28.061 73.3456 36.8681 55.9722 36.8681 36.1512C36.8681 35.2685 36.848 34.3858 36.8079 33.503L40.1181 32.0185C41.2616 31.5169 42.5857 32.0185 43.1073 33.162C44.8126 36.9537 48.0826 44.2963 49.4669 47.3858C49.5672 47.6265 49.848 47.7268 50.0888 47.6265C50.2092 47.5663 50.3095 47.466 50.3496 47.3256C51.473 43.2932 55.666 40.9259 59.6984 42.0694C63.7308 43.2129 66.0981 47.3858 64.9545 51.4182C64.3928 53.324 63.1289 54.949 61.3835 55.9521Z" fill="#C11F2F"/>
<path d="M37.6503 31.7778L21.5608 38.9799L19.5346 38.037C19.1534 38.8596 18.7321 39.662 18.3108 40.4244C18.2506 40.5447 18.1704 40.645 18.1102 40.7654C17.7491 41.3873 17.3278 41.929 16.8864 42.3704C15.6226 43.6543 14.2784 44.2361 14.2584 44.2361L13.3756 44.5972L13.476 45.2191L13.5361 45.5401C13.5562 45.6204 14.7599 52.9429 15.1411 55.3704C15.3618 56.8148 15.101 58.2793 14.3787 59.5633C13.8571 60.3055 13.0145 60.767 12.1118 60.767C11.7105 60.787 11.3293 60.5663 11.1287 60.2253L7.21669 48.0077L6.85558 46.8441L6.49447 45.6805L5.87256 43.7546L9.18274 31.3163C9.28305 30.9552 9.50373 30.4537 9.70435 30.1327L9.72441 30.0926C9.72441 30.0725 10.3263 29.1096 11.0284 28.0062L35.4235 27.8055C36.4667 28.9892 37.229 30.3333 37.6503 31.7778Z" fill="#EFCDB1"/>
<path d="M63.7706 51.1173C63.3293 52.662 62.286 54.0463 60.8015 54.8889C59.0561 55.8719 56.0268 55.6311 54.803 55.4907C54.462 55.4506 54.141 55.4907 53.84 55.6311C53.5191 55.7716 53.2783 55.9922 53.0978 56.253C52.6965 56.5941 52.4558 57.1157 52.4558 57.6373C52.4558 57.878 52.4959 58.1188 52.5962 58.3395L58.6549 72.8441C58.5144 73.0247 58.3339 73.1651 58.1132 73.2654C54.8231 74.75 49.2459 77.2376 45.8154 78.7824C46.2367 77.1373 46.1765 75.412 45.6348 73.8071C44.0901 69.2129 39.0947 66.7253 34.5005 68.2901C29.9064 69.8348 27.4188 74.8302 28.9836 79.4243C29.6657 81.4305 31.4712 83.196 33.1363 84.4598L19.5345 90.5385L2.68264 52.8827C2.10085 51.5787 2.68264 50.074 3.98665 49.4922L5.04993 49.0108L8.9419 61.1882L9.00209 61.2885C9.60394 62.4321 10.7675 63.1543 12.0515 63.1944H12.2521C13.9573 63.1743 15.5422 62.2916 16.4851 60.8672L16.5052 60.8271C17.5083 59.0617 17.8894 57.0154 17.5885 55.0092C17.2876 53.0632 16.465 48.0478 16.124 46.0216C17.7289 45.1188 19.0731 43.8348 20.0762 42.2901L38.0916 34.2253L40.4388 33.1821L40.6595 33.0818C40.7999 33.0216 40.9404 32.9814 41.1009 32.9814C41.5222 32.9814 41.9033 33.2222 42.0638 33.6034C43.1271 35.9706 44.7922 39.7222 46.2367 42.9321V42.9521C47.0793 44.9583 47.8416 46.804 48.3431 47.9876C48.5438 48.449 48.9249 48.7901 49.4064 48.9506C50.2891 49.2314 51.232 48.7299 51.5129 47.8472C52.0144 46.2422 53.1178 44.8781 54.6024 44.0956C57.712 42.4305 61.5839 43.5941 63.249 46.7037C63.911 48.1481 64.0715 49.6929 63.7706 51.1173Z" fill="#11AEA7"/>
<path d="M102.349 51.3179L85.7584 11.6559L69.7892 18.3364C69.9698 16.4506 69.9899 13.7824 68.9667 11.8565C68.1642 10.3519 66.9405 9.12809 65.4559 8.30556C61.2028 5.95833 55.8664 7.50309 53.5192 11.7562C51.172 16.0093 52.7167 21.3457 56.9698 23.6929L40.9004 30.4136L40.9806 30.6142C40.5994 30.6142 40.2183 30.6744 39.8571 30.8148C39.476 29.6111 38.8942 28.4676 38.1519 27.4444C38.3525 27.3241 38.5531 27.1636 38.7337 27.0031C39.175 26.5617 39.4158 25.9799 39.4158 25.358L39.3355 18.7978L40.6997 18.7778C41.3618 18.7778 41.9034 18.216 41.8834 17.554L41.6627 0L39.2553 0.0401235L39.4559 16.3904L37.0886 16.4105C36.8679 16.3704 36.6473 16.3503 36.4266 16.3503L10.3463 16.5509C10.1056 16.5509 9.88492 16.571 9.66425 16.6312L7.29696 16.6512L7.09634 0L4.68894 0.0401235L4.90962 17.875C4.90962 18.537 5.45128 19.0586 6.11332 19.0586H7.49758L7.59789 25.6188C7.59789 26.3611 7.97906 27.0031 8.56085 27.4444C8.09943 28.1867 7.73832 28.7485 7.67813 28.8688C7.33709 29.3904 6.99604 30.1327 6.83554 30.7346L3.3448 43.875L4.24758 46.7238L2.94357 47.3056C0.435851 48.429 -0.687606 51.3781 0.435851 53.8858L18.2707 93.7284L34.9821 86.2454C35.2831 86.1049 35.5439 85.9043 35.7244 85.6235C36.3062 84.8009 36.1056 83.6574 35.2831 83.0756C33.1365 81.571 31.6519 79.946 31.2105 78.6219C30.6689 77.017 30.7892 75.2917 31.5315 73.767C33.0763 70.5972 36.9081 69.2932 40.0778 70.838C43.2476 72.3827 44.5516 76.2145 43.0068 79.3843C42.7862 79.8457 42.7661 80.3673 42.9667 80.8287C43.3479 81.6713 44.3309 82.0525 45.1735 81.6713C48.1627 80.3272 55.1843 77.1775 59.0562 75.4522C59.7383 75.1512 60.28 74.6698 60.6812 74.088L62.8078 73.2253C63.0485 75.2315 63.8108 77.1373 64.9744 78.7623C64.7738 78.8827 64.5732 79.0231 64.3926 79.2037C63.9513 79.625 63.7105 80.2269 63.7105 80.8287L63.8108 87.3889H62.4467C61.7846 87.409 61.2429 87.9506 61.263 88.6127L61.4837 103.759L63.8911 103.719L63.6905 89.7762L66.0578 89.7562C66.2584 89.7963 66.4791 89.8164 66.7198 89.8164H66.7399L92.8201 89.6157C93.0609 89.6157 93.2815 89.5957 93.5022 89.5355L95.8695 89.5154L96.0701 103.759L98.4775 103.719L98.2568 88.2917C98.2568 87.6296 97.7152 87.108 97.0531 87.108L95.6689 87.1281V87.108L95.5686 80.5478C95.5686 79.8056 95.1874 79.1636 94.6056 78.7222C95.067 77.9799 95.4281 77.4182 95.4883 77.2978C95.8294 76.7562 96.1704 76.034 96.3309 75.4321L99.8216 62.3117L98.5377 58.2994L99.7013 57.8179C102.209 56.7546 103.413 53.8457 102.349 51.3179ZM13.476 45.2392L13.5362 45.5602C13.5562 45.6404 14.7599 52.963 15.1411 55.3904C15.3618 56.8349 15.101 58.2994 14.3788 59.5833C13.8571 60.3256 13.0146 60.787 12.1118 60.787C11.7105 60.8071 11.3294 60.5864 11.1288 60.2454L7.21672 48.0278L6.8556 46.8642L6.49449 45.7006L5.87258 43.7747L9.18276 31.3364C9.28307 30.9753 9.50375 30.4738 9.70437 30.1528L9.72443 30.1127C9.72443 30.0926 10.3263 29.1296 11.0284 28.0262L35.4235 27.8256C36.4667 28.9491 37.2291 30.2932 37.6504 31.7377L21.5609 38.9398L19.5346 37.9969C19.1534 38.8194 18.7321 39.6219 18.3109 40.3843C18.2507 40.5046 18.1704 40.6049 18.1102 40.7253C17.7491 41.3472 17.3278 41.8889 16.8865 42.3302C15.6226 43.6142 14.2784 44.196 14.2584 44.196L13.3757 44.5571L13.476 45.2392ZM10.0254 19.0185L36.7877 18.7978C36.8278 18.8179 36.888 18.838 36.9281 18.8781L37.0084 25.2978C36.8679 25.3981 36.7075 25.4383 36.547 25.4383H36.4868L10.4667 25.6389C10.2862 25.659 10.1257 25.5988 9.98523 25.4985V25.2577L9.90499 19.0787C9.94511 19.0586 9.98523 19.0386 10.0254 19.0185ZM58.0933 73.2654C54.8031 74.75 49.226 77.2377 45.7954 78.7824C46.2167 77.1373 46.1565 75.412 45.6149 73.8071C44.0701 69.213 39.0747 66.7253 34.4806 68.2901C29.8865 69.8349 27.3988 74.8302 28.9636 79.4244C29.6457 81.4306 31.4513 83.196 33.1164 84.4599L19.5146 90.5386L2.6627 52.8827C2.08091 51.5787 2.6627 50.0741 3.96672 49.4923L5.02999 49.0108L8.92196 61.1883L8.98215 61.2886C9.584 62.4321 10.7476 63.1543 12.0315 63.1944H12.2321C13.9374 63.1744 15.5223 62.2917 16.4652 60.8673L16.4852 60.8272C17.4883 59.0818 17.8695 57.0355 17.5686 55.0494C17.5686 55.0293 17.5686 55.0293 17.5686 55.0093C17.2676 53.0633 16.4451 48.0478 16.1041 46.0216C17.709 45.1188 19.0531 43.8349 20.0562 42.2901L38.0717 34.2253L39.2553 33.7037L40.4189 33.1821L40.6396 33.0818C40.78 33.0216 40.9204 32.9815 41.0809 32.9815C41.5022 32.9815 41.8834 33.2222 42.0439 33.6034C43.1071 35.9707 44.7723 39.7222 46.2167 42.9321V42.9522C47.0593 44.9583 47.8217 46.804 48.3232 47.9877C48.5238 48.4491 48.905 48.7901 49.3865 48.9506C50.2692 49.2315 51.2121 48.7299 51.493 47.8472C51.9945 46.2423 53.0979 44.8781 54.5825 44.0957C57.692 42.4306 61.5639 43.5941 63.2291 46.7037C63.9713 48.108 64.1519 49.6528 63.8309 51.0972C63.3896 52.642 62.3463 54.0262 60.8618 54.8688C59.1164 55.8519 56.0871 55.6111 54.8633 55.4707C54.5223 55.4306 54.2013 55.4707 53.9004 55.6111C53.5794 55.7515 53.3386 55.9722 53.1581 56.233C52.7568 56.5741 52.5161 57.0957 52.5161 57.6173C52.5161 57.858 52.5562 58.0988 52.6565 58.3194L58.7152 72.8241C58.5146 73.0247 58.3139 73.1651 58.0933 73.2654ZM93.121 87.1682L66.3587 87.3889C66.3186 87.3688 66.2784 87.3488 66.2383 87.3086L66.138 80.8889C66.2784 80.7886 66.4389 80.7485 66.5994 80.7485H66.6596L92.6797 80.5478C92.8402 80.5478 93.0207 80.588 93.1612 80.6883V80.929L93.2414 87.108C93.2013 87.1281 93.1612 87.1481 93.121 87.1682ZM93.9636 74.8302C93.8633 75.1914 93.6426 75.6929 93.442 76.0139L93.422 76.054C93.422 76.0741 92.8201 77.0571 92.118 78.1404L67.743 78.341C66.1781 76.696 65.2754 74.5494 65.155 72.2824L82.5084 65.0201C82.1473 65.7022 81.7862 66.4244 81.4451 67.1466L83.6318 68.1698C84.0732 67.2269 84.5547 66.304 85.0562 65.4213C85.6179 64.4383 86.3602 63.6759 87.0423 63.1343C88.0254 62.3318 88.9081 61.9506 88.9081 61.9506L89.7908 61.5895L89.6504 60.7269L89.6303 60.6265C89.6303 60.6065 89.55 60.1852 89.4497 59.5031C89.0886 57.3364 88.3263 52.642 88.0254 50.7963C87.8047 49.3519 88.0655 47.8673 88.7877 46.6034C89.3093 45.8611 90.1519 45.3997 91.0547 45.3997C91.4559 45.3796 91.8371 45.6003 92.0377 45.9414L95.5686 56.9552L95.9297 58.0988L96.2908 59.2423L97.2939 62.392L93.9636 74.8302ZM98.7584 55.591L97.7754 55.9923L94.2445 44.9784L94.2044 44.8781C93.6025 43.7346 92.4389 43.0123 91.155 42.9722C89.3895 42.9321 87.7244 43.8148 86.7414 45.2793L86.7213 45.3194C85.7183 47.0648 85.3371 49.091 85.638 51.0972V51.1373C85.9389 53.0633 86.7615 58.0988 87.1025 60.125C86.6411 60.3858 86.1797 60.6867 85.7584 61.0077L65.0747 69.6543L63.8911 70.1559L62.6874 70.6574L61.3232 71.2392L60.7013 71.5L55.1843 58.3395C55.3448 58.3596 55.5053 58.3596 55.6858 58.3796C57.6519 58.5401 59.959 58.4198 61.6642 57.517C61.925 57.3765 62.1658 57.2361 62.4065 57.0756C62.8278 56.7948 63.2291 56.4738 63.5902 56.1127C64.0315 55.6914 64.4127 55.2299 64.7738 54.7284C64.8741 54.588 64.9544 54.4676 65.0346 54.3272C65.0948 54.2268 65.155 54.1065 65.2152 54.0062C65.3757 53.7052 65.5161 53.4043 65.6565 53.1034C65.817 52.7022 65.9575 52.3009 66.0578 51.8796C66.0778 51.7994 66.0979 51.7191 66.118 51.6188C66.118 51.6188 66.118 51.5988 66.118 51.5787C66.9004 47.8873 65.2352 43.9552 61.7645 42.0494C57.5115 39.7022 52.155 41.2469 49.8278 45.5C49.4065 44.4969 48.925 43.3333 48.4034 42.0895V42.0694C46.8386 38.2978 44.993 33.8843 44.0701 31.6975L59.5176 25.2377C60.1797 24.9568 60.5809 24.3148 60.5408 23.5926C60.5007 22.8904 60.0392 22.2886 59.3571 22.088C57.7522 21.5864 56.388 20.483 55.6056 18.9985C53.9405 15.8889 55.1041 12.017 58.2136 10.3519C61.3232 8.68673 65.1951 9.85031 66.8602 12.9599C67.8031 14.7253 67.4821 17.7546 67.3016 18.9784C67.2615 19.2994 67.3016 19.6404 67.422 19.9414C67.8031 20.8642 68.8865 21.3256 69.8093 20.9244L84.4744 14.8056L100.123 52.2407C100.664 53.5448 100.062 55.0494 98.7584 55.591Z" fill="black"/>
<path d="M24.7651 95.4397L26.9053 94.3371L29.6802 99.7232L27.54 100.826L24.7651 95.4397Z" fill="black"/>
<path d="M7.47412 99.7086L10.249 94.3225L12.3892 95.4251L9.61431 100.811L7.47412 99.7086Z" fill="black"/>
<path d="M17.3394 103.921L17.4908 97.8625L19.8982 97.9227L19.7468 103.981L17.3394 103.921Z" fill="black"/>
<path d="M75.7441 4.54785L77.8843 3.44526L80.6592 8.83139L78.519 9.93398L75.7441 4.54785Z" fill="black"/>
<path d="M93.0352 8.81421L95.81 3.42807L97.9502 4.53067L95.1753 9.9168L93.0352 8.81421Z" fill="black"/>
<path d="M85.5483 6.29346L85.6998 0.234819L88.1072 0.295004L87.9557 6.35364L85.5483 6.29346Z" fill="black"/>
</svg>
