<svg width="104" height="104" viewBox="0 0 104 104" fill="none" xmlns="http://www.w3.org/2000/svg">
<path fill-rule="evenodd" clip-rule="evenodd" d="M31.0056 67.6522L31.0259 67.6658L31.2112 67.7859V74.2999C31.2126 74.3691 31.2177 74.4381 31.2266 74.5067C31.3942 75.5185 31.6266 76.5184 31.9225 77.5003L31.9859 77.7134L28.0487 82.2786L3.3418 60.9426L11.846 51.1004L31.0056 67.6522ZM51.8379 96.6187C48.138 94.989 44.76 92.47 41.9609 89.5676C37.9876 85.4476 34.623 79.9368 33.6531 74.2339L33.6472 74.2V57.6126L34.0088 57.5719C40.406 56.861 46.2979 54.9472 51.7908 51.5946L52.0026 51.4652L52.2143 51.5948C57.7003 54.9492 63.594 56.8624 69.9877 57.5719L70.3491 57.6126V74.2L70.3434 74.2339C69.3749 79.9238 66.0231 85.423 62.0642 89.5392C59.2611 92.4528 55.8762 94.9829 52.1674 96.6185L52.0036 96.6908L51.8397 96.6187H51.8379ZM90.5107 49.1969L100.661 57.3241L80.2585 82.8086L72.3608 76.48L72.4218 76.2288C72.5609 75.656 72.6745 75.0773 72.7701 74.4955L72.7719 74.4847L72.7742 74.4742C72.7832 74.4166 72.7865 74.3582 72.7839 74.2999V71.3331L90.5107 49.1969ZM63.9868 72.4062C63.9868 70.0359 63.2839 67.7188 61.9671 65.748C60.6502 63.7772 58.7785 62.2411 56.5886 61.334C54.3988 60.427 51.9891 60.1896 49.6644 60.6521C47.3396 61.1145 45.2042 62.2559 43.5282 63.9319C41.8521 65.608 40.7107 67.7434 40.2483 70.0681C39.7859 72.3929 40.0232 74.8025 40.9303 76.9924C41.8374 79.1822 43.3734 81.0539 45.3443 82.3708C47.3151 83.6877 49.6321 84.3905 52.0024 84.3905C55.1798 84.3871 58.2261 83.1234 60.4729 80.8766C62.7196 78.6298 63.9834 75.5836 63.9868 72.4062Z" fill="#11AEA7"/>
<path fill-rule="evenodd" clip-rule="evenodd" d="M59.1415 68.0959C59.2767 68.2609 59.3781 68.451 59.4397 68.6553C59.5014 68.8596 59.5221 69.074 59.5007 69.2863C59.4794 69.4986 59.4163 69.7046 59.3152 69.8925C59.2141 70.0804 59.0769 70.2465 58.9115 70.3812L50.9001 76.9422C50.6119 77.1813 50.2492 77.3122 49.8747 77.3121C49.8042 77.3115 49.7338 77.3067 49.6639 77.2976C49.445 77.2697 49.2342 77.197 49.0446 77.084C48.855 76.9711 48.6907 76.8203 48.5619 76.6411L45.639 72.6278C45.3857 72.2783 45.2817 71.8426 45.3498 71.4164C45.4179 70.9903 45.6525 70.6086 46.0019 70.3554C46.3514 70.1022 46.7871 69.9982 47.2133 70.0663C47.6394 70.1344 48.0211 70.369 48.2743 70.7184L50.1721 73.3367L56.8514 67.8688C57.1854 67.5954 57.6142 67.4657 58.0437 67.5083C58.4732 67.5508 58.8678 67.7622 59.1415 68.0959ZM104 57.174V57.0999C103.999 57.0522 103.996 57.0042 103.99 56.9565C103.941 56.5277 103.724 56.1358 103.387 55.8659L91.3313 46.2148C91.165 46.0815 90.9739 45.9823 90.7692 45.9229C90.5644 45.8635 90.3499 45.845 90.138 45.8686C89.9262 45.8922 89.721 45.9574 89.5343 46.0604C89.3477 46.1634 89.1832 46.3023 89.0502 46.469L86.7025 49.3964L82.3325 46.3495C81.8151 45.992 81.47 45.4659 81.134 44.5364L78.9779 38.5767C78.5158 37.2297 77.6738 36.0451 76.5534 35.1661L71.436 31.0243C71.9823 30.2846 72.5286 29.5438 73.0748 28.802C73.7901 27.8601 74.2101 26.7274 74.2819 25.5469C74.3536 24.3665 74.074 23.1913 73.4782 22.1697C72.8824 21.1481 71.9972 20.326 70.9344 19.8072C69.8716 19.2885 68.6789 19.0963 67.507 19.2551C67.4399 19.2636 67.3825 19.2723 67.3154 19.2819C67.3136 19.2192 67.3072 19.1567 67.2961 19.095C67.1923 18.3159 66.9358 17.5649 66.5413 16.8851C66.1468 16.2053 65.6221 15.6099 64.9972 15.1332C64.3723 14.6564 63.6595 14.3076 62.8997 14.1067C62.1398 13.9058 61.3477 13.8568 60.5688 13.9625C60.5114 13.97 60.4443 13.9805 60.386 13.9901C60.2889 13.0352 59.9631 12.1177 59.4362 11.3155C58.9092 10.5133 58.1967 9.84987 57.3589 9.3815C56.5211 8.91314 55.5827 8.65361 54.6233 8.62492C53.6639 8.59622 52.7118 8.79919 51.8475 9.21665L47.5172 5.56385C46.7533 4.92122 45.8181 4.51581 44.8269 4.39746C43.8356 4.27911 42.8313 4.45297 41.9375 4.89767C41.0437 5.34238 40.2993 6.03855 39.7958 6.90061C39.2923 7.76267 39.0516 8.75307 39.1034 9.75005C37.8114 9.89958 36.6254 10.5372 35.7881 11.5325C34.9508 12.5278 34.5255 13.8055 34.5993 15.104C33.3065 15.2505 32.1194 15.8883 31.2837 16.8854C30.6379 17.656 30.2327 18.5994 30.1185 19.5983C30.0044 20.5972 30.1863 21.6077 30.6416 22.5041L27.115 26.5056C27.0768 26.5497 27.0384 26.5948 27 26.6438C23.3202 31.8616 21.9402 36.8246 22.889 41.4122L15.519 50.5197L12.7788 48.1506C12.6175 48.011 12.4301 47.9047 12.2276 47.8377C12.025 47.7706 11.8113 47.7442 11.5985 47.76C11.3857 47.7757 11.1781 47.8333 10.9877 47.9295C10.7972 48.0256 10.6276 48.1584 10.4886 48.3202L0.397528 60.0078C0.115434 60.3333 -0.0259072 60.7575 0.00456306 61.1871C0.0350333 61.6167 0.234822 62.0167 0.560028 62.2991L27.1146 85.2274C27.4069 85.4818 27.7813 85.6219 28.1688 85.6221C28.2167 85.6221 28.2549 85.6193 28.2933 85.6174C28.7229 85.5847 29.1224 85.3839 29.405 85.0586L32.826 81.0999C34.0844 83.9178 35.7015 86.5613 37.6372 88.9647C41.4704 93.7573 46.2235 97.4044 51.3793 99.5157C51.7754 99.6779 52.2194 99.6779 52.6155 99.5157C57.771 97.4044 62.5243 93.7573 66.3575 88.9647C68.6247 86.1534 70.4505 83.0131 71.7718 79.6519L79.4383 85.7899C79.7259 86.0217 80.0846 86.1472 80.454 86.1454C80.5117 86.1452 80.5693 86.1417 80.6266 86.1348C80.8393 86.1124 81.0454 86.0479 81.233 85.9451C81.4205 85.8423 81.5858 85.7033 81.719 85.536L103.645 58.1505C103.867 57.8727 103.992 57.5296 104 57.174ZM52.002 81.5474C53.8098 81.5471 55.5769 81.0108 57.0799 80.0063C58.5829 79.0017 59.7542 77.574 60.4459 75.9038C61.1375 74.2335 61.3183 72.3957 60.9654 70.6227C60.6126 68.8497 59.7419 67.2211 58.4635 65.9429C57.1851 64.6647 55.5564 63.7943 53.7833 63.4417C52.0103 63.0891 50.1725 63.2702 48.5023 63.9621C46.8322 64.654 45.4047 65.8256 44.4004 67.3287C43.396 68.8318 42.86 70.599 42.86 72.4068C42.8627 74.8305 43.8268 77.1541 45.5407 78.8677C47.2546 80.5814 49.5784 81.5451 52.002 81.5474ZM52.002 60.0162C49.5514 60.0162 47.1558 60.7429 45.1182 62.1044C43.0806 63.4659 41.4924 65.401 40.5546 67.6651C39.6168 69.9292 39.3714 72.4205 39.8495 74.8241C40.3276 77.2276 41.5077 79.4354 43.2406 81.1683C44.9734 82.9012 47.1812 84.0813 49.5848 84.5593C51.9883 85.0374 54.4796 84.7921 56.7437 83.8542C59.0078 82.9164 60.943 81.3283 62.3045 79.2907C63.666 77.253 64.3927 74.8574 64.3927 72.4068C64.3908 69.1212 63.0847 65.9707 60.7615 63.6474C58.4382 61.3241 55.2877 60.0181 52.002 60.0162ZM80.1958 82.2381L72.8165 76.3247C72.9603 75.7334 73.0752 75.1441 73.1709 74.5615C73.1869 74.4753 73.1934 74.3876 73.1902 74.2999V71.4765L90.5737 49.7683L100.09 57.3877L80.1958 82.2381ZM52.002 96.2474C60.8089 92.3644 68.4369 83.0057 69.9414 74.1663V57.9772C63.3196 57.2421 57.4261 55.2594 52.002 51.9428C46.5687 55.2594 40.675 57.2421 34.0531 57.9772V74.1663C35.5577 83.0057 43.1858 92.3644 52.002 96.2474ZM28.0063 81.7057L3.91464 60.9008L11.8877 51.6734L30.7566 67.974C30.7757 67.9866 30.7852 67.9943 30.8045 68.0067V74.2999C30.8061 74.3874 30.8125 74.4748 30.8236 74.5615C30.9942 75.5941 31.231 76.6145 31.5327 77.6165L28.0063 81.7057ZM25.9171 42.835C26.0782 42.635 26.1899 42.3999 26.2432 42.1487C26.2965 41.8974 26.2898 41.6372 26.2239 41.389C25.1879 37.5719 26.3293 33.2664 29.6067 28.5879L32.8553 24.9032L36.4303 27.9115L35.357 29.275C35.1057 29.6155 34.9972 30.0406 35.0544 30.4598C35.1117 30.8791 35.3302 31.2595 35.6636 31.5201C35.997 31.7808 36.4188 31.9011 36.8395 31.8555C37.2602 31.8099 37.6465 31.602 37.9163 31.276L52.243 12.9541C52.6879 12.3792 53.3404 12.0015 54.0605 11.9021C54.7807 11.8026 55.5111 11.9893 56.0952 12.4222C56.6712 12.8638 57.0482 13.516 57.1434 14.2356C57.2387 14.9551 57.0443 15.6829 56.603 16.2592C56.3415 16.6023 56.227 17.0353 56.2847 17.4628C56.3424 17.8903 56.5675 18.2774 56.9107 18.539C57.2538 18.8005 57.6867 18.915 58.1143 18.8573C58.5418 18.7996 58.9289 18.5744 59.1904 18.2313C59.6317 17.6565 60.2825 17.2797 61.0007 17.1831C61.7189 17.0865 62.4461 17.278 63.0236 17.7158C63.3119 17.9315 63.5538 18.203 63.7349 18.5142C63.916 18.8254 64.0325 19.1699 64.0776 19.5271C64.174 20.2441 63.9847 20.9702 63.5507 21.549C63.5507 21.549 63.5507 21.551 63.5412 21.551C63.2951 21.895 63.1927 22.3212 63.2557 22.7394C63.3186 23.1576 63.5419 23.5348 63.8783 23.7911C64.2146 24.0474 64.6376 24.1627 65.0575 24.1124C65.4774 24.0622 65.8612 23.8504 66.1276 23.5219V23.5201C66.5695 22.9461 67.2203 22.57 67.9382 22.4736C68.6561 22.3772 69.3831 22.5683 69.9607 23.0054C70.2486 23.2216 70.4903 23.4934 70.6713 23.8046C70.8523 24.1159 70.9691 24.4603 71.0147 24.8175C71.0632 25.1739 71.0407 25.5363 70.9486 25.884C70.8565 26.2317 70.6966 26.5577 70.4781 26.8434C70.4781 26.8491 70.4685 26.8568 70.459 26.8654C69.9414 27.5698 69.4231 28.2732 68.9152 28.9756L68.2925 28.4763C67.2483 27.6133 65.9899 27.049 64.6508 26.8434L57.119 25.6086C54.4645 25.1735 51.053 25.1132 49.8168 27.2885C49.2802 28.2432 49.0502 29.872 51.0435 32.2055C51.8028 33.1177 52.7686 33.8358 53.8608 34.3003L59.4955 36.7582C60.4759 37.1695 61.2777 37.9166 61.7571 38.8656C59.3135 42.3 57.1574 45.4367 55.1556 48.438C54.8488 48.8037 54.5422 49.1544 54.2356 49.4902C53.7755 49.2229 53.3252 48.9487 52.8747 48.6574C52.6134 48.4886 52.3089 48.3988 51.9978 48.3988C51.6867 48.3988 51.3822 48.4886 51.1209 48.6574C45.4285 52.3202 39.4487 54.298 32.2902 54.8836C31.885 54.9186 31.5076 55.1042 31.2327 55.4039C30.9577 55.7035 30.8051 56.0954 30.8049 56.5021V63.7171L17.9825 52.6442L25.9171 42.835ZM33.7752 18.9801C33.9318 18.792 34.1244 18.6372 34.3416 18.5247C34.5589 18.4121 34.7964 18.3441 35.0403 18.3246C35.2857 18.3015 35.5332 18.3275 35.7685 18.401C36.0037 18.4746 36.222 18.5942 36.4106 18.753L40.7325 22.3944L38.4325 25.3478L33.9956 21.6193C33.6166 21.2984 33.3805 20.8402 33.3391 20.3453C33.2978 19.8504 33.4547 19.3593 33.7752 18.9801ZM38.2793 13.6279C38.4375 13.4399 38.6311 13.285 38.8492 13.1719C39.0672 13.0588 39.3054 12.9899 39.5502 12.969C39.7949 12.948 40.0414 12.9756 40.2755 13.05C40.5096 13.1244 40.7267 13.2442 40.9145 13.4026L45.0448 16.8797L42.7353 19.8332L38.5093 16.2683L38.4997 16.2655C38.312 16.1067 38.1574 15.9126 38.0447 15.6941C37.932 15.4756 37.8635 15.237 37.8431 14.992C37.8226 14.7471 37.8506 14.5004 37.9254 14.2663C38.0003 14.0321 38.1205 13.8156 38.2793 13.6279ZM42.7832 8.2776C43.1029 7.89832 43.5599 7.66138 44.0541 7.6188C44.5483 7.57623 45.0392 7.73149 45.419 8.0505L49.3576 11.3653L47.048 14.3187L43.0132 10.9168C42.633 10.5971 42.3953 10.1396 42.3522 9.64477C42.309 9.14994 42.4641 8.65822 42.7832 8.2776ZM75.9212 39.6783L78.0774 45.64C78.4607 46.7028 79.0837 48.0452 80.4743 49.0159L84.6717 51.9389L73.1902 66.2741V56.5013C73.1919 56.094 73.0399 55.7011 72.7645 55.4011C72.4891 55.101 72.1107 54.9159 71.7048 54.8828C66.3191 54.4418 61.6042 53.2133 57.1769 51.0744C57.3495 50.8695 57.5315 50.6643 57.7137 50.4506C57.7424 50.4055 57.7807 50.3596 57.8094 50.3107C59.266 48.121 60.8185 45.8573 62.4955 43.457C62.9012 45.5488 63.76 47.5263 65.0117 49.2508C66.2633 50.9752 67.8773 52.4046 69.7403 53.4386C69.982 53.5686 70.2517 53.6377 70.526 53.6399C70.8864 53.6406 71.2368 53.5216 71.5222 53.3016C71.8077 53.0816 72.0119 52.773 72.103 52.4243C72.194 52.0756 72.1666 51.7065 72.0252 51.3751C71.8837 51.0436 71.6362 50.7685 71.3215 50.593C69.5725 49.6254 68.1106 48.2125 67.084 46.4976C66.0573 44.7827 65.5025 42.8267 65.4757 40.8282C65.4686 39.325 65.0222 37.8568 64.1913 36.6041C63.3604 35.3515 62.1814 34.3691 60.7994 33.7779L55.155 31.3201C54.5186 31.0506 53.9566 30.6318 53.5163 30.0991C53.181 29.7403 52.9117 29.325 52.7209 28.8724C53.0947 28.7038 54.2541 28.4317 56.5925 28.816L64.1245 30.0504C64.9082 30.1654 65.6447 30.4954 66.2521 31.0038L74.5126 37.6899C75.1664 38.2007 75.6562 38.892 75.9212 39.6783Z" fill="#231F20"/>
</svg>
