<svg width="104" height="104" viewBox="0 0 104 104" fill="none" xmlns="http://www.w3.org/2000/svg">
<path d="M85.5052 58.9312V45.0684H79.9583C79.2579 42.2347 78.1395 39.5658 76.6699 37.1324L80.5931 33.2093L70.7908 23.407L66.8674 27.3303C64.434 25.8607 61.7652 24.7421 58.9314 24.042V18.4949H45.0689V24.042C42.2351 24.7421 39.5663 25.8607 37.1329 27.3303L33.2098 23.407L23.4072 33.2093L27.3306 37.1324C25.861 39.5658 24.7424 42.2347 24.0422 45.0684H18.4951V58.9312H24.042C24.7422 61.7649 25.8608 64.4338 27.3304 66.8672L23.407 70.7903L33.2096 80.5926L37.1327 76.6695C39.5661 78.1391 42.2349 79.2577 45.0687 79.9579V85.5049H58.9312V79.9579C61.765 79.2577 64.4338 78.1391 66.8672 76.6695L70.7906 80.5926L80.5929 70.7903L76.6698 66.8672C78.1393 64.4338 79.2579 61.7649 79.9581 58.9312H85.5052Z" fill="#11AEA7"/>
<path d="M67.3463 60.86V43.1398L52 34.2795L36.6538 43.1398V60.86L52 69.72L67.3463 60.86Z" fill="#FFCD69"/>
<path d="M67.4269 43.1398L52.0807 34.2795L36.7344 43.1398L52.0807 51.9998L67.4269 43.1398Z" fill="#FF928E"/>
<path d="M67.4267 43.1398L52.0806 51.9998V69.72L67.4267 60.86V43.1398Z" fill="#C61E2E"/>
<path d="M36.7344 43.1398V60.86L52.0807 69.72V51.9998L36.7344 43.1398Z" fill="#ED3748"/>
<path d="M69.3545 82.0292C70.1479 82.8224 71.4336 82.8224 72.2272 82.0292L82.0297 72.2269C82.4106 71.846 82.6247 71.3293 82.6247 70.7906C82.6247 70.2519 82.4106 69.7352 82.0297 69.3543L79.2008 66.5256C80.1504 64.7505 80.9219 62.8889 81.5061 60.9629H85.5054C86.627 60.9629 87.5366 60.0535 87.5366 58.9316V45.0689C87.5366 43.9471 86.627 43.0377 85.5054 43.0377H81.5061C80.9219 41.1115 80.1504 39.2498 79.2008 37.4747L82.0297 34.6461C82.4106 34.2652 82.6247 33.7485 82.6247 33.2098C82.6247 32.6711 82.4106 32.1543 82.0297 31.7735L72.2272 21.9712C71.4338 21.178 70.1481 21.178 69.3545 21.9712L66.5258 24.8001C64.7507 23.8503 62.8889 23.0788 60.9628 22.4948V18.4953C60.9628 17.3735 60.0533 16.4641 58.9316 16.4641H45.0689C43.947 16.4641 43.0376 17.3735 43.0376 18.4953V22.4948C41.1116 23.0788 39.25 23.8501 37.4747 24.7999L34.646 21.9712C34.2652 21.5903 33.7484 21.3762 33.2097 21.3762C32.6711 21.3762 32.1543 21.5903 31.7735 21.9712L21.9709 31.7735C21.5901 32.1543 21.376 32.6711 21.376 33.2098C21.376 33.7485 21.5901 34.2652 21.9709 34.6461L24.7998 37.4747C23.85 39.25 23.0786 41.1117 22.4946 43.0377H18.4951C17.3732 43.0377 16.4639 43.9471 16.4639 45.0689V58.9316C16.4639 60.0535 17.3732 60.9629 18.4951 60.9629H22.4946C23.0786 62.8887 23.8498 64.7503 24.7998 66.5256L21.9709 69.3543C21.5901 69.7352 21.376 70.2519 21.376 70.7906C21.376 71.3293 21.5901 71.846 21.9709 72.2269L31.7735 82.0292C32.1543 82.41 32.6711 82.6241 33.2097 82.6241C33.7484 82.6241 34.2652 82.41 34.646 82.0292L37.4747 79.2005C39.25 80.1503 41.1114 80.9217 43.0376 81.5055V85.505C43.0376 86.6269 43.947 87.5362 45.0689 87.5362H58.9316C60.0533 87.5362 60.9628 86.6269 60.9628 85.505V81.5055C62.8886 80.9215 64.7505 80.1501 66.5258 79.2003L69.3545 82.0292ZM58.4445 77.986C57.5376 78.2101 56.9004 79.0238 56.9004 79.9579V83.4738H47.1001V79.9579C47.1001 79.0238 46.4629 78.2101 45.5562 77.986C42.957 77.3437 40.4763 76.3157 38.183 74.9306C37.3831 74.4476 36.3573 74.5725 35.6966 75.2331L33.2097 77.7199L26.2798 70.7902L28.7668 68.3031C29.4274 67.6426 29.5523 66.6164 29.0693 65.8167C27.6842 63.5232 26.6562 61.0427 26.0141 58.4438C25.7901 57.5368 24.9763 56.8996 24.0422 56.8996H20.5263V47.0993H24.0422C24.9763 47.0993 25.7901 46.4621 26.0141 45.5552C26.6562 42.9562 27.6842 40.4757 29.0693 38.1822C29.5523 37.3825 29.4274 36.3564 28.7668 35.6958L26.2798 33.2088L33.2097 26.279L35.6966 28.7659C36.3571 29.4266 37.3833 29.5513 38.183 29.0683C40.4763 27.6832 42.9568 26.6554 45.5562 26.0129C46.4629 25.7889 47.1001 24.9752 47.1001 24.041V20.5251H56.9004V24.041C56.9004 24.9752 57.5376 25.7889 58.4445 26.0129C61.0435 26.6552 63.5242 27.683 65.8175 29.0683C66.6174 29.5511 67.6427 29.4266 68.3039 28.7659L70.7907 26.2788L77.7205 33.2086L75.2336 35.6956C74.5731 36.3561 74.4484 37.3823 74.9314 38.182C76.3161 40.4749 77.3441 42.9556 77.9866 45.5552C78.2108 46.4619 79.0243 47.0991 79.9585 47.0991H83.4741V56.8994H79.9585C79.0243 56.8994 78.2108 57.5364 77.9866 58.4433C77.3441 61.0429 76.3161 63.5237 74.9314 65.8165C74.4484 66.6162 74.5731 67.6424 75.2336 68.3029L77.7205 70.79L70.7907 77.7197L68.3039 75.2327C67.6429 74.5719 66.6168 74.4476 65.8175 74.9302C63.5242 76.3159 61.0435 77.3439 58.4445 77.986Z" fill="black"/>
<path d="M69.3775 60.86V43.1398C69.3775 42.414 68.9904 41.7435 68.3619 41.3807L53.0156 32.5205C52.3871 32.1577 51.6128 32.1577 50.9843 32.5205L35.6382 41.3807C35.0097 41.7435 34.6226 42.414 34.6226 43.1398V60.86C34.6226 61.5858 35.0097 62.2563 35.6382 62.6191L50.9843 71.4793C51.2985 71.6609 51.6491 71.7515 51.9999 71.7515C52.3507 71.7515 52.7013 71.6607 53.0156 71.4793L68.3619 62.6191C68.9904 62.2563 69.3775 61.5858 69.3775 60.86ZM51.9999 36.625L63.2838 43.1398L51.9999 49.6545L40.7162 43.1398L51.9999 36.625ZM38.685 46.6579L49.9687 53.1726V66.2022L38.685 59.6874V46.6579ZM54.0312 66.2019V53.1726L65.3151 46.6579V59.6874L54.0312 66.2019Z" fill="black"/>
<path d="M52 4.37337C60.0902 4.37337 68.0798 6.44523 75.1052 10.3649C75.4184 10.5396 75.7581 10.6227 76.093 10.6227C76.8054 10.6227 77.4968 10.2471 77.8685 9.58064C78.4151 8.60097 78.0641 7.36375 77.0845 6.81715C69.4556 2.5607 60.7816 0.310913 52 0.310913C50.8781 0.310913 49.9688 1.22029 49.9688 2.34214C49.9688 3.46399 50.8781 4.37337 52 4.37337Z" fill="#231F20"/>
<path d="M102.47 31.5646C101.402 31.2934 100.321 31.9207 100.019 32.9706C97.9945 27.8911 95.1658 23.1167 91.6611 18.9137C90.9423 18.0519 89.6616 17.9363 88.8001 18.6543C87.9387 19.3728 87.8227 20.6537 88.5409 21.5151C92.005 25.6698 94.7547 30.4285 96.6393 35.4908L95.5428 34.7711C94.605 34.1557 93.3456 34.4171 92.73 35.3549C92.1145 36.2927 92.3757 37.5521 93.3135 38.1675L99.1328 41.9869C99.4686 42.207 99.8565 42.32 100.248 42.32C100.496 42.32 100.745 42.2745 100.982 42.1823C101.594 41.9448 102.054 41.426 102.216 40.7901L103.936 34.0344C104.214 32.9473 103.557 31.8417 102.47 31.5646Z" fill="#231F20"/>
<path d="M52.0001 99.6264C41.1344 99.6264 30.9033 96.0506 22.4127 89.286C15.6022 83.8598 10.3824 76.6142 7.36336 68.5106L8.45739 69.2286C9.395 69.8439 10.6544 69.5828 11.27 68.6448C11.8855 67.707 11.6243 66.4476 10.6863 65.8322L4.86698 62.0129C4.31814 61.6527 3.62915 61.58 3.01755 61.8174C2.40554 62.0549 1.94628 62.5737 1.78418 63.2097L0.0633263 69.9653C-0.21353 71.0524 0.443166 72.158 1.53028 72.4351C1.69847 72.478 1.86706 72.4985 2.03321 72.4985C2.91903 72.4985 3.72665 71.9137 3.98157 71.0297C7.31096 79.375 12.8048 86.8249 19.8812 92.4632C29.0985 99.8071 40.2049 103.689 52.0001 103.689C53.1217 103.689 54.0313 102.779 54.0313 101.658C54.0313 100.536 53.1219 99.6264 52.0001 99.6264Z" fill="#231F20"/>
<path d="M101.658 49.9686C100.536 49.9686 99.6267 50.878 99.6267 51.9999C99.6267 62.8655 96.051 73.0966 89.2863 81.5872C83.8601 88.3977 76.6145 93.6175 68.5109 96.6365L69.229 95.5425C69.8444 94.6047 69.5832 93.3453 68.6454 92.7299C67.7074 92.1144 66.4482 92.376 65.8325 93.3137L62.0132 99.1329C61.6531 99.6818 61.5804 100.371 61.8178 100.983C62.0555 101.594 62.574 102.054 63.21 102.216L69.9659 103.937C70.1343 103.979 70.3027 104 70.4688 104C71.3756 104 72.2017 103.388 72.4359 102.47C72.7074 101.403 72.0796 100.321 71.0296 100.019C79.3754 96.6894 86.8255 91.1955 92.4638 84.1189C99.8075 74.9016 103.689 63.7952 103.689 52.0001C103.689 50.878 102.78 49.9686 101.658 49.9686Z" fill="#231F20"/>
<path d="M2.34227 54.0311C3.46411 54.0311 4.3735 53.1217 4.3735 51.9999C4.3735 41.1342 7.94927 30.9031 14.7139 22.4125C20.1401 15.602 27.3857 10.3822 35.4893 7.36316L34.7713 8.45718C34.1558 9.395 34.417 10.6544 35.355 11.2698C35.6985 11.4953 36.0853 11.6032 36.4677 11.6032C37.1291 11.6032 37.7777 11.2806 38.1679 10.6863L41.9872 4.86698C42.3473 4.31835 42.4201 3.62935 42.1826 3.01755C41.9452 2.40554 41.4264 1.94628 40.7904 1.78418L34.0347 0.0633263C32.9482 -0.21353 31.8418 0.443166 31.565 1.53028C31.2934 2.59668 31.921 3.67871 32.9712 3.98116C24.6253 7.31055 17.1751 12.8044 11.5366 19.8812C4.19292 29.0985 0.311035 40.2049 0.311035 51.9999C0.311035 53.1217 1.22042 54.0311 2.34227 54.0311Z" fill="#231F20"/>
<path d="M83.6445 15.7755C84.7664 15.7755 85.6758 14.8661 85.6758 13.7443C85.6758 12.6224 84.7664 11.713 83.6445 11.713C82.5227 11.713 81.6133 12.6224 81.6133 13.7443C81.6133 14.8661 82.5227 15.7755 83.6445 15.7755Z" fill="#231F20"/>
</svg>
