<svg width="84" height="84" viewBox="0 0 84 84" fill="none" xmlns="http://www.w3.org/2000/svg">
<g clip-path="url(#clip0_863_17943)">
<path d="M56.3684 0C54.6217 0 54.6046 2.6227 56.3783 2.62244C66.1011 2.62101 74.9342 8.24904 79.0415 17.0548C83.1489 25.8606 81.7705 36.2367 75.5194 43.6817C69.9035 50.3702 61.2719 53.5778 52.7665 52.3411L54.8377 50.8568C56.2999 49.8007 54.771 47.6875 53.3149 48.724L48.7905 51.9617C48.1929 52.3818 48.0535 53.2093 48.4805 53.8023L51.7257 58.3268C52.741 59.7784 54.9086 58.2231 53.8585 56.7964L52.5461 54.9661C61.8914 56.2674 71.3674 52.7131 77.5342 45.3684C84.4369 37.1472 85.9486 25.6695 81.4126 15.9448C76.6406 5.82284 66.7102 0 56.3684 0ZM56.4364 9.1747C46.3013 9.1747 38.067 17.4484 38.067 27.6138C38.067 37.7792 46.3013 46.0503 56.4364 46.0503C66.5715 46.0503 74.8161 37.7792 74.8161 27.6138C74.8161 17.4484 66.5715 9.1747 56.4364 9.1747ZM56.4364 11.8022C65.1476 11.8022 72.1911 18.8618 72.1911 27.6138C72.1911 36.3658 65.1476 43.4253 56.4364 43.4253C47.7252 43.4253 40.6944 36.3658 40.6944 27.6138C40.6944 18.8618 47.7252 11.8022 56.4364 11.8022ZM56.4414 15.7526C55.7982 15.7488 55.1527 16.1812 55.1237 17.0625V18.4366C52.5525 19.0157 50.5993 21.2559 50.5993 24.0044C50.5993 25.9396 51.576 27.0457 52.75 27.6189C53.924 28.1922 55.1737 28.2752 56.3055 28.3931C57.4373 28.5112 58.4555 28.663 58.9791 28.9186C59.3031 29.0986 59.6584 29.2728 59.6584 30.167C59.6584 31.8429 58.2784 33.2418 56.4901 33.2586C54.9888 33.2288 53.8109 32.3071 53.3114 30.6617C52.7357 29.0083 50.3278 29.7749 50.8044 31.4564C51.6489 34.0726 53.4062 35.2779 55.1237 35.7195V36.75C55.2175 38.5239 57.723 38.4599 57.7487 36.75V35.7323C60.3252 35.155 62.2833 32.8886 62.2833 30.167C62.2833 28.2575 61.3067 27.1361 60.1327 26.5628C58.9587 25.9895 57.709 25.9065 56.5772 25.7886C55.4455 25.6706 54.4272 25.5113 53.9035 25.2554C53.5141 25.0654 53.2243 24.8134 53.2243 24.0044C53.2243 22.2979 54.6043 20.9604 56.3926 20.9436C58.0017 21.0061 59.0462 21.8515 59.5713 23.5122C60.1318 25.134 62.5286 24.4444 62.0809 22.7252C61.431 20.67 60.0488 19.0483 57.7487 18.4647V17.0625C57.7239 16.1963 57.0845 15.7563 56.4414 15.7526ZM18.9334 55.2532C17.4284 55.9738 16.183 56.6111 15.2421 57.1194C14.5613 55.9317 13.2735 55.1276 11.8199 55.1276H3.9451C1.73573 55.1276 0 56.9141 0 59.0728V77.4401C0 79.5988 1.75022 81.3853 3.9451 81.3853H11.8199C13.9785 81.3853 15.7553 79.6471 15.7522 77.4401L15.7548 77.2144C18.315 76.7997 19.4383 76.2423 22.3124 76.1326C23.9348 76.1327 26.9702 78.4321 28.9413 79.8241C31.7501 81.8068 36.093 83.9999 39.3741 83.9999C40.3618 83.9999 41.3514 83.675 42.6579 83.1874C49.8382 80.503 64.9836 71.9346 73.806 66.7734C75.7595 65.6931 76.5666 63.3714 75.8926 61.3439C75.7964 61.0542 75.6709 60.7685 75.5131 60.4954C74.3031 58.3995 71.8467 57.889 69.4583 58.7035L51.0914 65.0636C50.7699 63.7035 49.9053 62.4855 48.6074 61.7361C43.4739 58.9835 38.1516 56.1552 32.9014 54.0149C31.2501 53.3877 29.3039 52.5197 27.4008 52.5009C25.4978 52.4821 21.8116 53.8753 18.9334 55.2532ZM31.925 56.4452C37.3052 58.7299 42.0181 61.145 47.2901 64.0126C48.7628 64.863 48.8552 66.5643 48.2591 67.5964C47.5594 68.8083 45.9443 69.2962 44.6652 68.5577L36.7083 63.9639C35.1503 62.9094 33.7074 65.4133 35.401 66.2326L43.3553 70.8238C45.8544 72.2667 49.0849 71.4056 50.5277 68.9063C50.7167 68.5789 50.875 68.2278 50.9866 67.881L70.3173 61.1826C72.0056 60.6081 73.0036 61.1974 73.3575 62.0464C73.7117 62.8957 73.4215 64.0052 72.5372 64.4766C62.2715 70.394 48.9108 77.9875 41.7404 80.7265C40.546 81.172 39.5803 81.3853 39.3743 81.3853C37.4056 81.3853 33.2205 79.6385 30.4513 77.6837C28.5731 76.4197 25.1821 73.5551 22.3125 73.5078C20.1891 73.5127 18.0519 74.1261 15.755 74.5485V59.8418C15.755 59.8418 17.9461 58.6229 20.0538 57.627C22.776 56.3407 25.7629 55.1276 27.261 55.1375C28.7592 55.1474 30.6243 55.9216 31.925 56.4452Z" fill="white"/>
<path d="M56.3783 2.62244C54.6046 2.6227 54.6217 0 56.3684 0C66.7102 0 76.6406 5.82284 81.4126 15.9448C85.9486 25.6695 84.4369 37.1472 77.5342 45.3684C71.3674 52.7131 61.8914 56.2674 52.5461 54.9661L53.8585 56.7964C54.9086 58.2231 52.741 59.7784 51.7257 58.3268L48.4805 53.8023C48.0535 53.2093 48.1929 52.3818 48.7905 51.9617L53.3149 48.724C54.771 47.6875 56.2999 49.8007 54.8377 50.8568L52.7665 52.3411C61.2719 53.5778 69.9035 50.3702 75.5194 43.6817C81.7705 36.2367 83.1489 25.8606 79.0415 17.0548C74.9342 8.24904 66.1011 2.62101 56.3783 2.62244Z" fill="white"/>
<circle cx="56" cy="27" r="12" fill="#0D0C0C"/>
<path d="M61.2143 22.7881H59.2238C59.119 22.3978 58.9619 22.0074 58.7 21.6729H61.2143C61.6333 21.6729 62 21.2825 62 20.8364C62 20.3903 61.6333 20 61.2143 20H54.8238H51.7857C51.3667 20 51 20.3903 51 20.8364C51 21.2825 51.3667 21.6729 51.7857 21.6729H54.8238C56.4476 21.6729 57.181 22.119 57.5476 22.7881H51.7857C51.3667 22.7881 51 23.1784 51 23.6245C51 24.0706 51.3667 24.461 51.7857 24.461H57.8095C57.7571 25.632 57.2857 26.6914 54.8238 26.6914H51.7857C51.4714 26.6914 51.1571 26.9145 51.0524 27.1933C50.9476 27.5279 51 27.8625 51.2095 28.0855L57.4952 34.7769C57.6524 34.9442 57.8619 35 58.0714 35C58.281 35 58.4905 34.9442 58.6476 34.7769C58.9619 34.4424 58.9619 33.9405 58.6476 33.6059L53.7238 28.3643H54.8238C58.5952 28.3643 59.3286 26.0223 59.381 24.461H61.2143C61.6333 24.461 62 24.0706 62 23.6245C62 23.1784 61.6333 22.7881 61.2143 22.7881Z" fill="#ED3748"/>
</g>
<defs>
<clipPath id="clip0_863_17943">
<rect width="84" height="84" fill="white"/>
</clipPath>
</defs>
</svg>
