<svg width="84" height="84" viewBox="0 0 84 84" fill="none" xmlns="http://www.w3.org/2000/svg">
<path fill-rule="evenodd" clip-rule="evenodd" d="M29.5489 31.3367C25.5666 33.6356 18.3536 37.8003 14.3713 40.0995C11.7598 41.6071 10.1509 44.3935 10.1509 47.4091V62.1037C10.1509 65.1192 11.7598 67.9057 14.3713 69.4136C18.3536 71.7127 25.5666 75.8772 29.5489 78.1763C32.1605 79.6839 35.3779 79.6839 37.9895 78.1763C41.9718 75.8772 49.1851 71.7127 53.1671 69.4136C55.7786 67.9057 57.3875 65.1192 57.3875 62.1037C57.3875 58.112 57.3875 51.4008 57.3875 47.4091C57.3875 44.3935 55.7786 41.6071 53.1671 40.0995C49.1851 37.8003 41.9718 33.6356 37.9895 31.3367C35.3779 29.8288 32.1605 29.8288 29.5489 31.3367ZM30.2042 32.4718C32.4102 31.1983 35.1281 31.1983 37.3342 32.4718C41.3161 34.771 48.5294 38.9354 52.5117 41.2346C54.7178 42.5081 56.0765 44.862 56.0765 47.4091V62.1037C56.0765 64.6511 54.7178 67.0047 52.5117 68.2782C48.5294 70.5773 41.3165 74.7421 37.3342 77.0409C35.1281 78.3148 32.4102 78.3148 30.2042 77.0409C26.2222 74.7421 19.0089 70.5773 15.0267 68.2782C12.8209 67.0047 11.4618 64.6511 11.4618 62.1037C11.4618 58.112 11.4618 51.4008 11.4618 47.4091C11.4618 44.862 12.8209 42.5081 15.0267 41.2346L30.2042 32.4718ZM53.1409 47.8177C53.1409 47.5837 53.016 47.3672 52.8131 47.2502C52.6105 47.1331 52.3607 47.1331 52.1578 47.2502L37.3342 55.8087C36.8176 56.1067 36.2733 56.3351 35.7136 56.4936C35.4317 56.5736 35.237 56.8312 35.237 57.1244V73.7269C35.237 73.9609 35.3619 74.1774 35.5648 74.2944C35.7674 74.4114 36.0175 74.4114 36.2201 74.2944L51.0438 65.7358C52.3415 64.9868 53.1409 63.6022 53.1409 62.1037V47.8177ZM15.3806 47.2502C15.178 47.1331 14.9279 47.1331 14.7253 47.2502C14.5223 47.3672 14.3974 47.5837 14.3974 47.8177V62.1037C14.3974 63.6022 15.1969 64.9868 16.4946 65.7358L31.3182 74.2944C31.5212 74.4114 31.771 74.4114 31.9736 74.2944C32.1765 74.1774 32.3014 73.9609 32.3014 73.7269V57.1244C32.3014 56.8312 32.1067 56.5736 31.8248 56.4936C31.2651 56.3351 30.7208 56.1067 30.2042 55.8087L15.3806 47.2502ZM51.83 48.9531V62.1037C51.83 63.1337 51.2804 64.0857 50.3885 64.6007L36.548 72.5914V57.6042C37.0428 57.4318 37.5258 57.2116 37.9895 56.9438L51.83 48.9531ZM15.7084 48.9531L29.5489 56.9438C30.0126 57.2116 30.4956 57.4318 30.9907 57.6045C30.9904 57.6042 30.9904 72.5914 30.9904 72.5914L17.1499 64.6007C16.258 64.0857 15.7084 63.134 15.7084 62.1037V48.9531ZM50.6898 44.7078C50.8928 44.5908 51.0177 44.3744 51.0177 44.1403C51.0177 43.9062 50.8928 43.6898 50.6898 43.5727L35.8662 35.0142C34.5688 34.2651 32.9699 34.2651 31.6722 35.0142L16.8485 43.5727C16.6456 43.6898 16.5207 43.9062 16.5207 44.1403C16.5207 44.3744 16.6456 44.5908 16.8485 44.7078L31.6722 53.2664C32.9699 54.0155 34.5685 54.0155 35.8662 53.2664L50.6898 44.7078ZM49.0514 44.1403L35.2109 52.131C34.3187 52.646 33.2197 52.646 32.3275 52.131L18.487 44.1403L32.3275 36.1493C33.2197 35.6343 34.3187 35.6343 35.2109 36.1493L49.0514 44.1403Z" fill="white" stroke="white"/>
<path fill-rule="evenodd" clip-rule="evenodd" d="M73.7438 11.8651C73.7438 7.84879 70.4832 4.58789 66.4669 4.58789H49.9847C45.9684 4.58789 42.7075 7.84879 42.7075 11.8651V25.1084C42.7075 29.1247 45.9684 32.3856 49.9847 32.3856H51.4665C51.8566 32.3856 52.2259 32.5611 52.472 32.8641C52.7177 33.1668 52.8143 33.5644 52.734 33.946L52.7337 33.9486C52.5006 35.0604 52.9637 36.2027 53.9053 36.8385C54.8466 37.4744 56.0793 37.4772 57.0237 36.8458L63.3146 32.6404C63.5634 32.474 63.8557 32.3856 64.1546 32.3856H66.4669C70.4832 32.3856 73.7438 29.1247 73.7438 25.1084V11.8651ZM72.4331 11.8651V25.1084C72.4331 28.4011 69.7596 31.0746 66.4669 31.0746C66.4669 31.0746 65.3784 31.0746 64.1546 31.0746C63.5962 31.0746 63.0503 31.2401 62.5863 31.5506L56.2951 35.756C55.7936 36.0914 55.1389 36.0898 54.639 35.7522C54.1388 35.4143 53.8931 34.8078 54.0167 34.2172L54.0173 34.215C54.1781 33.4468 53.9843 32.6467 53.4894 32.0376C52.9945 31.4282 52.2514 31.0746 51.4665 31.0746C51.4237 31.0746 49.9847 31.0746 49.9847 31.0746C46.6917 31.0746 44.0185 28.4011 44.0185 25.1084V11.8651C44.0185 8.57239 46.6917 5.89886 49.9847 5.89886H66.4669C69.7596 5.89886 72.4331 8.57239 72.4331 11.8651Z" fill="#ED3748"/>
</svg>
