<svg width="84" height="84" viewBox="0 0 84 84" fill="none" xmlns="http://www.w3.org/2000/svg">
<path d="M26.9062 25.5938C31.2555 25.5938 34.7812 22.068 34.7812 17.7188C34.7812 13.3695 31.2555 9.84375 26.9062 9.84375C22.557 9.84375 19.0312 13.3695 19.0312 17.7188C19.0312 22.068 22.557 25.5938 26.9062 25.5938Z" fill="#FFCA29"/>
<path d="M26.9062 25.5938C31.2555 25.5938 34.7812 22.068 34.7812 17.7188C34.7812 13.3695 31.2555 9.84375 26.9062 9.84375C22.557 9.84375 19.0312 13.3695 19.0312 17.7188C19.0312 22.068 22.557 25.5938 26.9062 25.5938Z" fill="#ED3748"/>
<path d="M22.1812 25.5938H13.7812C13.0594 25.5938 12.4031 25.305 11.9306 24.8194C11.445 24.3469 11.1562 23.6907 11.1562 22.9688C11.1562 22.2732 11.4188 21.6432 11.8913 21.1707C12.4556 21.4857 13.1119 21.6563 13.7812 21.6563H18.6113C19.3856 23.2969 20.6325 24.6619 22.1812 25.5938Z" fill="#ED3748"/>
<path d="M18.0994 20.3438H13.7812C13.0594 20.3438 12.4031 20.055 11.9306 19.5694C11.445 19.0969 11.1562 18.4407 11.1562 17.7188C11.1562 17.0232 11.4188 16.3932 11.8913 15.9207C12.4556 16.2357 13.1119 16.4063 13.7812 16.4063H17.8106C17.745 16.8394 17.7188 17.2725 17.7188 17.7188C17.7188 18.6244 17.85 19.5169 18.0994 20.3438Z" fill="#ED3748"/>
<path d="M22.1812 9.84375C20.2387 11.0119 18.7687 12.8756 18.0994 15.0938H13.7812C13.0594 15.0938 12.4031 14.805 11.9306 14.3194C11.445 13.8469 11.1562 13.1906 11.1562 12.4688C11.1562 11.025 12.3375 9.84375 13.7812 9.84375H22.1812Z" fill="#ED3748"/>
<path d="M64.2337 13.8864C63.7481 13.6764 63.1837 13.7945 62.8031 14.162L58.4719 18.4932L54.1275 14.162C53.6025 13.6501 52.7756 13.6501 52.2638 14.162L47.9456 18.4932L43.6144 14.162C43.1025 13.6501 42.2625 13.6501 41.7506 14.162L37.4325 18.4932L36.0544 17.1151C36.0806 17.312 36.0938 17.522 36.0938 17.7189C36.0938 18.677 35.9494 19.5957 35.6869 20.462L36.5006 21.2757C37.0125 21.7876 37.8525 21.7876 38.3644 21.2757L42.6825 16.9445L47.0138 21.2757C47.5256 21.7876 48.3656 21.7876 48.8775 21.2757L53.1956 16.9445L57.54 21.2757C58.0519 21.7876 58.8919 21.7876 59.4037 21.2757L62.4225 18.257V62.3439H29.4525C28.7306 62.3439 28.14 62.9345 28.14 63.6564V68.9457C28.14 69.6414 27.8644 70.2845 27.3788 70.7701C26.8931 71.2557 26.25 71.5314 25.5544 71.5314C24.1237 71.5314 22.9688 70.3764 22.9688 68.9457V26.9064H20.3438V68.9457C20.3438 71.8201 22.68 74.1564 25.5544 74.1564C26.9456 74.1564 28.2581 73.6182 29.2425 72.6339C30.2269 71.6495 30.765 70.337 30.765 68.9457V64.9689H63.735C64.4569 64.9689 65.0475 64.3782 65.0475 63.6564V15.0939C65.0475 14.5689 64.7325 14.0832 64.2337 13.8864Z" fill="white"/>
<path d="M67.6329 74.1562H25.5542C24.8297 74.1562 24.2417 73.5682 24.2417 72.8438C24.2417 72.1193 24.8297 71.5312 25.5542 71.5312C26.2446 71.5312 26.8943 71.2622 27.3825 70.7739C27.8721 70.2844 28.1411 69.6347 28.1411 68.9443V63.6562C28.1411 62.9317 28.7291 62.3438 29.4536 62.3438H71.5311C72.2556 62.3438 72.8436 62.9317 72.8436 63.6562V68.9456C72.8436 71.8187 70.506 74.1562 67.6329 74.1562ZM30.0797 71.5312H67.6329C69.0583 71.5312 70.2186 70.371 70.2186 68.9456V64.9688H30.7648V68.9456C30.7648 69.867 30.5273 70.7529 30.0797 71.5312Z" fill="white"/>
<path d="M34.7812 37.4062H29.5312C28.8067 37.4062 28.2188 36.8183 28.2188 36.0938V30.8438C28.2188 30.1192 28.8067 29.5312 29.5312 29.5312H34.7812C35.5058 29.5312 36.0938 30.1192 36.0938 30.8438V36.0938C36.0938 36.8183 35.5058 37.4062 34.7812 37.4062ZM29.8438 35.7812H34.4688V31.1562H29.8438V35.7812Z" fill="white"/>
<path d="M34.7812 47.9062H29.5312C28.8067 47.9062 28.2188 47.3183 28.2188 46.5938V41.3438C28.2188 40.6192 28.8067 40.0312 29.5312 40.0312H34.7812C35.5058 40.0312 36.0938 40.6192 36.0938 41.3438V46.5938C36.0938 47.3183 35.5058 47.9062 34.7812 47.9062ZM29.8438 46.2812H34.4688V41.6562H29.8438V46.2812Z" fill="white"/>
<path d="M34.7812 58.4062H29.5312C28.8067 58.4062 28.2188 57.8183 28.2188 57.0938V51.8438C28.2188 51.1192 28.8067 50.5312 29.5312 50.5312H34.7812C35.5058 50.5312 36.0938 51.1192 36.0938 51.8438V57.0938C36.0938 57.8183 35.5058 58.4062 34.7812 58.4062ZM29.8438 56.7812H34.4688V52.1562H29.8438V56.7812Z" fill="white"/>
<path d="M55.7812 34.7812H40.0312C39.3067 34.7812 38.7188 34.1932 38.7188 33.4688C38.7188 32.7442 39.3067 32.1562 40.0312 32.1562H55.7812C56.5058 32.1562 57.0938 32.7442 57.0938 33.4688C57.0938 34.1932 56.5058 34.7812 55.7812 34.7812Z" fill="white"/>
<path d="M55.7812 45.2812H40.0312C39.3067 45.2812 38.7188 44.6932 38.7188 43.9688C38.7188 43.2442 39.3067 42.6562 40.0312 42.6562H55.7812C56.5058 42.6562 57.0938 43.2442 57.0938 43.9688C57.0938 44.6932 56.5058 45.2812 55.7812 45.2812Z" fill="white"/>
<path d="M55.7812 55.7812H40.0312C39.3067 55.7812 38.7188 55.1932 38.7188 54.4688C38.7188 53.7442 39.3067 53.1562 40.0312 53.1562H55.7812C56.5058 53.1562 57.0938 53.7442 57.0938 54.4688C57.0938 55.1932 56.5058 55.7812 55.7812 55.7812Z" fill="white"/>
</svg>
