<svg width="84" height="84" viewBox="0 0 84 84" fill="none" xmlns="http://www.w3.org/2000/svg">
<g clip-path="url(#clip0_863_17948)">
<path d="M41.999 16.7255C42.905 16.7255 43.6396 15.9908 43.6396 15.0849V6.72754C43.6396 5.82159 42.9051 5.08691 41.999 5.08691C41.0929 5.08691 40.3584 5.82142 40.3584 6.72754V15.0849C40.3586 15.9908 41.0931 16.7255 41.999 16.7255Z" fill="#ED3748"/>
<path d="M29.6646 19.4206C29.9765 19.9156 30.5092 20.1866 31.0541 20.1866C31.353 20.1866 31.6557 20.1049 31.9272 19.9338C32.6937 19.4508 32.9234 18.4377 32.4404 17.6711L28.0691 10.7353C27.586 9.96881 26.5729 9.73896 25.8065 10.2221C25.04 10.7051 24.8103 11.7182 25.2933 12.4849L29.6646 19.4206Z" fill="#ED3748"/>
<path d="M52.0768 19.9342C52.3483 20.105 52.6507 20.1865 52.9493 20.1865C53.4943 20.1865 54.0273 19.9151 54.3392 19.4198L58.7059 12.4841C59.1886 11.7173 58.9584 10.7045 58.1915 10.2215C57.4244 9.739 56.412 9.96934 55.9291 10.7358L51.5624 17.6716C51.0798 18.4386 51.3101 19.4513 52.0768 19.9342Z" fill="#ED3748"/>
<path d="M83.4711 43.7115L80.6206 38.6756C80.174 37.8868 79.1729 37.6095 78.3849 38.0561C77.5962 38.5025 77.319 39.5034 77.7654 40.2918L80.6146 45.3255C80.7574 45.5785 80.7203 45.8225 80.6855 45.9454C80.6521 46.0636 80.5599 46.282 80.3187 46.4152L75.9254 48.8488C75.5351 49.0643 75.0257 48.9282 74.8129 48.5528L73.6968 46.5785C73.6922 46.5696 73.6869 46.5614 73.6822 46.5527L62.1437 26.1443C62.0011 25.8931 62.0372 25.6523 62.0713 25.5311C62.1043 25.4137 62.1958 25.197 62.437 25.0636L66.8355 22.6296C67.2308 22.4107 67.7277 22.5436 67.9438 22.9266L70.5153 27.4699C70.9617 28.2586 71.963 28.5357 72.7511 28.0896C73.5398 27.6434 73.817 26.6422 73.3708 25.8538L70.8004 21.3123C69.7042 19.3689 67.2134 18.6718 65.2476 19.7583L60.8492 22.1924C59.8975 22.7184 59.2099 23.5877 58.9133 24.6408C58.6334 25.6338 58.7335 26.6703 59.1917 27.58L56.7688 28.2822C55.7367 28.5808 55.1103 28.7427 54.7627 28.7427C54.7612 28.7427 54.7599 28.7427 54.7586 28.7427C54.5192 28.7419 54.2582 28.6505 53.5132 28.3683C53.1752 28.2404 52.7544 28.0809 52.2371 27.9004L47.9444 26.3998C45.5702 25.5706 44.4994 25.6152 42.948 25.7568L35.6282 26.4119C32.2914 26.7075 30.164 27.4603 28.9896 28.7657L24.8181 27.5571C25.267 26.6513 25.3633 25.6247 25.0861 24.6408C24.7894 23.5884 24.1023 22.7192 23.1516 22.1932L18.7557 19.758C16.7883 18.6705 14.296 19.3679 13.1996 21.3109L0.533281 43.7092C-0.00894549 44.6639 -0.143149 45.7742 0.155773 46.8359C0.452726 47.8901 1.14015 48.7603 2.09007 49.2857L6.48596 51.7205C7.11448 52.068 7.79731 52.233 8.47112 52.233C9.90256 52.233 11.2941 51.4884 12.0421 50.1678L12.5066 49.3462C13.7741 49.9042 14.8384 50.7148 15.5637 51.6746C14.8553 52.5024 14.409 53.5241 14.2839 54.6353C14.1185 56.1048 14.5336 57.5465 15.4526 58.6958C16.3638 59.8352 17.6668 60.5541 19.1239 60.7234C18.9696 62.1805 19.3864 63.6082 20.2984 64.7446C21.2411 65.9232 22.5734 66.6108 23.9671 66.7731C23.8136 68.228 24.2288 69.6544 25.1381 70.7915C26.0488 71.9333 27.3521 72.6537 28.8106 72.8231C28.6562 74.2812 29.0729 75.7097 29.985 76.8464C31.072 78.2055 32.6769 78.9131 34.297 78.9129C35.5065 78.9129 36.7245 78.5185 37.7413 77.7064L41.1765 74.9577C41.4493 74.74 41.6972 74.4993 41.9202 74.2401L43.8824 75.8075C44.8971 76.6173 46.1123 77.0107 47.3201 77.0106C48.9411 77.0104 50.5486 76.302 51.6371 74.9416C52.2108 74.2243 52.5741 73.4056 52.7381 72.5606C53.3119 72.7591 53.9176 72.8616 54.5351 72.8614C54.7422 72.8614 54.9505 72.85 55.1595 72.8268C56.6295 72.6636 57.944 71.9407 58.8573 70.7952C59.771 69.657 60.1877 68.2295 60.0337 66.7726C61.4264 66.61 62.7594 65.9226 63.7049 64.7444C64.6466 63.567 65.0246 62.1173 64.8766 60.7231C66.3328 60.5535 67.6352 59.8347 68.5442 58.6979C69.464 57.5518 69.8809 56.1121 69.7179 54.6438C69.5942 53.5291 69.1477 52.5041 68.4379 51.6739C69.1611 50.7145 70.2233 49.9029 71.4916 49.3452L71.9571 50.1685C72.7045 51.4885 74.0955 52.2329 75.5272 52.2329C76.2014 52.2327 76.8849 52.0677 77.514 51.7199L81.9075 49.2862C82.8571 48.7612 83.5442 47.8923 83.8423 46.8398C84.1428 45.7792 84.0114 44.6688 83.4711 43.7115ZM9.18643 48.552C8.97315 48.9287 8.46341 49.0645 8.07474 48.8494L3.67902 46.4147C3.43899 46.2818 3.34745 46.0643 3.31398 45.9463C3.27969 45.8241 3.2431 45.5815 3.3878 45.3272L16.0561 22.9244C16.2011 22.6673 16.4744 22.5233 16.7582 22.5233C16.8964 22.5233 17.0368 22.5573 17.1664 22.629L21.561 25.0633C21.5615 25.0636 21.562 25.064 21.5625 25.0641C21.803 25.1972 21.8944 25.4139 21.9275 25.5312C21.9616 25.6525 21.9977 25.8933 21.8535 26.1473L9.18643 48.552ZM21.1587 56.9946C20.6961 57.3652 20.1118 57.5328 19.5148 57.4663C18.9175 57.4 18.3851 57.109 18.0153 56.6467C17.6447 56.1832 17.4777 55.5991 17.5448 55.0023C17.6115 54.4079 17.9027 53.8781 18.3677 53.5081L24.5099 48.5984C25.4739 47.8288 26.885 47.9871 27.6554 48.9493C28.0259 49.4125 28.1931 49.9956 28.1261 50.5906C28.0595 51.1837 27.7681 51.713 27.3058 52.0808C27.2956 52.0888 27.287 52.0979 27.2771 52.1062L21.1602 56.9935C21.1597 56.9938 21.1592 56.9943 21.1587 56.9946ZM22.8591 62.6932C22.4888 62.2317 22.3214 61.6501 22.3876 61.0555C22.4537 60.4605 22.7452 59.9282 23.2082 59.557L23.2087 59.5566C23.209 59.5565 23.2093 59.5561 23.2097 59.556C23.2098 59.556 23.2098 59.5558 23.21 59.5556L32.0572 52.4872C33.0211 51.7174 34.4325 51.8746 35.2028 52.8381C35.5728 53.3006 35.7399 53.883 35.6738 54.4779C35.6075 55.0735 35.3152 55.6057 34.8511 55.9765L26.0061 63.0423C25.0411 63.8124 23.6302 63.657 22.8591 62.6932ZM29.2014 69.5658C28.6042 69.4995 28.0723 69.2081 27.702 68.7438C27.3321 68.2813 27.1649 67.6989 27.231 67.104C27.2973 66.5089 27.5892 65.9772 28.0526 65.6064C28.053 65.6061 28.0535 65.6058 28.0538 65.6055L34.1763 60.7144C34.1835 60.7088 34.1914 60.7041 34.1986 60.6983C35.16 59.9287 36.5709 60.0854 37.342 61.0465C37.7126 61.5098 37.8798 62.0939 37.8127 62.6907C37.7458 63.2851 37.4546 63.8149 36.9898 64.1848L30.8478 69.0944C30.3836 69.465 29.7987 69.6317 29.2014 69.5658ZM39.9504 70.8976C39.884 71.4927 39.5925 72.0237 39.1282 72.3945L35.6929 75.1437C34.7277 75.914 33.3167 75.759 32.546 74.7949C32.1757 74.3337 32.0082 73.7516 32.0743 73.1559C32.1404 72.5602 32.4316 72.0288 32.8938 71.6597C32.8943 71.6594 32.8949 71.6589 32.8954 71.6585L36.3299 68.9131C36.3317 68.9116 36.3337 68.9105 36.3355 68.9092C37.2997 68.1397 38.7108 68.2974 39.4812 69.2601C39.8502 69.7218 40.0171 70.3031 39.9504 70.8976ZM65.9836 56.6465C65.6138 57.1088 65.0812 57.4 64.484 57.4663C63.8873 57.5334 63.3028 57.3654 62.8401 56.9946C62.84 56.9945 62.8396 56.9943 62.8393 56.9941C62.8391 56.994 62.8388 56.9938 62.8386 56.9936L58.4487 53.4862C57.7406 52.9205 56.7083 53.036 56.1429 53.7437C55.5774 54.4515 55.6927 55.4839 56.4005 56.0495L60.789 59.5558C61.7517 60.3267 61.9104 61.7351 61.1442 62.693C60.3711 63.6564 58.96 63.8131 57.9967 63.0415L53.2348 59.2415C52.5267 58.6764 51.4944 58.7924 50.9292 59.5005C50.3641 60.2086 50.48 61.2409 51.1882 61.8061L55.9479 65.6043C56.4117 65.9757 56.7035 66.5083 56.7698 67.104C56.8359 67.6986 56.6686 68.2803 56.2952 68.7454C55.9262 69.2081 55.3943 69.4993 54.7973 69.5658C54.1996 69.6315 53.6147 69.4647 53.1524 69.0957L50.783 67.2008C50.7789 67.1975 50.7753 67.1941 50.7712 67.1908L48.7693 65.5904L48.3951 65.2911C47.6871 64.7251 46.6549 64.8401 46.0892 65.5475C46.0185 65.6361 45.9583 65.7296 45.9087 65.8268C45.6711 66.2911 45.6751 66.8356 45.898 67.2922C46.0012 67.5037 46.1499 67.6968 46.3458 67.8534L48.7281 69.7587C49.6844 70.5309 49.8408 71.9345 49.0751 72.8918C48.3045 73.855 46.8932 74.0123 45.9297 73.2437L43.2268 71.0843C43.3393 69.6801 42.9233 68.3107 42.0432 67.2103C41.4962 66.5267 40.8178 66.0089 40.0728 65.6616C40.6188 64.9041 40.9655 64.0142 41.0731 63.0574C41.2385 61.5881 40.8234 60.1463 39.9027 58.995C39.3556 58.3132 38.678 57.7966 37.9344 57.4501C38.4814 56.6903 38.8281 55.7986 38.9347 54.8405C39.098 53.3744 38.6826 51.9354 37.7651 50.7881C36.1865 48.8145 33.5169 48.2145 31.295 49.1575C31.1172 48.3408 30.7538 47.5704 30.2173 46.8995C28.3178 44.5259 24.8393 44.1375 22.4619 46.0344L18.0689 49.5459C17.0755 48.2782 15.7251 47.2268 14.1285 46.4771L23.1649 30.4939L27.9762 31.888C27.9982 32.1454 28.0398 32.4161 28.1096 32.7029C29.2742 37.4915 33.6833 39.7228 39.6162 38.5273C44.6152 37.5214 46.6732 39.0198 50.772 42.0046C51.1973 42.3142 51.6391 42.6359 52.1016 42.9671C55.0493 45.0819 58.1993 47.5676 60.3113 49.2524L65.6367 53.5085C66.0994 53.8776 66.3906 54.4092 66.4567 55.0054C66.5228 55.6011 66.3555 56.1832 65.9836 56.6465ZM65.9325 49.5449L62.3588 46.6887C60.2176 44.9807 57.0231 42.4602 54.0134 40.3008C53.5573 39.9741 53.1224 39.6573 52.7037 39.3525C48.4535 36.2575 45.3817 34.0213 38.9689 35.311C37.006 35.7065 32.3296 36.169 31.2981 31.9283C31.1528 31.3297 31.3004 31.1239 31.3632 31.0362C31.5826 30.7304 32.4653 29.986 35.9186 29.6802L43.2461 29.0244C44.4402 28.9155 45.0392 28.8607 46.8616 29.4973L51.1548 30.9981C51.632 31.1648 52.0136 31.3092 52.3505 31.4368C54.4176 32.2199 54.9654 32.2197 57.6812 31.4337L60.8463 30.5166L69.8705 46.4781C68.2734 47.2273 66.9243 48.2778 65.9325 49.5449Z" fill="white"/>
<path d="M75.5625 34.7154C76.4685 34.7154 77.2031 33.9784 77.2031 33.0723C77.2031 32.1661 76.4685 31.4316 75.5625 31.4316C74.6565 31.4316 73.9219 32.1663 73.9219 33.0723V33.0769C73.9219 33.983 74.6565 34.7154 75.5625 34.7154Z" fill="black"/>
</g>
<defs>
<clipPath id="clip0_863_17948">
<rect width="84" height="84" fill="white"/>
</clipPath>
</defs>
</svg>
