<svg width="84" height="84" viewBox="0 0 84 84" fill="none" xmlns="http://www.w3.org/2000/svg">
<g id="stock-market_6231443 1" clip-path="url(#clip0_863_25788)">
<path id="Vector" d="M14.0001 28H12.6001V25.2C12.6001 24.8287 12.4526 24.4726 12.19 24.2101C11.9275 23.9475 11.5714 23.8 11.2001 23.8C10.8288 23.8 10.4727 23.9475 10.2101 24.2101C9.9476 24.4726 9.8001 24.8287 9.8001 25.2V28H8.4001C7.65749 28 6.9453 28.295 6.4202 28.8202C5.8951 29.3453 5.6001 30.0574 5.6001 30.8V44.8C5.6001 45.5427 5.8951 46.2548 6.4202 46.7799C6.9453 47.3051 7.65749 47.6 8.4001 47.6H9.8001V50.4C9.8001 50.7714 9.9476 51.1274 10.2101 51.39C10.4727 51.6525 10.8288 51.8 11.2001 51.8C11.5714 51.8 11.9275 51.6525 12.19 51.39C12.4526 51.1274 12.6001 50.7714 12.6001 50.4V47.6H14.0001C14.7427 47.6 15.4549 47.3051 15.98 46.7799C16.5051 46.2548 16.8001 45.5427 16.8001 44.8V30.8C16.8001 30.0574 16.5051 29.3453 15.98 28.8202C15.4549 28.295 14.7427 28 14.0001 28ZM8.4001 44.8V30.8H14.0001V44.8H8.4001Z" fill="#ED3748"/>
<path id="Vector_2" d="M28.0001 37.8001H26.6001V35.0001C26.6001 34.6288 26.4526 34.2727 26.19 34.0101C25.9275 33.7476 25.5714 33.6001 25.2001 33.6001C24.8288 33.6001 24.4727 33.7476 24.2101 34.0101C23.9476 34.2727 23.8001 34.6288 23.8001 35.0001V37.8001H22.4001C21.6575 37.8001 20.9453 38.0951 20.4202 38.6202C19.8951 39.1453 19.6001 39.8575 19.6001 40.6001V54.6001C19.6001 55.3427 19.8951 56.0549 20.4202 56.58C20.9453 57.1051 21.6575 57.4001 22.4001 57.4001H23.8001V60.2001C23.8001 60.5714 23.9476 60.9275 24.2101 61.19C24.4727 61.4526 24.8288 61.6001 25.2001 61.6001C25.5714 61.6001 25.9275 61.4526 26.19 61.19C26.4526 60.9275 26.6001 60.5714 26.6001 60.2001V57.4001H28.0001C28.7427 57.4001 29.4549 57.1051 29.98 56.58C30.5051 56.0549 30.8001 55.3427 30.8001 54.6001V40.6001C30.8001 39.8575 30.5051 39.1453 29.98 38.6202C29.4549 38.0951 28.7427 37.8001 28.0001 37.8001ZM22.4001 54.6001V40.6001H28.0001V54.6001H22.4001Z" fill="#ED3748"/>
<path id="Vector_3" d="M42.0001 28H40.6001V25.2C40.6001 24.8287 40.4526 24.4726 40.19 24.2101C39.9275 23.9475 39.5714 23.8 39.2001 23.8C38.8288 23.8 38.4727 23.9475 38.2101 24.2101C37.9476 24.4726 37.8001 24.8287 37.8001 25.2V28H36.4001C35.6575 28 34.9453 28.295 34.4202 28.8202C33.8951 29.3453 33.6001 30.0574 33.6001 30.8V44.8C33.6001 45.5427 33.8951 46.2548 34.4202 46.7799C34.9453 47.3051 35.6575 47.6 36.4001 47.6H37.8001V50.4C37.8001 50.7714 37.9476 51.1274 38.2101 51.39C38.4727 51.6525 38.8288 51.8 39.2001 51.8C39.5714 51.8 39.9275 51.6525 40.19 51.39C40.4526 51.1274 40.6001 50.7714 40.6001 50.4V47.6H42.0001C42.7427 47.6 43.4549 47.3051 43.98 46.7799C44.5051 46.2548 44.8001 45.5427 44.8001 44.8V30.8C44.8001 30.0574 44.5051 29.3453 43.98 28.8202C43.4549 28.295 42.7427 28 42.0001 28ZM36.4001 44.8V30.8H42.0001V44.8H36.4001Z" fill="#ED3748"/>
<path id="Vector_4" d="M78.4 44.94V5.6C78.4 4.11479 77.81 2.69041 76.7598 1.6402C75.7096 0.589998 74.2852 0 72.8 0L5.6 0C4.11479 0 2.69041 0.589998 1.6402 1.6402C0.589998 2.69041 0 4.11479 0 5.6L0 68.6C0 70.0852 0.589998 71.5096 1.6402 72.5598C2.69041 73.61 4.11479 74.2 5.6 74.2H44.8V77C44.8022 78.8558 45.5404 80.635 46.8527 81.9473C48.165 83.2596 49.9442 83.9978 51.8 84H77C78.8558 83.9978 80.635 83.2596 81.9473 81.9473C83.2596 80.635 83.9978 78.8558 84 77V51.8C83.998 50.1869 83.4399 48.6238 82.4198 47.3742C81.3997 46.1246 79.98 45.2649 78.4 44.94ZM5.6 2.8H72.8C73.5426 2.8 74.2548 3.095 74.7799 3.6201C75.305 4.1452 75.6 4.85739 75.6 5.6V11.2H2.8V5.6C2.8 4.85739 3.095 4.1452 3.6201 3.6201C4.1452 3.095 4.85739 2.8 5.6 2.8ZM44.8 51.8V71.4H5.6C4.85739 71.4 4.1452 71.105 3.6201 70.5799C3.095 70.0548 2.8 69.3426 2.8 68.6V14H75.6V44.8H72.8V30.8C72.8 30.0574 72.505 29.3452 71.9799 28.8201C71.4548 28.295 70.7426 28 70 28H68.6V25.2C68.6 24.8287 68.4525 24.4726 68.1899 24.21C67.9274 23.9475 67.5713 23.8 67.2 23.8C66.8287 23.8 66.4726 23.9475 66.21 24.21C65.9475 24.4726 65.8 24.8287 65.8 25.2V28H64.4C63.6574 28 62.9452 28.295 62.4201 28.8201C61.895 29.3452 61.6 30.0574 61.6 30.8V44.8H58.8V40.6C58.8 39.8574 58.505 39.1452 57.9799 38.6201C57.4548 38.095 56.7426 37.8 56 37.8H54.6V35C54.6 34.6287 54.4525 34.2726 54.1899 34.01C53.9274 33.7475 53.5713 33.6 53.2 33.6C52.8287 33.6 52.4726 33.7475 52.21 34.01C51.9475 34.2726 51.8 34.6287 51.8 35V37.8H50.4C49.6574 37.8 48.9452 38.095 48.4201 38.6201C47.895 39.1452 47.6 39.8574 47.6 40.6V46.2364C46.7337 46.883 46.0297 47.7223 45.5437 48.6879C45.0578 49.6535 44.8032 50.719 44.8 51.8ZM70 30.8V44.8H64.4V30.8H70ZM56 40.6V44.8H51.8C51.3298 44.7995 50.8608 44.8464 50.4 44.94V40.6H56ZM81.2 77C81.2 78.1139 80.7575 79.1822 79.9698 79.9698C79.1822 80.7575 78.1139 81.2 77 81.2H51.8C50.6861 81.2 49.6178 80.7575 48.8302 79.9698C48.0425 79.1822 47.6 78.1139 47.6 77V51.8C47.6 50.6861 48.0425 49.6178 48.8302 48.8302C49.6178 48.0425 50.6861 47.6 51.8 47.6H77C78.1139 47.6 79.1822 48.0425 79.9698 48.8302C80.7575 49.6178 81.2 50.6861 81.2 51.8V77Z" fill="white"/>
<path id="Vector_5" d="M60.2002 61.5999H68.6002C69.3428 61.5999 70.055 61.3049 70.5801 60.7798C71.1052 60.2547 71.4002 59.5425 71.4002 58.7999V55.9999C71.4002 55.2573 71.1052 54.5451 70.5801 54.02C70.055 53.4949 69.3428 53.1999 68.6002 53.1999H60.2002C60.1734 52.6415 59.988 52.1023 59.6656 51.6456C59.3432 51.1888 58.8974 50.8335 58.3802 50.6211C57.8439 50.4027 57.2547 50.3491 56.6878 50.4673C56.121 50.5855 55.6022 50.8701 55.198 51.2847L51.278 55.3041C51.0026 55.5776 50.7839 55.9027 50.6342 56.2608C50.4846 56.6189 50.4069 57.0029 50.4058 57.391C50.4046 57.7791 50.4799 58.1636 50.6274 58.5226C50.7749 58.8816 50.9917 59.208 51.2654 59.4831L55.205 63.5207C55.6086 63.9346 56.1266 64.2183 56.6927 64.3356C57.2587 64.4528 57.8468 64.3982 58.3816 64.1787C58.8985 63.9662 59.3441 63.6107 59.6662 63.154C59.9883 62.6973 60.1735 62.1582 60.2002 61.5999ZM57.4002 60.1999V61.4319C57.4002 61.4921 57.3904 61.5579 57.1972 61.5607L53.252 57.5161C53.2243 57.4806 53.2104 57.4363 53.2127 57.3913C53.215 57.3463 53.2334 57.3037 53.2646 57.2711L57.3134 53.2111C57.3439 53.223 57.3693 53.2452 57.3852 53.2738C57.401 53.3025 57.4063 53.3358 57.4002 53.3679V54.5999C57.4002 54.9712 57.5477 55.3273 57.8102 55.5899C58.0728 55.8524 58.4289 55.9999 58.8002 55.9999H68.6002V58.7999H58.8002C58.4289 58.7999 58.0728 58.9474 57.8102 59.21C57.5477 59.4725 57.4002 59.8286 57.4002 60.1999Z" fill="white"/>
<path id="Vector_6" d="M73.6007 65.2777C73.197 64.864 72.679 64.5804 72.113 64.4631C71.547 64.3459 70.9589 64.4004 70.4241 64.6197C69.906 64.8315 69.459 65.1868 69.1359 65.6439C68.8127 66.1009 68.6268 66.6408 68.5999 67.1999H60.1999C59.4573 67.1999 58.7451 67.4949 58.22 68.02C57.6949 68.5451 57.3999 69.2573 57.3999 69.9999V72.7999C57.3999 73.5425 57.6949 74.2547 58.22 74.7798C58.7451 75.3049 59.4573 75.5999 60.1999 75.5999H68.5999C68.6267 76.1583 68.8121 76.6975 69.1345 77.1542C69.4568 77.611 69.9027 77.9664 70.4199 78.1787C70.7682 78.3217 71.141 78.3955 71.5175 78.3957C71.9061 78.3948 72.2905 78.3165 72.6485 78.1653C73.0064 78.0141 73.3306 77.793 73.6021 77.5151L77.5221 73.4957C77.7975 73.2222 78.0162 72.8971 78.1659 72.539C78.3155 72.181 78.3932 71.7969 78.3943 71.4088C78.3955 71.0207 78.3202 70.6362 78.1727 70.2772C78.0252 69.9182 77.8084 69.5918 77.5347 69.3167L73.6007 65.2777ZM71.4867 75.5873C71.4562 75.5754 71.4308 75.5532 71.4149 75.5246C71.3991 75.4959 71.3938 75.4627 71.3999 75.4305V74.1999C71.3999 73.8286 71.2524 73.4725 70.9899 73.2099C70.7273 72.9474 70.3712 72.7999 69.9999 72.7999H60.1999V69.9999H69.9999C70.3712 69.9999 70.7273 69.8524 70.9899 69.5898C71.2524 69.3273 71.3999 68.9712 71.3999 68.5999V67.3679C71.3999 67.3077 71.4097 67.2419 71.6029 67.2391L75.5355 71.2711L75.5999 71.3999L71.4867 75.5873Z" fill="white"/>
<path id="Vector_7" d="M7.0001 8.4001H8.4001C8.7714 8.4001 9.1275 8.2526 9.39005 7.99005C9.6526 7.7275 9.8001 7.3714 9.8001 7.0001C9.8001 6.62879 9.6526 6.2727 9.39005 6.01015C9.1275 5.7476 8.7714 5.6001 8.4001 5.6001H7.0001C6.62879 5.6001 6.2727 5.7476 6.01015 6.01015C5.7476 6.2727 5.6001 6.62879 5.6001 7.0001C5.6001 7.3714 5.7476 7.7275 6.01015 7.99005C6.2727 8.2526 6.62879 8.4001 7.0001 8.4001Z" fill="#ED3748"/>
<path id="Vector_8" d="M14.0001 8.4001H15.4001C15.7714 8.4001 16.1275 8.2526 16.39 7.99005C16.6526 7.7275 16.8001 7.3714 16.8001 7.0001C16.8001 6.62879 16.6526 6.2727 16.39 6.01015C16.1275 5.7476 15.7714 5.6001 15.4001 5.6001H14.0001C13.6288 5.6001 13.2727 5.7476 13.0101 6.01015C12.7476 6.2727 12.6001 6.62879 12.6001 7.0001C12.6001 7.3714 12.7476 7.7275 13.0101 7.99005C13.2727 8.2526 13.6288 8.4001 14.0001 8.4001Z" fill="#ED3748"/>
<path id="Vector_9" d="M21.0001 8.4001H22.4001C22.7714 8.4001 23.1275 8.2526 23.39 7.99005C23.6526 7.7275 23.8001 7.3714 23.8001 7.0001C23.8001 6.62879 23.6526 6.2727 23.39 6.01015C23.1275 5.7476 22.7714 5.6001 22.4001 5.6001H21.0001C20.6288 5.6001 20.2727 5.7476 20.0101 6.01015C19.7476 6.2727 19.6001 6.62879 19.6001 7.0001C19.6001 7.3714 19.7476 7.7275 20.0101 7.99005C20.2727 8.2526 20.6288 8.4001 21.0001 8.4001Z" fill="#ED3748"/>
<path id="Vector_10" d="M63.0001 8.4001H71.4001C71.7714 8.4001 72.1275 8.2526 72.39 7.99005C72.6526 7.7275 72.8001 7.3714 72.8001 7.0001C72.8001 6.62879 72.6526 6.2727 72.39 6.01015C72.1275 5.7476 71.7714 5.6001 71.4001 5.6001H63.0001C62.6288 5.6001 62.2727 5.7476 62.0101 6.01015C61.7476 6.2727 61.6001 6.62879 61.6001 7.0001C61.6001 7.3714 61.7476 7.7275 62.0101 7.99005C62.2727 8.2526 62.6288 8.4001 63.0001 8.4001Z" fill="#ED3748"/>
</g>
<defs>
<clipPath id="clip0_863_25788">
<rect width="84" height="84" fill="white"/>
</clipPath>
</defs>
</svg>
