<svg width="84" height="84" viewBox="0 0 84 84" fill="none" xmlns="http://www.w3.org/2000/svg">
<path d="M28.875 48.5625H34.125V51.1875H28.875V48.5625Z" fill="black"/>
<path d="M81.375 66.9375C82.0995 66.9375 82.6875 66.3508 82.6875 65.625V21C82.6875 20.2755 82.0995 19.6875 81.375 19.6875H74.7298C71.6927 14.9599 66.3994 11.8125 60.375 11.8125C54.3506 11.8125 49.0573 14.9599 46.0202 19.6875H39.375C38.6505 19.6875 38.0625 20.2755 38.0625 21V27.5625H22.3125C21.945 27.5625 21.5933 27.7174 21.3452 27.9877L7.27256 43.3401C3.93619 43.6459 1.3125 46.4586 1.3125 49.875V65.625C1.3125 66.3508 1.9005 66.9375 2.625 66.9375H13.125C13.125 68.9561 13.8941 70.7923 15.1462 72.1875H2.625C1.9005 72.1875 1.3125 72.7742 1.3125 73.5V81.375C1.3125 82.1008 1.9005 82.6875 2.625 82.6875H81.375C82.0995 82.6875 82.6875 82.1008 82.6875 81.375V73.5C82.6875 72.7742 82.0995 72.1875 81.375 72.1875H68.8538C70.1059 70.7923 70.875 68.9561 70.875 66.9375H81.375ZM60.375 14.4375C68.3353 14.4375 74.8125 20.9147 74.8125 28.875C74.8125 36.8353 68.3353 43.3125 60.375 43.3125C52.4147 43.3125 45.9375 36.8353 45.9375 28.875C45.9375 20.9147 52.4147 14.4375 60.375 14.4375ZM40.6875 22.3125H44.6289C43.7837 24.3337 43.3125 26.5506 43.3125 28.875C43.3125 38.283 50.967 45.9375 60.375 45.9375C69.783 45.9375 77.4375 38.283 77.4375 28.875C77.4375 26.5506 76.9663 24.3337 76.1211 22.3125H80.0625V51.1875H40.6875V28.875V22.3125ZM57.1463 72.1875H26.8537C28.1059 70.7923 28.875 68.9561 28.875 66.9375H55.125C55.125 68.9561 55.8941 70.7923 57.1463 72.1875ZM32.8125 35.4375V43.3125H27.5625V35.4375H32.8125ZM24.9375 43.3125H10.8583L18.0771 35.4375H24.9375V43.3125ZM3.9375 61.6875H6.5625V64.3125H3.9375V61.6875ZM9.1875 64.3125V60.375C9.1875 59.6492 8.5995 59.0625 7.875 59.0625H3.9375V49.875C3.9375 47.7041 5.70412 45.9375 7.875 45.9375H34.125C34.8495 45.9375 35.4375 45.3508 35.4375 44.625V34.125C35.4375 33.4005 34.8495 32.8125 34.125 32.8125H20.4842L22.89 30.1875H38.0625V64.3125H28.4156C27.3315 61.2583 24.4217 59.0625 21 59.0625C17.5783 59.0625 14.6685 61.2583 13.5844 64.3125H9.1875ZM15.75 66.9375C15.75 64.0421 18.1046 61.6875 21 61.6875C23.8954 61.6875 26.25 64.0421 26.25 66.9375C26.25 69.8329 23.8954 72.1875 21 72.1875C18.1046 72.1875 15.75 69.8329 15.75 66.9375ZM80.0625 80.0625H3.9375V74.8125H80.0625V80.0625ZM57.75 66.9375C57.75 64.0421 60.1046 61.6875 63 61.6875C65.8954 61.6875 68.25 64.0421 68.25 66.9375C68.25 69.8329 65.8954 72.1875 63 72.1875C60.1046 72.1875 57.75 69.8329 57.75 66.9375ZM63 59.0625C59.5783 59.0625 56.6685 61.2583 55.5844 64.3125H40.6875V53.8125H80.0625V64.3125H70.4156C69.3315 61.2583 66.4217 59.0625 63 59.0625Z" fill="white"/>
<path d="M2.625 1.3125H26.25V3.9375H2.625V1.3125Z" fill="#ED3748"/>
<path d="M28.875 1.3125H31.5V3.9375H28.875V1.3125Z" fill="#ED3748"/>
<path d="M2.625 11.8125H26.25V14.4375H2.625V11.8125Z" fill="#ED3748"/>
<path d="M28.875 11.8125H31.5V14.4375H28.875V11.8125Z" fill="#ED3748"/>
<path d="M2.625 6.5625H42V9.1875H2.625V6.5625Z" fill="#ED3748"/>
<path d="M65.4492 24.4258H63.3414C63.2305 24.0375 63.0641 23.6492 62.7867 23.3164H65.4492C65.893 23.3164 66.2812 22.9281 66.2812 22.4844C66.2812 22.0406 65.893 21.6523 65.4492 21.6523H58.682H55.4648C55.0211 21.6523 54.6328 22.0406 54.6328 22.4844C54.6328 22.9281 55.0211 23.3164 55.4648 23.3164H58.682C60.4016 23.3164 61.1781 23.7602 61.5664 24.4258H55.4648C55.0211 24.4258 54.6328 24.8141 54.6328 25.2578C54.6328 25.7016 55.0211 26.0898 55.4648 26.0898H61.8438C61.7883 27.2547 61.2891 28.3086 58.682 28.3086H55.4648C55.132 28.3086 54.7992 28.5305 54.6883 28.8078C54.5773 29.1406 54.6328 29.4734 54.8547 29.6953L61.5109 36.3516C61.6773 36.518 61.8992 36.5734 62.1211 36.5734C62.343 36.5734 62.5648 36.518 62.7312 36.3516C63.0641 36.0188 63.0641 35.5195 62.7312 35.1867L57.5172 29.9727H58.682C62.6758 29.9727 63.4523 27.643 63.5078 26.0898H65.4492C65.893 26.0898 66.2812 25.7016 66.2812 25.2578C66.2812 24.8141 65.893 24.4258 65.4492 24.4258Z" fill="#ED3748"/>
</svg>
